%TF.GenerationSoftware,KiCad,Pcbnew,7.0.2-6a45011f42~172~ubuntu22.04.1*%
%TF.CreationDate,2023-05-20T19:06:32+02:00*%
%TF.ProjectId,qdisk_v4,71646973-6b5f-4763-942e-6b696361645f,00*%
%TF.SameCoordinates,Original*%
%TF.FileFunction,Soldermask,Bot*%
%TF.FilePolarity,Negative*%
%FSLAX46Y46*%
G04 Gerber Fmt 4.6, Leading zero omitted, Abs format (unit mm)*
G04 Created by KiCad (PCBNEW 7.0.2-6a45011f42~172~ubuntu22.04.1) date 2023-05-20 19:06:32*
%MOMM*%
%LPD*%
G01*
G04 APERTURE LIST*
G04 Aperture macros list*
%AMRoundRect*
0 Rectangle with rounded corners*
0 $1 Rounding radius*
0 $2 $3 $4 $5 $6 $7 $8 $9 X,Y pos of 4 corners*
0 Add a 4 corners polygon primitive as box body*
4,1,4,$2,$3,$4,$5,$6,$7,$8,$9,$2,$3,0*
0 Add four circle primitives for the rounded corners*
1,1,$1+$1,$2,$3*
1,1,$1+$1,$4,$5*
1,1,$1+$1,$6,$7*
1,1,$1+$1,$8,$9*
0 Add four rect primitives between the rounded corners*
20,1,$1+$1,$2,$3,$4,$5,0*
20,1,$1+$1,$4,$5,$6,$7,0*
20,1,$1+$1,$6,$7,$8,$9,0*
20,1,$1+$1,$8,$9,$2,$3,0*%
G04 Aperture macros list end*
%ADD10C,0.150000*%
%ADD11O,3.500000X3.500000*%
%ADD12R,1.905000X2.000000*%
%ADD13O,1.905000X2.000000*%
%ADD14C,1.600000*%
%ADD15R,1.600000X1.600000*%
%ADD16O,1.600000X1.600000*%
%ADD17C,2.850000*%
%ADD18RoundRect,0.249999X-0.525001X0.525001X-0.525001X-0.525001X0.525001X-0.525001X0.525001X0.525001X0*%
%ADD19C,1.550000*%
%ADD20C,1.500000*%
%ADD21RoundRect,0.250000X0.600000X0.600000X-0.600000X0.600000X-0.600000X-0.600000X0.600000X-0.600000X0*%
%ADD22C,1.700000*%
%ADD23R,1.300000X1.050000*%
%ADD24O,1.300000X1.050000*%
%ADD25C,1.200000*%
%ADD26C,1.000000*%
%TA.AperFunction,Profile*%
%ADD27C,0.050000*%
%TD*%
G04 APERTURE END LIST*
D10*
X100893190Y-50325619D02*
X101226523Y-49849428D01*
X101464618Y-50325619D02*
X101464618Y-49325619D01*
X101464618Y-49325619D02*
X101083666Y-49325619D01*
X101083666Y-49325619D02*
X100988428Y-49373238D01*
X100988428Y-49373238D02*
X100940809Y-49420857D01*
X100940809Y-49420857D02*
X100893190Y-49516095D01*
X100893190Y-49516095D02*
X100893190Y-49658952D01*
X100893190Y-49658952D02*
X100940809Y-49754190D01*
X100940809Y-49754190D02*
X100988428Y-49801809D01*
X100988428Y-49801809D02*
X101083666Y-49849428D01*
X101083666Y-49849428D02*
X101464618Y-49849428D01*
X100464618Y-49801809D02*
X100131285Y-49801809D01*
X99988428Y-50325619D02*
X100464618Y-50325619D01*
X100464618Y-50325619D02*
X100464618Y-49325619D01*
X100464618Y-49325619D02*
X99988428Y-49325619D01*
X99559856Y-50325619D02*
X99559856Y-49325619D01*
X99559856Y-49325619D02*
X99178904Y-49325619D01*
X99178904Y-49325619D02*
X99083666Y-49373238D01*
X99083666Y-49373238D02*
X99036047Y-49420857D01*
X99036047Y-49420857D02*
X98988428Y-49516095D01*
X98988428Y-49516095D02*
X98988428Y-49658952D01*
X98988428Y-49658952D02*
X99036047Y-49754190D01*
X99036047Y-49754190D02*
X99083666Y-49801809D01*
X99083666Y-49801809D02*
X99178904Y-49849428D01*
X99178904Y-49849428D02*
X99559856Y-49849428D01*
X97988428Y-50325619D02*
X98321761Y-49849428D01*
X98559856Y-50325619D02*
X98559856Y-49325619D01*
X98559856Y-49325619D02*
X98178904Y-49325619D01*
X98178904Y-49325619D02*
X98083666Y-49373238D01*
X98083666Y-49373238D02*
X98036047Y-49420857D01*
X98036047Y-49420857D02*
X97988428Y-49516095D01*
X97988428Y-49516095D02*
X97988428Y-49658952D01*
X97988428Y-49658952D02*
X98036047Y-49754190D01*
X98036047Y-49754190D02*
X98083666Y-49801809D01*
X98083666Y-49801809D02*
X98178904Y-49849428D01*
X98178904Y-49849428D02*
X98559856Y-49849428D01*
X97369380Y-49325619D02*
X97178904Y-49325619D01*
X97178904Y-49325619D02*
X97083666Y-49373238D01*
X97083666Y-49373238D02*
X96988428Y-49468476D01*
X96988428Y-49468476D02*
X96940809Y-49658952D01*
X96940809Y-49658952D02*
X96940809Y-49992285D01*
X96940809Y-49992285D02*
X96988428Y-50182761D01*
X96988428Y-50182761D02*
X97083666Y-50278000D01*
X97083666Y-50278000D02*
X97178904Y-50325619D01*
X97178904Y-50325619D02*
X97369380Y-50325619D01*
X97369380Y-50325619D02*
X97464618Y-50278000D01*
X97464618Y-50278000D02*
X97559856Y-50182761D01*
X97559856Y-50182761D02*
X97607475Y-49992285D01*
X97607475Y-49992285D02*
X97607475Y-49658952D01*
X97607475Y-49658952D02*
X97559856Y-49468476D01*
X97559856Y-49468476D02*
X97464618Y-49373238D01*
X97464618Y-49373238D02*
X97369380Y-49325619D01*
X95416999Y-49801809D02*
X95274142Y-49849428D01*
X95274142Y-49849428D02*
X95226523Y-49897047D01*
X95226523Y-49897047D02*
X95178904Y-49992285D01*
X95178904Y-49992285D02*
X95178904Y-50135142D01*
X95178904Y-50135142D02*
X95226523Y-50230380D01*
X95226523Y-50230380D02*
X95274142Y-50278000D01*
X95274142Y-50278000D02*
X95369380Y-50325619D01*
X95369380Y-50325619D02*
X95750332Y-50325619D01*
X95750332Y-50325619D02*
X95750332Y-49325619D01*
X95750332Y-49325619D02*
X95416999Y-49325619D01*
X95416999Y-49325619D02*
X95321761Y-49373238D01*
X95321761Y-49373238D02*
X95274142Y-49420857D01*
X95274142Y-49420857D02*
X95226523Y-49516095D01*
X95226523Y-49516095D02*
X95226523Y-49611333D01*
X95226523Y-49611333D02*
X95274142Y-49706571D01*
X95274142Y-49706571D02*
X95321761Y-49754190D01*
X95321761Y-49754190D02*
X95416999Y-49801809D01*
X95416999Y-49801809D02*
X95750332Y-49801809D01*
X94559856Y-49849428D02*
X94559856Y-50325619D01*
X94893189Y-49325619D02*
X94559856Y-49849428D01*
X94559856Y-49849428D02*
X94226523Y-49325619D01*
X101964619Y-51659904D02*
X101488429Y-51659904D01*
X102059857Y-51945619D02*
X101726524Y-50945619D01*
X101726524Y-50945619D02*
X101393191Y-51945619D01*
X100917000Y-51945619D02*
X101012238Y-51898000D01*
X101012238Y-51898000D02*
X101059857Y-51802761D01*
X101059857Y-51802761D02*
X101059857Y-50945619D01*
X100631285Y-51278952D02*
X100393190Y-51945619D01*
X100393190Y-51945619D02*
X100155095Y-51278952D01*
X99345571Y-51945619D02*
X99345571Y-51421809D01*
X99345571Y-51421809D02*
X99393190Y-51326571D01*
X99393190Y-51326571D02*
X99488428Y-51278952D01*
X99488428Y-51278952D02*
X99678904Y-51278952D01*
X99678904Y-51278952D02*
X99774142Y-51326571D01*
X99345571Y-51898000D02*
X99440809Y-51945619D01*
X99440809Y-51945619D02*
X99678904Y-51945619D01*
X99678904Y-51945619D02*
X99774142Y-51898000D01*
X99774142Y-51898000D02*
X99821761Y-51802761D01*
X99821761Y-51802761D02*
X99821761Y-51707523D01*
X99821761Y-51707523D02*
X99774142Y-51612285D01*
X99774142Y-51612285D02*
X99678904Y-51564666D01*
X99678904Y-51564666D02*
X99440809Y-51564666D01*
X99440809Y-51564666D02*
X99345571Y-51517047D01*
X98869380Y-51945619D02*
X98869380Y-51278952D01*
X98869380Y-51469428D02*
X98821761Y-51374190D01*
X98821761Y-51374190D02*
X98774142Y-51326571D01*
X98774142Y-51326571D02*
X98678904Y-51278952D01*
X98678904Y-51278952D02*
X98583666Y-51278952D01*
X98107475Y-51945619D02*
X98202713Y-51898000D01*
X98202713Y-51898000D02*
X98250332Y-51850380D01*
X98250332Y-51850380D02*
X98297951Y-51755142D01*
X98297951Y-51755142D02*
X98297951Y-51469428D01*
X98297951Y-51469428D02*
X98250332Y-51374190D01*
X98250332Y-51374190D02*
X98202713Y-51326571D01*
X98202713Y-51326571D02*
X98107475Y-51278952D01*
X98107475Y-51278952D02*
X97964618Y-51278952D01*
X97964618Y-51278952D02*
X97869380Y-51326571D01*
X97869380Y-51326571D02*
X97821761Y-51374190D01*
X97821761Y-51374190D02*
X97774142Y-51469428D01*
X97774142Y-51469428D02*
X97774142Y-51755142D01*
X97774142Y-51755142D02*
X97821761Y-51850380D01*
X97821761Y-51850380D02*
X97869380Y-51898000D01*
X97869380Y-51898000D02*
X97964618Y-51945619D01*
X97964618Y-51945619D02*
X98107475Y-51945619D01*
X96631284Y-51659904D02*
X96155094Y-51659904D01*
X96726522Y-51945619D02*
X96393189Y-50945619D01*
X96393189Y-50945619D02*
X96059856Y-51945619D01*
X95583665Y-51945619D02*
X95678903Y-51898000D01*
X95678903Y-51898000D02*
X95726522Y-51802761D01*
X95726522Y-51802761D02*
X95726522Y-50945619D01*
X94821760Y-51898000D02*
X94916998Y-51945619D01*
X94916998Y-51945619D02*
X95107474Y-51945619D01*
X95107474Y-51945619D02*
X95202712Y-51898000D01*
X95202712Y-51898000D02*
X95250331Y-51802761D01*
X95250331Y-51802761D02*
X95250331Y-51421809D01*
X95250331Y-51421809D02*
X95202712Y-51326571D01*
X95202712Y-51326571D02*
X95107474Y-51278952D01*
X95107474Y-51278952D02*
X94916998Y-51278952D01*
X94916998Y-51278952D02*
X94821760Y-51326571D01*
X94821760Y-51326571D02*
X94774141Y-51421809D01*
X94774141Y-51421809D02*
X94774141Y-51517047D01*
X94774141Y-51517047D02*
X95250331Y-51612285D01*
X93916998Y-51945619D02*
X93916998Y-51421809D01*
X93916998Y-51421809D02*
X93964617Y-51326571D01*
X93964617Y-51326571D02*
X94059855Y-51278952D01*
X94059855Y-51278952D02*
X94250331Y-51278952D01*
X94250331Y-51278952D02*
X94345569Y-51326571D01*
X93916998Y-51898000D02*
X94012236Y-51945619D01*
X94012236Y-51945619D02*
X94250331Y-51945619D01*
X94250331Y-51945619D02*
X94345569Y-51898000D01*
X94345569Y-51898000D02*
X94393188Y-51802761D01*
X94393188Y-51802761D02*
X94393188Y-51707523D01*
X94393188Y-51707523D02*
X94345569Y-51612285D01*
X94345569Y-51612285D02*
X94250331Y-51564666D01*
X94250331Y-51564666D02*
X94012236Y-51564666D01*
X94012236Y-51564666D02*
X93916998Y-51517047D01*
D11*
%TO.C,U1*%
X172847000Y-63563000D03*
D12*
X170307000Y-80223000D03*
D13*
X172847000Y-80223000D03*
X175387000Y-80223000D03*
%TD*%
D14*
%TO.C,C6*%
X157607000Y-97663000D03*
X152607000Y-97663000D03*
%TD*%
%TO.C,C3*%
X157607000Y-57023000D03*
X152607000Y-57023000D03*
%TD*%
D15*
%TO.C,U9*%
X149987000Y-102743000D03*
D16*
X149987000Y-105283000D03*
X149987000Y-107823000D03*
X149987000Y-110363000D03*
X149987000Y-112903000D03*
X149987000Y-115443000D03*
X149987000Y-117983000D03*
X149987000Y-120523000D03*
X149987000Y-123063000D03*
X149987000Y-125603000D03*
X149987000Y-128143000D03*
X149987000Y-130683000D03*
X149987000Y-133223000D03*
X149987000Y-135763000D03*
X165227000Y-135763000D03*
X165227000Y-133223000D03*
X165227000Y-130683000D03*
X165227000Y-128143000D03*
X165227000Y-125603000D03*
X165227000Y-123063000D03*
X165227000Y-120523000D03*
X165227000Y-117983000D03*
X165227000Y-115443000D03*
X165227000Y-112903000D03*
X165227000Y-110363000D03*
X165227000Y-107823000D03*
X165227000Y-105283000D03*
X165227000Y-102743000D03*
%TD*%
D15*
%TO.C,U5*%
X172197000Y-112908000D03*
D16*
X172197000Y-115448000D03*
X172197000Y-117988000D03*
X172197000Y-120528000D03*
X172197000Y-123068000D03*
X172197000Y-125608000D03*
X172197000Y-128148000D03*
X172197000Y-130688000D03*
X172197000Y-133228000D03*
X172197000Y-135768000D03*
X179817000Y-135768000D03*
X179817000Y-133228000D03*
X179817000Y-130688000D03*
X179817000Y-128148000D03*
X179817000Y-125608000D03*
X179817000Y-123068000D03*
X179817000Y-120528000D03*
X179817000Y-117988000D03*
X179817000Y-115448000D03*
X179817000Y-112908000D03*
%TD*%
D15*
%TO.C,U6*%
X135382000Y-67183000D03*
D16*
X135382000Y-69723000D03*
X135382000Y-72263000D03*
X135382000Y-74803000D03*
X135382000Y-77343000D03*
X135382000Y-79883000D03*
X135382000Y-82423000D03*
X143002000Y-82423000D03*
X143002000Y-79883000D03*
X143002000Y-77343000D03*
X143002000Y-74803000D03*
X143002000Y-72263000D03*
X143002000Y-69723000D03*
X143002000Y-67183000D03*
%TD*%
D17*
%TO.C,J1*%
X195072000Y-49403000D03*
X195072000Y-138303000D03*
D18*
X192532000Y-54483000D03*
D19*
X192532000Y-57023000D03*
X192532000Y-59563000D03*
X192532000Y-62103000D03*
X192532000Y-64643000D03*
X192532000Y-67183000D03*
X192532000Y-69723000D03*
X192532000Y-72263000D03*
X192532000Y-74803000D03*
X192532000Y-77343000D03*
X192532000Y-79883000D03*
X192532000Y-82423000D03*
X192532000Y-84963000D03*
X192532000Y-87503000D03*
X192532000Y-90043000D03*
X192532000Y-92583000D03*
X192532000Y-95123000D03*
X192532000Y-97663000D03*
X192532000Y-100203000D03*
X192532000Y-102743000D03*
X192532000Y-105283000D03*
X192532000Y-107823000D03*
X192532000Y-110363000D03*
X192532000Y-112903000D03*
X192532000Y-115443000D03*
X192532000Y-117983000D03*
X192532000Y-120523000D03*
X192532000Y-123063000D03*
X192532000Y-125603000D03*
X192532000Y-128143000D03*
X192532000Y-130683000D03*
X192532000Y-133223000D03*
X189992000Y-54483000D03*
X189992000Y-57023000D03*
X189992000Y-59563000D03*
X189992000Y-62103000D03*
X189992000Y-64643000D03*
X189992000Y-67183000D03*
X189992000Y-69723000D03*
X189992000Y-72263000D03*
X189992000Y-74803000D03*
X189992000Y-77343000D03*
X189992000Y-79883000D03*
X189992000Y-82423000D03*
X189992000Y-84963000D03*
X189992000Y-87503000D03*
X189992000Y-90043000D03*
X189992000Y-92583000D03*
X189992000Y-95123000D03*
X189992000Y-97663000D03*
X189992000Y-100203000D03*
X189992000Y-102743000D03*
X189992000Y-105283000D03*
X189992000Y-107823000D03*
X189992000Y-110363000D03*
X189992000Y-112903000D03*
X189992000Y-115443000D03*
X189992000Y-117983000D03*
X189992000Y-120523000D03*
X189992000Y-123063000D03*
X189992000Y-125603000D03*
X189992000Y-128143000D03*
X189992000Y-130683000D03*
X189992000Y-133223000D03*
%TD*%
D20*
%TO.C,Y1*%
X137922000Y-92553000D03*
X142822000Y-92553000D03*
%TD*%
D15*
%TO.C,U8*%
X97917000Y-110363000D03*
D16*
X97917000Y-112903000D03*
X97917000Y-115443000D03*
X97917000Y-117983000D03*
X97917000Y-120523000D03*
X97917000Y-123063000D03*
X97917000Y-125603000D03*
X97917000Y-128143000D03*
X97917000Y-130683000D03*
X97917000Y-133223000D03*
X105537000Y-133223000D03*
X105537000Y-130683000D03*
X105537000Y-128143000D03*
X105537000Y-125603000D03*
X105537000Y-123063000D03*
X105537000Y-120523000D03*
X105537000Y-117983000D03*
X105537000Y-115443000D03*
X105537000Y-112903000D03*
X105537000Y-110363000D03*
%TD*%
D21*
%TO.C,J2*%
X78232000Y-114173000D03*
D22*
X75692000Y-114173000D03*
X78232000Y-111633000D03*
X75692000Y-111633000D03*
X78232000Y-109093000D03*
X75692000Y-109093000D03*
X78232000Y-106553000D03*
X75692000Y-106553000D03*
X78232000Y-104013000D03*
X75692000Y-104013000D03*
X78232000Y-101473000D03*
X75692000Y-101473000D03*
X78232000Y-98933000D03*
X75692000Y-98933000D03*
X78232000Y-96393000D03*
X75692000Y-96393000D03*
X78232000Y-93853000D03*
X75692000Y-93853000D03*
X78232000Y-91313000D03*
X75692000Y-91313000D03*
X78232000Y-88773000D03*
X75692000Y-88773000D03*
X78232000Y-86233000D03*
X75692000Y-86233000D03*
X78232000Y-83693000D03*
X75692000Y-83693000D03*
X78232000Y-81153000D03*
X75692000Y-81153000D03*
X78232000Y-78613000D03*
X75692000Y-78613000D03*
X78232000Y-76073000D03*
X75692000Y-76073000D03*
X78232000Y-73533000D03*
X75692000Y-73533000D03*
%TD*%
D14*
%TO.C,C5*%
X157567000Y-72263000D03*
X152567000Y-72263000D03*
%TD*%
%TO.C,C12*%
X118237000Y-95123000D03*
X113237000Y-95123000D03*
%TD*%
D15*
%TO.C,U4*%
X149987000Y-77343000D03*
D16*
X149987000Y-79883000D03*
X149987000Y-82423000D03*
X149987000Y-84963000D03*
X149987000Y-87503000D03*
X149987000Y-90043000D03*
X149987000Y-92583000D03*
X157607000Y-92583000D03*
X157607000Y-90043000D03*
X157607000Y-87503000D03*
X157607000Y-84963000D03*
X157607000Y-82423000D03*
X157607000Y-79883000D03*
X157607000Y-77343000D03*
%TD*%
D15*
%TO.C,U10*%
X127762000Y-133223000D03*
D16*
X127762000Y-130683000D03*
X127762000Y-128143000D03*
X127762000Y-125603000D03*
X127762000Y-123063000D03*
X127762000Y-120523000D03*
X127762000Y-117983000D03*
X127762000Y-115443000D03*
X127762000Y-112903000D03*
X127762000Y-110363000D03*
X127762000Y-107823000D03*
X127762000Y-105283000D03*
X127762000Y-102743000D03*
X127762000Y-100203000D03*
X112522000Y-100203000D03*
X112522000Y-102743000D03*
X112522000Y-105283000D03*
X112522000Y-107823000D03*
X112522000Y-110363000D03*
X112522000Y-112903000D03*
X112522000Y-115443000D03*
X112522000Y-117983000D03*
X112522000Y-120523000D03*
X112522000Y-123063000D03*
X112522000Y-125603000D03*
X112522000Y-128143000D03*
X112522000Y-130683000D03*
X112522000Y-133223000D03*
%TD*%
D15*
%TO.C,C4*%
X157607000Y-64643000D03*
D14*
X152607000Y-64643000D03*
%TD*%
%TO.C,C14*%
X105457000Y-105283000D03*
X100457000Y-105283000D03*
%TD*%
D15*
%TO.C,RP1*%
X130302000Y-57023000D03*
D16*
X130302000Y-59563000D03*
X130302000Y-62103000D03*
X130302000Y-64643000D03*
X130302000Y-67183000D03*
X130302000Y-69723000D03*
X130302000Y-72263000D03*
X130302000Y-74803000D03*
%TD*%
D14*
%TO.C,C8*%
X138002000Y-86233000D03*
X143002000Y-86233000D03*
%TD*%
D15*
%TO.C,RP2*%
X92202000Y-79883000D03*
D16*
X92202000Y-82423000D03*
X92202000Y-84963000D03*
X92202000Y-87503000D03*
X92202000Y-90043000D03*
X92202000Y-92583000D03*
X92202000Y-95123000D03*
%TD*%
D14*
%TO.C,C2*%
X179832000Y-107823000D03*
X174832000Y-107823000D03*
%TD*%
%TO.C,C1*%
X177887000Y-83058000D03*
X172887000Y-83058000D03*
%TD*%
D15*
%TO.C,U7*%
X97917000Y-84958000D03*
D16*
X97917000Y-87498000D03*
X97917000Y-90038000D03*
X97917000Y-92578000D03*
X97917000Y-95118000D03*
X97917000Y-97658000D03*
X97917000Y-100198000D03*
X105537000Y-100198000D03*
X105537000Y-97658000D03*
X105537000Y-95118000D03*
X105537000Y-92578000D03*
X105537000Y-90038000D03*
X105537000Y-87498000D03*
X105537000Y-84958000D03*
%TD*%
D14*
%TO.C,C10*%
X142367000Y-109728000D03*
X137367000Y-109728000D03*
%TD*%
D23*
%TO.C,Q1*%
X167767000Y-87503000D03*
D24*
X167767000Y-84963000D03*
X167767000Y-82423000D03*
%TD*%
D14*
%TO.C,C9*%
X138002000Y-89408000D03*
X143002000Y-89408000D03*
%TD*%
D15*
%TO.C,U3*%
X113157000Y-74803000D03*
D16*
X113157000Y-77343000D03*
X113157000Y-79883000D03*
X113157000Y-82423000D03*
X113157000Y-84963000D03*
X113157000Y-87503000D03*
X113157000Y-90043000D03*
X120777000Y-90043000D03*
X120777000Y-87503000D03*
X120777000Y-84963000D03*
X120777000Y-82423000D03*
X120777000Y-79883000D03*
X120777000Y-77343000D03*
X120777000Y-74803000D03*
%TD*%
D14*
%TO.C,C11*%
X120737000Y-69723000D03*
X115737000Y-69723000D03*
%TD*%
%TO.C,C7*%
X143002000Y-62103000D03*
X138002000Y-62103000D03*
%TD*%
D15*
%TO.C,U11*%
X134747000Y-115443000D03*
D16*
X134747000Y-117983000D03*
X134747000Y-120523000D03*
X134747000Y-123063000D03*
X134747000Y-125603000D03*
X134747000Y-128143000D03*
X134747000Y-130683000D03*
X134747000Y-133223000D03*
X142367000Y-133223000D03*
X142367000Y-130683000D03*
X142367000Y-128143000D03*
X142367000Y-125603000D03*
X142367000Y-123063000D03*
X142367000Y-120523000D03*
X142367000Y-117983000D03*
X142367000Y-115443000D03*
%TD*%
D14*
%TO.C,C13*%
X105537000Y-79883000D03*
X100537000Y-79883000D03*
%TD*%
D15*
%TO.C,U2*%
X172212000Y-87503000D03*
D16*
X172212000Y-90043000D03*
X172212000Y-92583000D03*
X172212000Y-95123000D03*
X172212000Y-97663000D03*
X172212000Y-100203000D03*
X172212000Y-102743000D03*
X179832000Y-102743000D03*
X179832000Y-100203000D03*
X179832000Y-97663000D03*
X179832000Y-95123000D03*
X179832000Y-92583000D03*
X179832000Y-90043000D03*
X179832000Y-87503000D03*
%TD*%
D25*
X108077000Y-95123000D03*
X182372000Y-112903000D03*
X152527000Y-54483000D03*
X149987000Y-97663000D03*
X182372000Y-79883000D03*
X182372000Y-82423000D03*
X182372000Y-84963000D03*
X184912000Y-120523000D03*
X187452000Y-54483000D03*
X147447000Y-97663000D03*
D26*
X182372000Y-135763000D03*
D25*
X152527000Y-135763000D03*
X130302000Y-138303000D03*
X152527000Y-138303000D03*
D26*
X184912000Y-135763000D03*
D25*
X132842000Y-138303000D03*
D26*
X184912000Y-138303000D03*
D25*
X125222000Y-133223000D03*
X170307000Y-138303000D03*
D26*
X187452000Y-135763000D03*
D25*
X127762000Y-138303000D03*
D26*
X187452000Y-138303000D03*
D25*
X139827000Y-138303000D03*
X92837000Y-123063000D03*
X97282000Y-102743000D03*
X108077000Y-100203000D03*
X127762000Y-135763000D03*
X157607000Y-110363000D03*
X169672000Y-84963000D03*
X110617000Y-79883000D03*
D26*
X109982000Y-115443000D03*
X109982000Y-117983000D03*
X109982000Y-123063000D03*
X109982000Y-120523000D03*
X109982000Y-125603000D03*
D25*
X123698000Y-107823000D03*
X105537000Y-102743000D03*
X123698000Y-102743000D03*
X143002000Y-102743000D03*
D27*
X197612000Y-44323000D02*
X71882000Y-44323000D01*
X77724000Y-67691000D02*
G75*
G03*
X77724000Y-67691000I-1270000J0D01*
G01*
X77724000Y-120015000D02*
G75*
G03*
X77724000Y-120015000I-1270000J0D01*
G01*
X78867000Y-48768000D02*
G75*
G03*
X78867000Y-48768000I-1905000J0D01*
G01*
X123317000Y-138303000D02*
G75*
G03*
X123317000Y-138303000I-1905000J0D01*
G01*
X197612000Y-143383000D02*
X197612000Y-44323000D01*
X71882000Y-44323000D02*
X71882000Y-143383000D01*
X123317000Y-48768000D02*
G75*
G03*
X123317000Y-48768000I-1905000J0D01*
G01*
X71882000Y-143383000D02*
X197612000Y-143383000D01*
X78867000Y-138303000D02*
G75*
G03*
X78867000Y-138303000I-1905000J0D01*
G01*
M02*
