%TF.GenerationSoftware,KiCad,Pcbnew,7.0.5-4d25ed1034~172~ubuntu22.04.1*%
%TF.CreationDate,2023-06-17T18:54:13+02:00*%
%TF.ProjectId,qdisk_v4,71646973-6b5f-4763-942e-6b696361645f,00*%
%TF.SameCoordinates,Original*%
%TF.FileFunction,Soldermask,Top*%
%TF.FilePolarity,Negative*%
%FSLAX46Y46*%
G04 Gerber Fmt 4.6, Leading zero omitted, Abs format (unit mm)*
G04 Created by KiCad (PCBNEW 7.0.5-4d25ed1034~172~ubuntu22.04.1) date 2023-06-17 18:54:13*
%MOMM*%
%LPD*%
G01*
G04 APERTURE LIST*
G04 Aperture macros list*
%AMRoundRect*
0 Rectangle with rounded corners*
0 $1 Rounding radius*
0 $2 $3 $4 $5 $6 $7 $8 $9 X,Y pos of 4 corners*
0 Add a 4 corners polygon primitive as box body*
4,1,4,$2,$3,$4,$5,$6,$7,$8,$9,$2,$3,0*
0 Add four circle primitives for the rounded corners*
1,1,$1+$1,$2,$3*
1,1,$1+$1,$4,$5*
1,1,$1+$1,$6,$7*
1,1,$1+$1,$8,$9*
0 Add four rect primitives between the rounded corners*
20,1,$1+$1,$2,$3,$4,$5,0*
20,1,$1+$1,$4,$5,$6,$7,0*
20,1,$1+$1,$6,$7,$8,$9,0*
20,1,$1+$1,$8,$9,$2,$3,0*%
G04 Aperture macros list end*
%ADD10O,3.500000X3.500000*%
%ADD11R,1.905000X2.000000*%
%ADD12O,1.905000X2.000000*%
%ADD13C,1.600000*%
%ADD14R,1.600000X1.600000*%
%ADD15O,1.600000X1.600000*%
%ADD16C,2.850000*%
%ADD17RoundRect,0.249999X0.525001X-0.525001X0.525001X0.525001X-0.525001X0.525001X-0.525001X-0.525001X0*%
%ADD18C,1.550000*%
%ADD19C,1.500000*%
%ADD20RoundRect,0.250000X0.600000X0.600000X-0.600000X0.600000X-0.600000X-0.600000X0.600000X-0.600000X0*%
%ADD21C,1.700000*%
%ADD22R,1.300000X1.050000*%
%ADD23O,1.300000X1.050000*%
%ADD24C,1.200000*%
%ADD25C,1.000000*%
%TA.AperFunction,Profile*%
%ADD26C,0.050000*%
%TD*%
G04 APERTURE END LIST*
D10*
%TO.C,U1*%
X172847000Y-63563000D03*
D11*
X170307000Y-80223000D03*
D12*
X172847000Y-80223000D03*
X175387000Y-80223000D03*
%TD*%
D13*
%TO.C,C6*%
X157607000Y-97663000D03*
X152607000Y-97663000D03*
%TD*%
%TO.C,C3*%
X157607000Y-57023000D03*
X152607000Y-57023000D03*
%TD*%
D14*
%TO.C,U9*%
X149987000Y-102743000D03*
D15*
X149987000Y-105283000D03*
X149987000Y-107823000D03*
X149987000Y-110363000D03*
X149987000Y-112903000D03*
X149987000Y-115443000D03*
X149987000Y-117983000D03*
X149987000Y-120523000D03*
X149987000Y-123063000D03*
X149987000Y-125603000D03*
X149987000Y-128143000D03*
X149987000Y-130683000D03*
X149987000Y-133223000D03*
X149987000Y-135763000D03*
X165227000Y-135763000D03*
X165227000Y-133223000D03*
X165227000Y-130683000D03*
X165227000Y-128143000D03*
X165227000Y-125603000D03*
X165227000Y-123063000D03*
X165227000Y-120523000D03*
X165227000Y-117983000D03*
X165227000Y-115443000D03*
X165227000Y-112903000D03*
X165227000Y-110363000D03*
X165227000Y-107823000D03*
X165227000Y-105283000D03*
X165227000Y-102743000D03*
%TD*%
D14*
%TO.C,U5*%
X172197000Y-112908000D03*
D15*
X172197000Y-115448000D03*
X172197000Y-117988000D03*
X172197000Y-120528000D03*
X172197000Y-123068000D03*
X172197000Y-125608000D03*
X172197000Y-128148000D03*
X172197000Y-130688000D03*
X172197000Y-133228000D03*
X172197000Y-135768000D03*
X179817000Y-135768000D03*
X179817000Y-133228000D03*
X179817000Y-130688000D03*
X179817000Y-128148000D03*
X179817000Y-125608000D03*
X179817000Y-123068000D03*
X179817000Y-120528000D03*
X179817000Y-117988000D03*
X179817000Y-115448000D03*
X179817000Y-112908000D03*
%TD*%
D14*
%TO.C,U6*%
X135382000Y-67183000D03*
D15*
X135382000Y-69723000D03*
X135382000Y-72263000D03*
X135382000Y-74803000D03*
X135382000Y-77343000D03*
X135382000Y-79883000D03*
X135382000Y-82423000D03*
X143002000Y-82423000D03*
X143002000Y-79883000D03*
X143002000Y-77343000D03*
X143002000Y-74803000D03*
X143002000Y-72263000D03*
X143002000Y-69723000D03*
X143002000Y-67183000D03*
%TD*%
D16*
%TO.C,J1*%
X195072000Y-49403000D03*
X195072000Y-138303000D03*
D17*
X192532000Y-54483000D03*
D18*
X192532000Y-57023000D03*
X192532000Y-59563000D03*
X192532000Y-62103000D03*
X192532000Y-64643000D03*
X192532000Y-67183000D03*
X192532000Y-69723000D03*
X192532000Y-72263000D03*
X192532000Y-74803000D03*
X192532000Y-77343000D03*
X192532000Y-79883000D03*
X192532000Y-82423000D03*
X192532000Y-84963000D03*
X192532000Y-87503000D03*
X192532000Y-90043000D03*
X192532000Y-92583000D03*
X192532000Y-95123000D03*
X192532000Y-97663000D03*
X192532000Y-100203000D03*
X192532000Y-102743000D03*
X192532000Y-105283000D03*
X192532000Y-107823000D03*
X192532000Y-110363000D03*
X192532000Y-112903000D03*
X192532000Y-115443000D03*
X192532000Y-117983000D03*
X192532000Y-120523000D03*
X192532000Y-123063000D03*
X192532000Y-125603000D03*
X192532000Y-128143000D03*
X192532000Y-130683000D03*
X192532000Y-133223000D03*
X189992000Y-54483000D03*
X189992000Y-57023000D03*
X189992000Y-59563000D03*
X189992000Y-62103000D03*
X189992000Y-64643000D03*
X189992000Y-67183000D03*
X189992000Y-69723000D03*
X189992000Y-72263000D03*
X189992000Y-74803000D03*
X189992000Y-77343000D03*
X189992000Y-79883000D03*
X189992000Y-82423000D03*
X189992000Y-84963000D03*
X189992000Y-87503000D03*
X189992000Y-90043000D03*
X189992000Y-92583000D03*
X189992000Y-95123000D03*
X189992000Y-97663000D03*
X189992000Y-100203000D03*
X189992000Y-102743000D03*
X189992000Y-105283000D03*
X189992000Y-107823000D03*
X189992000Y-110363000D03*
X189992000Y-112903000D03*
X189992000Y-115443000D03*
X189992000Y-117983000D03*
X189992000Y-120523000D03*
X189992000Y-123063000D03*
X189992000Y-125603000D03*
X189992000Y-128143000D03*
X189992000Y-130683000D03*
X189992000Y-133223000D03*
%TD*%
D19*
%TO.C,Y1*%
X137922000Y-92553000D03*
X142822000Y-92553000D03*
%TD*%
D14*
%TO.C,U8*%
X97917000Y-110363000D03*
D15*
X97917000Y-112903000D03*
X97917000Y-115443000D03*
X97917000Y-117983000D03*
X97917000Y-120523000D03*
X97917000Y-123063000D03*
X97917000Y-125603000D03*
X97917000Y-128143000D03*
X97917000Y-130683000D03*
X97917000Y-133223000D03*
X105537000Y-133223000D03*
X105537000Y-130683000D03*
X105537000Y-128143000D03*
X105537000Y-125603000D03*
X105537000Y-123063000D03*
X105537000Y-120523000D03*
X105537000Y-117983000D03*
X105537000Y-115443000D03*
X105537000Y-112903000D03*
X105537000Y-110363000D03*
%TD*%
D20*
%TO.C,J2*%
X78232000Y-114173000D03*
D21*
X75692000Y-114173000D03*
X78232000Y-111633000D03*
X75692000Y-111633000D03*
X78232000Y-109093000D03*
X75692000Y-109093000D03*
X78232000Y-106553000D03*
X75692000Y-106553000D03*
X78232000Y-104013000D03*
X75692000Y-104013000D03*
X78232000Y-101473000D03*
X75692000Y-101473000D03*
X78232000Y-98933000D03*
X75692000Y-98933000D03*
X78232000Y-96393000D03*
X75692000Y-96393000D03*
X78232000Y-93853000D03*
X75692000Y-93853000D03*
X78232000Y-91313000D03*
X75692000Y-91313000D03*
X78232000Y-88773000D03*
X75692000Y-88773000D03*
X78232000Y-86233000D03*
X75692000Y-86233000D03*
X78232000Y-83693000D03*
X75692000Y-83693000D03*
X78232000Y-81153000D03*
X75692000Y-81153000D03*
X78232000Y-78613000D03*
X75692000Y-78613000D03*
X78232000Y-76073000D03*
X75692000Y-76073000D03*
X78232000Y-73533000D03*
X75692000Y-73533000D03*
%TD*%
D13*
%TO.C,C5*%
X157567000Y-72263000D03*
X152567000Y-72263000D03*
%TD*%
%TO.C,C12*%
X118237000Y-95123000D03*
X113237000Y-95123000D03*
%TD*%
D14*
%TO.C,U4*%
X149987000Y-77343000D03*
D15*
X149987000Y-79883000D03*
X149987000Y-82423000D03*
X149987000Y-84963000D03*
X149987000Y-87503000D03*
X149987000Y-90043000D03*
X149987000Y-92583000D03*
X157607000Y-92583000D03*
X157607000Y-90043000D03*
X157607000Y-87503000D03*
X157607000Y-84963000D03*
X157607000Y-82423000D03*
X157607000Y-79883000D03*
X157607000Y-77343000D03*
%TD*%
D14*
%TO.C,U10*%
X127762000Y-133223000D03*
D15*
X127762000Y-130683000D03*
X127762000Y-128143000D03*
X127762000Y-125603000D03*
X127762000Y-123063000D03*
X127762000Y-120523000D03*
X127762000Y-117983000D03*
X127762000Y-115443000D03*
X127762000Y-112903000D03*
X127762000Y-110363000D03*
X127762000Y-107823000D03*
X127762000Y-105283000D03*
X127762000Y-102743000D03*
X127762000Y-100203000D03*
X112522000Y-100203000D03*
X112522000Y-102743000D03*
X112522000Y-105283000D03*
X112522000Y-107823000D03*
X112522000Y-110363000D03*
X112522000Y-112903000D03*
X112522000Y-115443000D03*
X112522000Y-117983000D03*
X112522000Y-120523000D03*
X112522000Y-123063000D03*
X112522000Y-125603000D03*
X112522000Y-128143000D03*
X112522000Y-130683000D03*
X112522000Y-133223000D03*
%TD*%
D14*
%TO.C,C4*%
X157607000Y-64643000D03*
D13*
X152607000Y-64643000D03*
%TD*%
%TO.C,C14*%
X105457000Y-105283000D03*
X100457000Y-105283000D03*
%TD*%
D14*
%TO.C,RP1*%
X130302000Y-57023000D03*
D15*
X130302000Y-59563000D03*
X130302000Y-62103000D03*
X130302000Y-64643000D03*
X130302000Y-67183000D03*
X130302000Y-69723000D03*
X130302000Y-72263000D03*
X130302000Y-74803000D03*
%TD*%
D13*
%TO.C,C8*%
X138002000Y-86233000D03*
X143002000Y-86233000D03*
%TD*%
D14*
%TO.C,RP2*%
X92202000Y-79883000D03*
D15*
X92202000Y-82423000D03*
X92202000Y-84963000D03*
X92202000Y-87503000D03*
X92202000Y-90043000D03*
X92202000Y-92583000D03*
X92202000Y-95123000D03*
%TD*%
D13*
%TO.C,C2*%
X179832000Y-107823000D03*
X174832000Y-107823000D03*
%TD*%
%TO.C,C1*%
X177887000Y-83058000D03*
X172887000Y-83058000D03*
%TD*%
D14*
%TO.C,U7*%
X97917000Y-84958000D03*
D15*
X97917000Y-87498000D03*
X97917000Y-90038000D03*
X97917000Y-92578000D03*
X97917000Y-95118000D03*
X97917000Y-97658000D03*
X97917000Y-100198000D03*
X105537000Y-100198000D03*
X105537000Y-97658000D03*
X105537000Y-95118000D03*
X105537000Y-92578000D03*
X105537000Y-90038000D03*
X105537000Y-87498000D03*
X105537000Y-84958000D03*
%TD*%
D13*
%TO.C,C10*%
X142367000Y-109728000D03*
X137367000Y-109728000D03*
%TD*%
D22*
%TO.C,Q1*%
X167767000Y-87503000D03*
D23*
X167767000Y-84963000D03*
X167767000Y-82423000D03*
%TD*%
D13*
%TO.C,C9*%
X138002000Y-89408000D03*
X143002000Y-89408000D03*
%TD*%
D14*
%TO.C,U3*%
X113157000Y-74803000D03*
D15*
X113157000Y-77343000D03*
X113157000Y-79883000D03*
X113157000Y-82423000D03*
X113157000Y-84963000D03*
X113157000Y-87503000D03*
X113157000Y-90043000D03*
X120777000Y-90043000D03*
X120777000Y-87503000D03*
X120777000Y-84963000D03*
X120777000Y-82423000D03*
X120777000Y-79883000D03*
X120777000Y-77343000D03*
X120777000Y-74803000D03*
%TD*%
D13*
%TO.C,C11*%
X120737000Y-69723000D03*
X115737000Y-69723000D03*
%TD*%
%TO.C,C7*%
X143002000Y-62103000D03*
X138002000Y-62103000D03*
%TD*%
D14*
%TO.C,U11*%
X134747000Y-115443000D03*
D15*
X134747000Y-117983000D03*
X134747000Y-120523000D03*
X134747000Y-123063000D03*
X134747000Y-125603000D03*
X134747000Y-128143000D03*
X134747000Y-130683000D03*
X134747000Y-133223000D03*
X142367000Y-133223000D03*
X142367000Y-130683000D03*
X142367000Y-128143000D03*
X142367000Y-125603000D03*
X142367000Y-123063000D03*
X142367000Y-120523000D03*
X142367000Y-117983000D03*
X142367000Y-115443000D03*
%TD*%
D13*
%TO.C,C13*%
X105537000Y-79883000D03*
X100537000Y-79883000D03*
%TD*%
D14*
%TO.C,U2*%
X172212000Y-87503000D03*
D15*
X172212000Y-90043000D03*
X172212000Y-92583000D03*
X172212000Y-95123000D03*
X172212000Y-97663000D03*
X172212000Y-100203000D03*
X172212000Y-102743000D03*
X179832000Y-102743000D03*
X179832000Y-100203000D03*
X179832000Y-97663000D03*
X179832000Y-95123000D03*
X179832000Y-92583000D03*
X179832000Y-90043000D03*
X179832000Y-87503000D03*
%TD*%
D24*
X108077000Y-95123000D03*
X182372000Y-112903000D03*
X152527000Y-54483000D03*
X149987000Y-97663000D03*
X182372000Y-79883000D03*
X182372000Y-82423000D03*
X182372000Y-84963000D03*
X184912000Y-120523000D03*
X187452000Y-54483000D03*
X147447000Y-97663000D03*
D25*
X182372000Y-135763000D03*
D24*
X152527000Y-135763000D03*
X130302000Y-138303000D03*
X152527000Y-138303000D03*
D25*
X184912000Y-135763000D03*
D24*
X132842000Y-138303000D03*
D25*
X184912000Y-138303000D03*
D24*
X125222000Y-133223000D03*
X170307000Y-138303000D03*
D25*
X187452000Y-135763000D03*
D24*
X127762000Y-138303000D03*
D25*
X187452000Y-138303000D03*
D24*
X139827000Y-138303000D03*
X92837000Y-123063000D03*
X97282000Y-102743000D03*
X108077000Y-100203000D03*
X127762000Y-135763000D03*
X157607000Y-110363000D03*
X169672000Y-84963000D03*
X110617000Y-79883000D03*
D25*
X109982000Y-115443000D03*
X109982000Y-117983000D03*
X109982000Y-123063000D03*
X109982000Y-120523000D03*
X109982000Y-125603000D03*
D24*
X123698000Y-107823000D03*
X105537000Y-102743000D03*
X123698000Y-102743000D03*
X143002000Y-102743000D03*
G36*
X182314121Y-55138002D02*
G01*
X182360614Y-55191658D01*
X182372000Y-55244000D01*
X182372000Y-74042000D01*
X182351998Y-74110121D01*
X182298342Y-74156614D01*
X182246000Y-74168000D01*
X162813000Y-74168000D01*
X162744879Y-74147998D01*
X162698386Y-74094342D01*
X162687000Y-74042000D01*
X162687000Y-55244000D01*
X162707002Y-55175879D01*
X162760658Y-55129386D01*
X162813000Y-55118000D01*
X182246000Y-55118000D01*
X182314121Y-55138002D01*
G37*
D26*
X197612000Y-44958000D02*
X71882000Y-44958000D01*
X77724000Y-67691000D02*
G75*
G03*
X77724000Y-67691000I-1270000J0D01*
G01*
X77724000Y-120015000D02*
G75*
G03*
X77724000Y-120015000I-1270000J0D01*
G01*
X78867000Y-49403000D02*
G75*
G03*
X78867000Y-49403000I-1905000J0D01*
G01*
X120142000Y-138303000D02*
G75*
G03*
X120142000Y-138303000I-1905000J0D01*
G01*
X197612000Y-142748000D02*
X197612000Y-44958000D01*
X71882000Y-44958000D02*
X71882000Y-142748000D01*
X120142000Y-49403000D02*
G75*
G03*
X120142000Y-49403000I-1905000J0D01*
G01*
X71882000Y-142748000D02*
X197612000Y-142748000D01*
X78867000Y-138303000D02*
G75*
G03*
X78867000Y-138303000I-1905000J0D01*
G01*
M02*
