%TF.GenerationSoftware,KiCad,Pcbnew,7.0.2-6a45011f42~172~ubuntu22.04.1*%
%TF.CreationDate,2023-05-20T19:06:31+02:00*%
%TF.ProjectId,qdisk_v4,71646973-6b5f-4763-942e-6b696361645f,00*%
%TF.SameCoordinates,Original*%
%TF.FileFunction,Copper,L1,Top*%
%TF.FilePolarity,Positive*%
%FSLAX46Y46*%
G04 Gerber Fmt 4.6, Leading zero omitted, Abs format (unit mm)*
G04 Created by KiCad (PCBNEW 7.0.2-6a45011f42~172~ubuntu22.04.1) date 2023-05-20 19:06:31*
%MOMM*%
%LPD*%
G01*
G04 APERTURE LIST*
G04 Aperture macros list*
%AMRoundRect*
0 Rectangle with rounded corners*
0 $1 Rounding radius*
0 $2 $3 $4 $5 $6 $7 $8 $9 X,Y pos of 4 corners*
0 Add a 4 corners polygon primitive as box body*
4,1,4,$2,$3,$4,$5,$6,$7,$8,$9,$2,$3,0*
0 Add four circle primitives for the rounded corners*
1,1,$1+$1,$2,$3*
1,1,$1+$1,$4,$5*
1,1,$1+$1,$6,$7*
1,1,$1+$1,$8,$9*
0 Add four rect primitives between the rounded corners*
20,1,$1+$1,$2,$3,$4,$5,0*
20,1,$1+$1,$4,$5,$6,$7,0*
20,1,$1+$1,$6,$7,$8,$9,0*
20,1,$1+$1,$8,$9,$2,$3,0*%
G04 Aperture macros list end*
%TA.AperFunction,ComponentPad*%
%ADD10R,1.905000X2.000000*%
%TD*%
%TA.AperFunction,ComponentPad*%
%ADD11O,1.905000X2.000000*%
%TD*%
%TA.AperFunction,ComponentPad*%
%ADD12C,1.600000*%
%TD*%
%TA.AperFunction,ComponentPad*%
%ADD13R,1.600000X1.600000*%
%TD*%
%TA.AperFunction,ComponentPad*%
%ADD14O,1.600000X1.600000*%
%TD*%
%TA.AperFunction,ComponentPad*%
%ADD15RoundRect,0.249999X-0.525001X0.525001X-0.525001X-0.525001X0.525001X-0.525001X0.525001X0.525001X0*%
%TD*%
%TA.AperFunction,ComponentPad*%
%ADD16C,1.550000*%
%TD*%
%TA.AperFunction,ComponentPad*%
%ADD17C,1.500000*%
%TD*%
%TA.AperFunction,ComponentPad*%
%ADD18RoundRect,0.250000X0.600000X0.600000X-0.600000X0.600000X-0.600000X-0.600000X0.600000X-0.600000X0*%
%TD*%
%TA.AperFunction,ComponentPad*%
%ADD19C,1.700000*%
%TD*%
%TA.AperFunction,ComponentPad*%
%ADD20R,1.300000X1.050000*%
%TD*%
%TA.AperFunction,ComponentPad*%
%ADD21O,1.300000X1.050000*%
%TD*%
%TA.AperFunction,ViaPad*%
%ADD22C,1.200000*%
%TD*%
%TA.AperFunction,ViaPad*%
%ADD23C,1.000000*%
%TD*%
%TA.AperFunction,Conductor*%
%ADD24C,0.350000*%
%TD*%
%TA.AperFunction,Conductor*%
%ADD25C,1.270000*%
%TD*%
%TA.AperFunction,Conductor*%
%ADD26C,0.750000*%
%TD*%
%TA.AperFunction,Profile*%
%ADD27C,0.050000*%
%TD*%
G04 APERTURE END LIST*
D10*
%TO.P,U1,1,VI*%
%TO.N,+9V*%
X170307000Y-80223000D03*
D11*
%TO.P,U1,2,GND*%
%TO.N,GND*%
X172847000Y-80223000D03*
%TO.P,U1,3,VO*%
%TO.N,+5V*%
X175387000Y-80223000D03*
%TD*%
D12*
%TO.P,C6,1*%
%TO.N,+5V*%
X157607000Y-97663000D03*
%TO.P,C6,2*%
%TO.N,GND*%
X152607000Y-97663000D03*
%TD*%
%TO.P,C3,1*%
%TO.N,+9V*%
X157607000Y-57023000D03*
%TO.P,C3,2*%
%TO.N,GND*%
X152607000Y-57023000D03*
%TD*%
D13*
%TO.P,U9,1,VPP*%
%TO.N,+5V*%
X149987000Y-102743000D03*
D14*
%TO.P,U9,2,A12*%
%TO.N,/A12*%
X149987000Y-105283000D03*
%TO.P,U9,3,A7*%
%TO.N,/A11*%
X149987000Y-107823000D03*
%TO.P,U9,4,A6*%
%TO.N,/A4*%
X149987000Y-110363000D03*
%TO.P,U9,5,A5*%
%TO.N,/A2*%
X149987000Y-112903000D03*
%TO.P,U9,6,A4*%
%TO.N,/A0*%
X149987000Y-115443000D03*
%TO.P,U9,7,A3*%
%TO.N,/A1*%
X149987000Y-117983000D03*
%TO.P,U9,8,A2*%
%TO.N,/A3*%
X149987000Y-120523000D03*
%TO.P,U9,9,A1*%
%TO.N,/A9*%
X149987000Y-123063000D03*
%TO.P,U9,10,A0*%
%TO.N,/A8*%
X149987000Y-125603000D03*
%TO.P,U9,11,D0*%
%TO.N,/D0*%
X149987000Y-128143000D03*
%TO.P,U9,12,D1*%
%TO.N,/D1*%
X149987000Y-130683000D03*
%TO.P,U9,13,D2*%
%TO.N,/D2*%
X149987000Y-133223000D03*
%TO.P,U9,14,GND*%
%TO.N,GND*%
X149987000Y-135763000D03*
%TO.P,U9,15,D3*%
%TO.N,/D3*%
X165227000Y-135763000D03*
%TO.P,U9,16,D4*%
%TO.N,/D4*%
X165227000Y-133223000D03*
%TO.P,U9,17,D5*%
%TO.N,/D5*%
X165227000Y-130683000D03*
%TO.P,U9,18,D6*%
%TO.N,/D6*%
X165227000Y-128143000D03*
%TO.P,U9,19,D7*%
%TO.N,/D7*%
X165227000Y-125603000D03*
%TO.P,U9,20,~{CE}*%
%TO.N,/ROM_CE*%
X165227000Y-123063000D03*
%TO.P,U9,21,A10*%
%TO.N,/A10*%
X165227000Y-120523000D03*
%TO.P,U9,22,~{OE}*%
%TO.N,/ROM_OE*%
X165227000Y-117983000D03*
%TO.P,U9,23,A11*%
%TO.N,/A5*%
X165227000Y-115443000D03*
%TO.P,U9,24,A9*%
%TO.N,/A6*%
X165227000Y-112903000D03*
%TO.P,U9,25,A8*%
%TO.N,/A7*%
X165227000Y-110363000D03*
%TO.P,U9,26,A13*%
%TO.N,/A13*%
X165227000Y-107823000D03*
%TO.P,U9,27,~{PGM}*%
%TO.N,/RW*%
X165227000Y-105283000D03*
%TO.P,U9,28,VCC*%
%TO.N,+5V*%
X165227000Y-102743000D03*
%TD*%
D13*
%TO.P,U5,1,A->B*%
%TO.N,/RW*%
X172197000Y-112908000D03*
D14*
%TO.P,U5,2,A0*%
%TO.N,/D7*%
X172197000Y-115448000D03*
%TO.P,U5,3,A1*%
%TO.N,/D6*%
X172197000Y-117988000D03*
%TO.P,U5,4,A2*%
%TO.N,/D0*%
X172197000Y-120528000D03*
%TO.P,U5,5,A3*%
%TO.N,/D5*%
X172197000Y-123068000D03*
%TO.P,U5,6,A4*%
%TO.N,/D1*%
X172197000Y-125608000D03*
%TO.P,U5,7,A5*%
%TO.N,/D4*%
X172197000Y-128148000D03*
%TO.P,U5,8,A6*%
%TO.N,/D2*%
X172197000Y-130688000D03*
%TO.P,U5,9,A7*%
%TO.N,/D3*%
X172197000Y-133228000D03*
%TO.P,U5,10,GND*%
%TO.N,GND*%
X172197000Y-135768000D03*
%TO.P,U5,11,B7*%
%TO.N,/Dc3*%
X179817000Y-135768000D03*
%TO.P,U5,12,B6*%
%TO.N,/Dc2*%
X179817000Y-133228000D03*
%TO.P,U5,13,B5*%
%TO.N,/Dc4*%
X179817000Y-130688000D03*
%TO.P,U5,14,B4*%
%TO.N,/Dc1*%
X179817000Y-128148000D03*
%TO.P,U5,15,B3*%
%TO.N,/Dc5*%
X179817000Y-125608000D03*
%TO.P,U5,16,B2*%
%TO.N,/Dc0*%
X179817000Y-123068000D03*
%TO.P,U5,17,B1*%
%TO.N,/Dc6*%
X179817000Y-120528000D03*
%TO.P,U5,18,B0*%
%TO.N,/Dc7*%
X179817000Y-117988000D03*
%TO.P,U5,19,CE*%
%TO.N,/ROM_CE*%
X179817000Y-115448000D03*
%TO.P,U5,20,VCC*%
%TO.N,+5V*%
X179817000Y-112908000D03*
%TD*%
D13*
%TO.P,U6,1*%
%TO.N,Net-(RP1-R3.1)*%
X135382000Y-67183000D03*
D14*
%TO.P,U6,2*%
%TO.N,Net-(RP1-R3.2)*%
X135382000Y-69723000D03*
%TO.P,U6,3*%
%TO.N,Net-(RP1-R4.1)*%
X135382000Y-72263000D03*
%TO.P,U6,4*%
%TO.N,Net-(RP1-R4.2)*%
X135382000Y-74803000D03*
%TO.P,U6,5*%
X135382000Y-77343000D03*
%TO.P,U6,6*%
%TO.N,/CLK*%
X135382000Y-79883000D03*
%TO.P,U6,7,GND*%
%TO.N,GND*%
X135382000Y-82423000D03*
%TO.P,U6,8*%
%TO.N,/notDS*%
X143002000Y-82423000D03*
%TO.P,U6,9*%
%TO.N,/DS*%
X143002000Y-79883000D03*
%TO.P,U6,10*%
%TO.N,Net-(U6-Pad10)*%
X143002000Y-77343000D03*
%TO.P,U6,11*%
%TO.N,Net-(U4-Pad4)*%
X143002000Y-74803000D03*
%TO.P,U6,12*%
%TO.N,/ROM_CE*%
X143002000Y-72263000D03*
%TO.P,U6,13*%
%TO.N,/interface_Sel*%
X143002000Y-69723000D03*
%TO.P,U6,14,VCC*%
%TO.N,+5V*%
X143002000Y-67183000D03*
%TD*%
D15*
%TO.P,J1,a1,Vin*%
%TO.N,+9V*%
X192532000Y-54483000D03*
D16*
%TO.P,J1,a2,-12V*%
%TO.N,unconnected-(J1--12V-Pada2)*%
X192532000Y-57023000D03*
%TO.P,J1,a3,+12V*%
%TO.N,unconnected-(J1-+12V-Pada3)*%
X192532000Y-59563000D03*
%TO.P,J1,a4,SP0*%
%TO.N,/SP0*%
X192532000Y-62103000D03*
%TO.P,J1,a5,SP1*%
%TO.N,/SP1*%
X192532000Y-64643000D03*
%TO.P,J1,a6,~{DSMC}*%
%TO.N,/DSMC*%
X192532000Y-67183000D03*
%TO.P,J1,a7,SP2*%
%TO.N,/SP2*%
X192532000Y-69723000D03*
%TO.P,J1,a8,~{DBG}*%
%TO.N,unconnected-(J1-~{DBG}-Pada8)*%
X192532000Y-72263000D03*
%TO.P,J1,a9,A3*%
%TO.N,/A3*%
X192532000Y-74803000D03*
%TO.P,J1,a10,A4*%
%TO.N,/A4*%
X192532000Y-77343000D03*
%TO.P,J1,a11,A5*%
%TO.N,/A5*%
X192532000Y-79883000D03*
%TO.P,J1,a12,A6*%
%TO.N,/A6*%
X192532000Y-82423000D03*
%TO.P,J1,a13,A7*%
%TO.N,/A7*%
X192532000Y-84963000D03*
%TO.P,J1,a14,A8*%
%TO.N,/A8*%
X192532000Y-87503000D03*
%TO.P,J1,a15,A9*%
%TO.N,/A9*%
X192532000Y-90043000D03*
%TO.P,J1,a16,A10*%
%TO.N,/A10*%
X192532000Y-92583000D03*
%TO.P,J1,a17,A11*%
%TO.N,/A11*%
X192532000Y-95123000D03*
%TO.P,J1,a18,A12*%
%TO.N,/A12*%
X192532000Y-97663000D03*
%TO.P,J1,a19,A13*%
%TO.N,/A13*%
X192532000Y-100203000D03*
%TO.P,J1,a20,A14*%
%TO.N,/A14*%
X192532000Y-102743000D03*
%TO.P,J1,a21,RED*%
%TO.N,unconnected-(J1-RED-Pada21)*%
X192532000Y-105283000D03*
%TO.P,J1,a22,CLKCPU*%
%TO.N,unconnected-(J1-CLKCPU-Pada22)*%
X192532000Y-107823000D03*
%TO.P,J1,a23,A16*%
%TO.N,/A16*%
X192532000Y-110363000D03*
%TO.P,J1,a24,A17*%
%TO.N,/A17*%
X192532000Y-112903000D03*
%TO.P,J1,a25,A18*%
%TO.N,/A18*%
X192532000Y-115443000D03*
%TO.P,J1,a26,A19*%
%TO.N,/A19*%
X192532000Y-117983000D03*
%TO.P,J1,a27,D7*%
%TO.N,/Dc7*%
X192532000Y-120523000D03*
%TO.P,J1,a28,D6*%
%TO.N,/Dc6*%
X192532000Y-123063000D03*
%TO.P,J1,a29,D5*%
%TO.N,/Dc5*%
X192532000Y-125603000D03*
%TO.P,J1,a30,D4*%
%TO.N,/Dc4*%
X192532000Y-128143000D03*
%TO.P,J1,a31,D3*%
%TO.N,/Dc3*%
X192532000Y-130683000D03*
%TO.P,J1,a32,GND*%
%TO.N,GND*%
X192532000Y-133223000D03*
%TO.P,J1,b1,Vin*%
%TO.N,+9V*%
X189992000Y-54483000D03*
%TO.P,J1,b2,Vin*%
X189992000Y-57023000D03*
%TO.P,J1,b3,~{EXTINT}*%
%TO.N,unconnected-(J1-~{EXTINT}-Padb3)*%
X189992000Y-59563000D03*
%TO.P,J1,b4,~{IPL1}*%
%TO.N,unconnected-(J1-~{IPL1}-Padb4)*%
X189992000Y-62103000D03*
%TO.P,J1,b5,~{BERR}*%
%TO.N,unconnected-(J1-~{BERR}-Padb5)*%
X189992000Y-64643000D03*
%TO.P,J1,b6,~{IPLO}*%
%TO.N,unconnected-(J1-~{IPLO}-Padb6)*%
X189992000Y-67183000D03*
%TO.P,J1,b7,SP3*%
%TO.N,/SP3*%
X189992000Y-69723000D03*
%TO.P,J1,b8,A2*%
%TO.N,/A2*%
X189992000Y-72263000D03*
%TO.P,J1,b9,G9*%
%TO.N,/A1*%
X189992000Y-74803000D03*
%TO.P,J1,b10,ROMOEH*%
%TO.N,unconnected-(J1-ROMOEH-Padb10)*%
X189992000Y-77343000D03*
%TO.P,J1,b11,A0*%
%TO.N,/A0*%
X189992000Y-79883000D03*
%TO.P,J1,b12,FC0*%
%TO.N,unconnected-(J1-FC0-Padb12)*%
X189992000Y-82423000D03*
%TO.P,J1,b13,FC1*%
%TO.N,unconnected-(J1-FC1-Padb13)*%
X189992000Y-84963000D03*
%TO.P,J1,b14,FC2*%
%TO.N,unconnected-(J1-FC2-Padb14)*%
X189992000Y-87503000D03*
%TO.P,J1,b15,BLUE*%
%TO.N,unconnected-(J1-BLUE-Padb15)*%
X189992000Y-90043000D03*
%TO.P,J1,b16,GREEN*%
%TO.N,unconnected-(J1-GREEN-Padb16)*%
X189992000Y-92583000D03*
%TO.P,J1,b17,~{VPA}*%
%TO.N,unconnected-(J1-~{VPA}-Padb17)*%
X189992000Y-95123000D03*
%TO.P,J1,b18,VSYNCH*%
%TO.N,unconnected-(J1-VSYNCH-Padb18)*%
X189992000Y-97663000D03*
%TO.P,J1,b19,E*%
%TO.N,unconnected-(J1-E-Padb19)*%
X189992000Y-100203000D03*
%TO.P,J1,b20,~{CSYNC}*%
%TO.N,unconnected-(J1-~{CSYNC}-Padb20)*%
X189992000Y-102743000D03*
%TO.P,J1,b21,~{RESETCPU}*%
%TO.N,/RESET*%
X189992000Y-105283000D03*
%TO.P,J1,b22,A15*%
%TO.N,/A15*%
X189992000Y-107823000D03*
%TO.P,J1,b23,~{BR}*%
%TO.N,unconnected-(J1-~{BR}-Padb23)*%
X189992000Y-110363000D03*
%TO.P,J1,b24,~{BG}*%
%TO.N,unconnected-(J1-~{BG}-Padb24)*%
X189992000Y-112903000D03*
%TO.P,J1,b25,~{DTACK}*%
%TO.N,/DTACKL*%
X189992000Y-115443000D03*
%TO.P,J1,b26,~{DRW}*%
%TO.N,/RW*%
X189992000Y-117983000D03*
%TO.P,J1,b27,~{DS}*%
%TO.N,/DS*%
X189992000Y-120523000D03*
%TO.P,J1,b28,~{AS}*%
%TO.N,unconnected-(J1-~{AS}-Padb28)*%
X189992000Y-123063000D03*
%TO.P,J1,b29,D0*%
%TO.N,/Dc0*%
X189992000Y-125603000D03*
%TO.P,J1,b30,D1*%
%TO.N,/Dc1*%
X189992000Y-128143000D03*
%TO.P,J1,b31,D2*%
%TO.N,/Dc2*%
X189992000Y-130683000D03*
%TO.P,J1,b32,GND*%
%TO.N,GND*%
X189992000Y-133223000D03*
%TD*%
D17*
%TO.P,Y1,1,1*%
%TO.N,Net-(RP1-R4.1)*%
X137922000Y-92553000D03*
%TO.P,Y1,2,2*%
%TO.N,Net-(RP1-R3.2)*%
X142822000Y-92553000D03*
%TD*%
D13*
%TO.P,U8,1,OEa*%
%TO.N,GND*%
X97917000Y-110363000D03*
D14*
%TO.P,U8,2,I0a*%
%TO.N,/FDC_STEP*%
X97917000Y-112903000D03*
%TO.P,U8,3,O3b*%
%TO.N,/HEAD*%
X97917000Y-115443000D03*
%TO.P,U8,4,I1a*%
%TO.N,/FDC_DIR*%
X97917000Y-117983000D03*
%TO.P,U8,5,O2b*%
%TO.N,/GATE_WR*%
X97917000Y-120523000D03*
%TO.P,U8,6,I2a*%
%TO.N,/FDC_WD*%
X97917000Y-123063000D03*
%TO.P,U8,7,O1b*%
%TO.N,/MOTOR_ON*%
X97917000Y-125603000D03*
%TO.P,U8,8,I3a*%
%TO.N,/iDS_0*%
X97917000Y-128143000D03*
%TO.P,U8,9,O0b*%
%TO.N,/DS1*%
X97917000Y-130683000D03*
%TO.P,U8,10,GND*%
%TO.N,GND*%
X97917000Y-133223000D03*
%TO.P,U8,11,I0b*%
%TO.N,/iDS_1*%
X105537000Y-133223000D03*
%TO.P,U8,12,O3a*%
%TO.N,/DS0*%
X105537000Y-130683000D03*
%TO.P,U8,13,I1b*%
%TO.N,/iMOT*%
X105537000Y-128143000D03*
%TO.P,U8,14,O2a*%
%TO.N,/DATA_WR*%
X105537000Y-125603000D03*
%TO.P,U8,15,I2b*%
%TO.N,/FDC_WG*%
X105537000Y-123063000D03*
%TO.P,U8,16,O1a*%
%TO.N,/DIR*%
X105537000Y-120523000D03*
%TO.P,U8,17,I3b*%
%TO.N,/iHD*%
X105537000Y-117983000D03*
%TO.P,U8,18,O0a*%
%TO.N,/STEP*%
X105537000Y-115443000D03*
%TO.P,U8,19,OEb*%
%TO.N,GND*%
X105537000Y-112903000D03*
%TO.P,U8,20,VCC*%
%TO.N,+5V*%
X105537000Y-110363000D03*
%TD*%
D18*
%TO.P,J2,1,Pin_1*%
%TO.N,GND*%
X78232000Y-114173000D03*
D19*
%TO.P,J2,2,Pin_2*%
%TO.N,unconnected-(J2-Pin_2-Pad2)*%
X75692000Y-114173000D03*
%TO.P,J2,3,Pin_3*%
%TO.N,GND*%
X78232000Y-111633000D03*
%TO.P,J2,4,Pin_4*%
%TO.N,unconnected-(J2-Pin_4-Pad4)*%
X75692000Y-111633000D03*
%TO.P,J2,5,Pin_5*%
%TO.N,GND*%
X78232000Y-109093000D03*
%TO.P,J2,6,Pin_6*%
%TO.N,unconnected-(J2-Pin_6-Pad6)*%
X75692000Y-109093000D03*
%TO.P,J2,7,Pin_7*%
%TO.N,GND*%
X78232000Y-106553000D03*
%TO.P,J2,8,Pin_8*%
%TO.N,/FDC_IP*%
X75692000Y-106553000D03*
%TO.P,J2,9,Pin_9*%
%TO.N,GND*%
X78232000Y-104013000D03*
%TO.P,J2,10,Pin_10*%
%TO.N,/DS0*%
X75692000Y-104013000D03*
%TO.P,J2,11,Pin_11*%
%TO.N,GND*%
X78232000Y-101473000D03*
%TO.P,J2,12,Pin_12*%
%TO.N,/DS1*%
X75692000Y-101473000D03*
%TO.P,J2,13,Pin_13*%
%TO.N,GND*%
X78232000Y-98933000D03*
%TO.P,J2,14,Pin_14*%
%TO.N,/DS2*%
X75692000Y-98933000D03*
%TO.P,J2,15,Pin_15*%
%TO.N,GND*%
X78232000Y-96393000D03*
%TO.P,J2,16,Pin_16*%
%TO.N,/MOTOR_ON*%
X75692000Y-96393000D03*
%TO.P,J2,17,Pin_17*%
%TO.N,GND*%
X78232000Y-93853000D03*
%TO.P,J2,18,Pin_18*%
%TO.N,/DIR*%
X75692000Y-93853000D03*
%TO.P,J2,19,Pin_19*%
%TO.N,GND*%
X78232000Y-91313000D03*
%TO.P,J2,20,Pin_20*%
%TO.N,/STEP*%
X75692000Y-91313000D03*
%TO.P,J2,21,Pin_21*%
%TO.N,GND*%
X78232000Y-88773000D03*
%TO.P,J2,22,Pin_22*%
%TO.N,/DATA_WR*%
X75692000Y-88773000D03*
%TO.P,J2,23,Pin_23*%
%TO.N,GND*%
X78232000Y-86233000D03*
%TO.P,J2,24,Pin_24*%
%TO.N,/GATE_WR*%
X75692000Y-86233000D03*
%TO.P,J2,25,Pin_25*%
%TO.N,GND*%
X78232000Y-83693000D03*
%TO.P,J2,26,Pin_26*%
%TO.N,/FDC_T0*%
X75692000Y-83693000D03*
%TO.P,J2,27,Pin_27*%
%TO.N,GND*%
X78232000Y-81153000D03*
%TO.P,J2,28,Pin_28*%
%TO.N,/FDC_WRP*%
X75692000Y-81153000D03*
%TO.P,J2,29,Pin_29*%
%TO.N,GND*%
X78232000Y-78613000D03*
%TO.P,J2,30,Pin_30*%
%TO.N,/DATA_RD*%
X75692000Y-78613000D03*
%TO.P,J2,31,Pin_31*%
%TO.N,GND*%
X78232000Y-76073000D03*
%TO.P,J2,32,Pin_32*%
%TO.N,/HEAD*%
X75692000Y-76073000D03*
%TO.P,J2,33,Pin_33*%
%TO.N,GND*%
X78232000Y-73533000D03*
%TO.P,J2,34,Pin_34*%
%TO.N,unconnected-(J2-Pin_34-Pad34)*%
X75692000Y-73533000D03*
%TD*%
D12*
%TO.P,C5,1*%
%TO.N,+5V*%
X157567000Y-72263000D03*
%TO.P,C5,2*%
%TO.N,GND*%
X152567000Y-72263000D03*
%TD*%
%TO.P,C12,1*%
%TO.N,+5V*%
X118237000Y-95123000D03*
%TO.P,C12,2*%
%TO.N,GND*%
X113237000Y-95123000D03*
%TD*%
D13*
%TO.P,U4,1*%
%TO.N,/A18*%
X149987000Y-77343000D03*
D14*
%TO.P,U4,2*%
%TO.N,/A19*%
X149987000Y-79883000D03*
%TO.P,U4,3*%
%TO.N,/interface_Sel*%
X149987000Y-82423000D03*
%TO.P,U4,4*%
%TO.N,Net-(U4-Pad4)*%
X149987000Y-84963000D03*
%TO.P,U4,5*%
%TO.N,/notDS*%
X149987000Y-87503000D03*
%TO.P,U4,6*%
%TO.N,/NOSE_6*%
X149987000Y-90043000D03*
%TO.P,U4,7,GND*%
%TO.N,GND*%
X149987000Y-92583000D03*
%TO.P,U4,8*%
%TO.N,Net-(U4-Pad4)*%
X157607000Y-92583000D03*
%TO.P,U4,9*%
%TO.N,/A13*%
X157607000Y-90043000D03*
%TO.P,U4,10*%
%TO.N,/A12*%
X157607000Y-87503000D03*
%TO.P,U4,11*%
%TO.N,/A11*%
X157607000Y-84963000D03*
%TO.P,U4,12*%
%TO.N,/interface_Sel*%
X157607000Y-82423000D03*
%TO.P,U4,13*%
%TO.N,/XOR_PULLUP*%
X157607000Y-79883000D03*
%TO.P,U4,14,VCC*%
%TO.N,+5V*%
X157607000Y-77343000D03*
%TD*%
D13*
%TO.P,U10,1,~{CS}*%
%TO.N,/FDCON_CS*%
X127762000Y-133223000D03*
D14*
%TO.P,U10,2,R/~{W}*%
%TO.N,/RW*%
X127762000Y-130683000D03*
%TO.P,U10,3,A0*%
%TO.N,/A1*%
X127762000Y-128143000D03*
%TO.P,U10,4,A1*%
%TO.N,/A0*%
X127762000Y-125603000D03*
%TO.P,U10,5,DI0*%
%TO.N,/D0*%
X127762000Y-123063000D03*
%TO.P,U10,6,DI1*%
%TO.N,/D1*%
X127762000Y-120523000D03*
%TO.P,U10,7,DI2*%
%TO.N,/D2*%
X127762000Y-117983000D03*
%TO.P,U10,8,DI3*%
%TO.N,/D3*%
X127762000Y-115443000D03*
%TO.P,U10,9,DI4*%
%TO.N,/D4*%
X127762000Y-112903000D03*
%TO.P,U10,10,DI5*%
%TO.N,/D5*%
X127762000Y-110363000D03*
%TO.P,U10,11,DI6*%
%TO.N,/D6*%
X127762000Y-107823000D03*
%TO.P,U10,12,DI7*%
%TO.N,/D7*%
X127762000Y-105283000D03*
%TO.P,U10,13,~{MR}*%
%TO.N,/RESET*%
X127762000Y-102743000D03*
%TO.P,U10,14,GND*%
%TO.N,GND*%
X127762000Y-100203000D03*
%TO.P,U10,15,VCC*%
%TO.N,+5V*%
X112522000Y-100203000D03*
%TO.P,U10,16,STEP*%
%TO.N,/FDC_STEP*%
X112522000Y-102743000D03*
%TO.P,U10,17,DIRC*%
%TO.N,/FDC_DIR*%
X112522000Y-105283000D03*
%TO.P,U10,18,CLK*%
%TO.N,/CLK*%
X112522000Y-107823000D03*
%TO.P,U10,19,~{RD}*%
%TO.N,/DATA_RD*%
X112522000Y-110363000D03*
%TO.P,U10,20,MOTOR*%
%TO.N,unconnected-(U10-MOTOR-Pad20)*%
X112522000Y-112903000D03*
%TO.P,U10,21,WG*%
%TO.N,/FDC_WG*%
X112522000Y-115443000D03*
%TO.P,U10,22,WD*%
%TO.N,/FDC_WD*%
X112522000Y-117983000D03*
%TO.P,U10,23,~{TR00}*%
%TO.N,/FDC_T0*%
X112522000Y-120523000D03*
%TO.P,U10,24,~{IP}*%
%TO.N,/FDC_IP*%
X112522000Y-123063000D03*
%TO.P,U10,25,~{WPRT}*%
%TO.N,/FDC_WRP*%
X112522000Y-125603000D03*
%TO.P,U10,26,~{DDEN}*%
%TO.N,/FDCON_DEN*%
X112522000Y-128143000D03*
%TO.P,U10,27,DRQ*%
%TO.N,unconnected-(U10-DRQ-Pad27)*%
X112522000Y-130683000D03*
%TO.P,U10,28,INTRQ*%
%TO.N,unconnected-(U10-INTRQ-Pad28)*%
X112522000Y-133223000D03*
%TD*%
D13*
%TO.P,C4,1*%
%TO.N,+5V*%
X157607000Y-64643000D03*
D12*
%TO.P,C4,2*%
%TO.N,GND*%
X152607000Y-64643000D03*
%TD*%
%TO.P,C14,1*%
%TO.N,+5V*%
X105457000Y-105283000D03*
%TO.P,C14,2*%
%TO.N,GND*%
X100457000Y-105283000D03*
%TD*%
D13*
%TO.P,RP1,1,R1.1*%
%TO.N,+5V*%
X130302000Y-57023000D03*
D14*
%TO.P,RP1,2,R1.2*%
%TO.N,/interface_Sel*%
X130302000Y-59563000D03*
%TO.P,RP1,3,R2.1*%
%TO.N,+5V*%
X130302000Y-62103000D03*
%TO.P,RP1,4,R2.2*%
%TO.N,/interface_Sel*%
X130302000Y-64643000D03*
%TO.P,RP1,5,R3.1*%
%TO.N,Net-(RP1-R3.1)*%
X130302000Y-67183000D03*
%TO.P,RP1,6,R3.2*%
%TO.N,Net-(RP1-R3.2)*%
X130302000Y-69723000D03*
%TO.P,RP1,7,R4.1*%
%TO.N,Net-(RP1-R4.1)*%
X130302000Y-72263000D03*
%TO.P,RP1,8,R4.2*%
%TO.N,Net-(RP1-R4.2)*%
X130302000Y-74803000D03*
%TD*%
D12*
%TO.P,C8,1*%
%TO.N,Net-(RP1-R4.2)*%
X138002000Y-86233000D03*
%TO.P,C8,2*%
%TO.N,GND*%
X143002000Y-86233000D03*
%TD*%
D13*
%TO.P,RP2,1,common*%
%TO.N,+5V*%
X92202000Y-79883000D03*
D14*
%TO.P,RP2,2,R1*%
%TO.N,/XOR_PULLUP*%
X92202000Y-82423000D03*
%TO.P,RP2,3,R2*%
%TO.N,/NOSE_7*%
X92202000Y-84963000D03*
%TO.P,RP2,4,R3*%
%TO.N,/DATA_RD*%
X92202000Y-87503000D03*
%TO.P,RP2,5,R4*%
%TO.N,/FDC_WRP*%
X92202000Y-90043000D03*
%TO.P,RP2,6,R5*%
%TO.N,/FDC_T0*%
X92202000Y-92583000D03*
%TO.P,RP2,7,R6*%
%TO.N,/FDC_IP*%
X92202000Y-95123000D03*
%TD*%
D12*
%TO.P,C2,1*%
%TO.N,+5V*%
X179832000Y-107823000D03*
%TO.P,C2,2*%
%TO.N,GND*%
X174832000Y-107823000D03*
%TD*%
%TO.P,C1,1*%
%TO.N,+5V*%
X177887000Y-83058000D03*
%TO.P,C1,2*%
%TO.N,GND*%
X172887000Y-83058000D03*
%TD*%
D13*
%TO.P,U7,1*%
%TO.N,/NOSE_6*%
X97917000Y-84958000D03*
D14*
%TO.P,U7,2*%
%TO.N,/NOSE_7*%
X97917000Y-87498000D03*
%TO.P,U7,3*%
%TO.N,/FDCON_CS*%
X97917000Y-90038000D03*
%TO.P,U7,4*%
%TO.N,/NOSE_6*%
X97917000Y-92578000D03*
%TO.P,U7,5*%
%TO.N,/A3*%
X97917000Y-95118000D03*
%TO.P,U7,6*%
%TO.N,Net-(U7-Pad10)*%
X97917000Y-97658000D03*
%TO.P,U7,7,GND*%
%TO.N,GND*%
X97917000Y-100198000D03*
%TO.P,U7,8*%
%TO.N,/FDSET_CS*%
X105537000Y-100198000D03*
%TO.P,U7,9*%
%TO.N,Net-(U7-Pad10)*%
X105537000Y-97658000D03*
%TO.P,U7,10*%
X105537000Y-95118000D03*
%TO.P,U7,11*%
%TO.N,/ROM_OE*%
X105537000Y-92578000D03*
%TO.P,U7,12*%
%TO.N,Net-(U6-Pad10)*%
X105537000Y-90038000D03*
%TO.P,U7,13*%
%TO.N,/interface_Sel*%
X105537000Y-87498000D03*
%TO.P,U7,14,VCC*%
%TO.N,+5V*%
X105537000Y-84958000D03*
%TD*%
D12*
%TO.P,C10,1*%
%TO.N,+5V*%
X142367000Y-109728000D03*
%TO.P,C10,2*%
%TO.N,GND*%
X137367000Y-109728000D03*
%TD*%
D20*
%TO.P,Q1,1,E*%
%TO.N,/DSMC*%
X167767000Y-87503000D03*
D21*
%TO.P,Q1,2,B*%
%TO.N,/interface_Sel*%
X167767000Y-84963000D03*
%TO.P,Q1,3,C*%
%TO.N,+5V*%
X167767000Y-82423000D03*
%TD*%
D12*
%TO.P,C9,1*%
%TO.N,Net-(RP1-R4.2)*%
X138002000Y-89408000D03*
%TO.P,C9,2*%
%TO.N,Net-(RP1-R3.1)*%
X143002000Y-89408000D03*
%TD*%
D13*
%TO.P,U3,1*%
%TO.N,+5V*%
X113157000Y-74803000D03*
D14*
%TO.P,U3,2*%
X113157000Y-77343000D03*
%TO.P,U3,3*%
%TO.N,unconnected-(U3-Pad3)*%
X113157000Y-79883000D03*
%TO.P,U3,4*%
%TO.N,/A3*%
X113157000Y-82423000D03*
%TO.P,U3,5*%
X113157000Y-84963000D03*
%TO.P,U3,6*%
%TO.N,/NOSE_7*%
X113157000Y-87503000D03*
%TO.P,U3,7,GND*%
%TO.N,GND*%
X113157000Y-90043000D03*
%TO.P,U3,8*%
%TO.N,unconnected-(U3-Pad8)*%
X120777000Y-90043000D03*
%TO.P,U3,9*%
%TO.N,+5V*%
X120777000Y-87503000D03*
%TO.P,U3,10*%
X120777000Y-84963000D03*
%TO.P,U3,11*%
%TO.N,/DTACKL*%
X120777000Y-82423000D03*
%TO.P,U3,12*%
%TO.N,/notDS*%
X120777000Y-79883000D03*
%TO.P,U3,13*%
%TO.N,/interface_Sel*%
X120777000Y-77343000D03*
%TO.P,U3,14,VCC*%
%TO.N,+5V*%
X120777000Y-74803000D03*
%TD*%
D12*
%TO.P,C11,1*%
%TO.N,+5V*%
X120737000Y-69723000D03*
%TO.P,C11,2*%
%TO.N,GND*%
X115737000Y-69723000D03*
%TD*%
%TO.P,C7,1*%
%TO.N,+5V*%
X143002000Y-62103000D03*
%TO.P,C7,2*%
%TO.N,GND*%
X138002000Y-62103000D03*
%TD*%
D13*
%TO.P,U11,1,~{Mr}*%
%TO.N,/RESET*%
X134747000Y-115443000D03*
D14*
%TO.P,U11,2,Q0*%
%TO.N,unconnected-(U11-Q0-Pad2)*%
X134747000Y-117983000D03*
%TO.P,U11,3,D0*%
%TO.N,/D5*%
X134747000Y-120523000D03*
%TO.P,U11,4,D1*%
%TO.N,/D4*%
X134747000Y-123063000D03*
%TO.P,U11,5,Q1*%
%TO.N,/iMOT*%
X134747000Y-125603000D03*
%TO.P,U11,6,D2*%
%TO.N,/D3*%
X134747000Y-128143000D03*
%TO.P,U11,7,Q2*%
%TO.N,/FDCON_DEN*%
X134747000Y-130683000D03*
%TO.P,U11,8,GND*%
%TO.N,GND*%
X134747000Y-133223000D03*
%TO.P,U11,9,Cp*%
%TO.N,/FDSET_CS*%
X142367000Y-133223000D03*
%TO.P,U11,10,Q3*%
%TO.N,/iDS_1*%
X142367000Y-130683000D03*
%TO.P,U11,11,D3*%
%TO.N,/D2*%
X142367000Y-128143000D03*
%TO.P,U11,12,Q4*%
%TO.N,/iDS_0*%
X142367000Y-125603000D03*
%TO.P,U11,13,D4*%
%TO.N,/D1*%
X142367000Y-123063000D03*
%TO.P,U11,14,D5*%
%TO.N,/D0*%
X142367000Y-120523000D03*
%TO.P,U11,15,Q5*%
%TO.N,/iHD*%
X142367000Y-117983000D03*
%TO.P,U11,16,VCC*%
%TO.N,+5V*%
X142367000Y-115443000D03*
%TD*%
D12*
%TO.P,C13,1*%
%TO.N,+5V*%
X105537000Y-79883000D03*
%TO.P,C13,2*%
%TO.N,GND*%
X100537000Y-79883000D03*
%TD*%
D13*
%TO.P,U2,1*%
%TO.N,/SP0*%
X172212000Y-87503000D03*
D14*
%TO.P,U2,2*%
%TO.N,/A14*%
X172212000Y-90043000D03*
%TO.P,U2,3*%
%TO.N,/XOR_PULLUP*%
X172212000Y-92583000D03*
%TO.P,U2,4*%
X172212000Y-95123000D03*
%TO.P,U2,5*%
%TO.N,/SP3*%
X172212000Y-97663000D03*
%TO.P,U2,6*%
%TO.N,/A17*%
X172212000Y-100203000D03*
%TO.P,U2,7,GND*%
%TO.N,GND*%
X172212000Y-102743000D03*
%TO.P,U2,8*%
%TO.N,/A16*%
X179832000Y-102743000D03*
%TO.P,U2,9*%
%TO.N,/SP2*%
X179832000Y-100203000D03*
%TO.P,U2,10*%
%TO.N,/XOR_PULLUP*%
X179832000Y-97663000D03*
%TO.P,U2,11*%
X179832000Y-95123000D03*
%TO.P,U2,12*%
%TO.N,/A15*%
X179832000Y-92583000D03*
%TO.P,U2,13*%
%TO.N,/SP1*%
X179832000Y-90043000D03*
%TO.P,U2,14,VCC*%
%TO.N,+5V*%
X179832000Y-87503000D03*
%TD*%
D22*
%TO.N,/A3*%
X108077000Y-95123000D03*
X182372000Y-112903000D03*
%TO.N,/A4*%
X152527000Y-54483000D03*
X149987000Y-97663000D03*
%TO.N,/A5*%
X182372000Y-79883000D03*
%TO.N,/A6*%
X182372000Y-82423000D03*
%TO.N,/A7*%
X182372000Y-84963000D03*
%TO.N,/A8*%
X184912000Y-120523000D03*
%TO.N,/A2*%
X187452000Y-54483000D03*
X147447000Y-97663000D03*
D23*
%TO.N,/A1*%
X182372000Y-135763000D03*
D22*
X152527000Y-135763000D03*
X130302000Y-138303000D03*
%TO.N,/A0*%
X152527000Y-138303000D03*
D23*
X184912000Y-135763000D03*
D22*
X132842000Y-138303000D03*
D23*
%TO.N,/RESET*%
X184912000Y-138303000D03*
D22*
X125222000Y-133223000D03*
%TO.N,/RW*%
X170307000Y-138303000D03*
D23*
X187452000Y-135763000D03*
D22*
X127762000Y-138303000D03*
D23*
%TO.N,/DS*%
X187452000Y-138303000D03*
D22*
X139827000Y-138303000D03*
%TO.N,/DATA_WR*%
X92837000Y-123063000D03*
%TO.N,/HEAD*%
X97282000Y-102743000D03*
%TO.N,/FDCON_CS*%
X108077000Y-100203000D03*
%TO.N,/FDSET_CS*%
X127762000Y-135763000D03*
%TO.N,/ROM_CE*%
X157607000Y-110363000D03*
%TO.N,/XOR_PULLUP*%
X169672000Y-84963000D03*
%TO.N,Net-(U6-Pad10)*%
X110617000Y-79883000D03*
D23*
%TO.N,/FDC_STEP*%
X109982000Y-115443000D03*
%TO.N,/FDC_DIR*%
X109982000Y-117983000D03*
%TO.N,/FDC_WD*%
X109982000Y-123063000D03*
%TO.N,/FDC_WG*%
X109982000Y-120523000D03*
%TO.N,/iMOT*%
X109982000Y-125603000D03*
D22*
%TO.N,/iHD*%
X123698000Y-107823000D03*
X105537000Y-102743000D03*
X123698000Y-102743000D03*
%TO.N,/iDS_0*%
X143002000Y-102743000D03*
%TD*%
D24*
%TO.N,/FDC_T0*%
X82550000Y-84963000D02*
X76962000Y-84963000D01*
X92202000Y-92583000D02*
X90170000Y-92583000D01*
X90170000Y-92583000D02*
X82550000Y-84963000D01*
X76962000Y-84963000D02*
X75692000Y-83693000D01*
%TO.N,/FDC_WRP*%
X76962000Y-82423000D02*
X82550000Y-82423000D01*
X92202000Y-90043000D02*
X90170000Y-90043000D01*
X90170000Y-90043000D02*
X82550000Y-82423000D01*
%TO.N,/HEAD*%
X75692000Y-76073000D02*
X76962000Y-77343000D01*
X76962000Y-77343000D02*
X82550000Y-77343000D01*
X96012000Y-88773000D02*
X96012000Y-101473000D01*
X96012000Y-101473000D02*
X97282000Y-102743000D01*
X82550000Y-77343000D02*
X91440000Y-86233000D01*
X93472000Y-86233000D02*
X96012000Y-88773000D01*
X91440000Y-86233000D02*
X93472000Y-86233000D01*
%TO.N,/DATA_RD*%
X76962000Y-79883000D02*
X82550000Y-79883000D01*
X92202000Y-87503000D02*
X90170000Y-87503000D01*
X90170000Y-87503000D02*
X82550000Y-79883000D01*
X95377000Y-90678000D02*
X95377000Y-104888990D01*
X92202000Y-87503000D02*
X95377000Y-90678000D01*
%TO.N,/FDC_WRP*%
X94742000Y-92837000D02*
X94742000Y-105283000D01*
X92202000Y-90043000D02*
X94742000Y-92583000D01*
X94742000Y-92583000D02*
X94742000Y-92837000D01*
%TO.N,/FDC_T0*%
X94107000Y-94742000D02*
X94107000Y-105918000D01*
X92202000Y-92583000D02*
X94107000Y-94488000D01*
X94107000Y-94488000D02*
X94107000Y-94742000D01*
%TO.N,/FDC_IP*%
X92202000Y-95123000D02*
X92202000Y-105283000D01*
X92202000Y-105283000D02*
X95377000Y-108458000D01*
X101092000Y-108458000D02*
X104267000Y-111633000D01*
X104267000Y-111633000D02*
X108077000Y-111633000D01*
X95377000Y-108458000D02*
X101092000Y-108458000D01*
X108077000Y-111633000D02*
X111252000Y-114808000D01*
X111252000Y-114808000D02*
X111252000Y-121793000D01*
X111252000Y-121793000D02*
X112522000Y-123063000D01*
D25*
%TO.N,GND*%
X115737000Y-69723000D02*
X115737000Y-67905000D01*
X115737000Y-67905000D02*
X129159000Y-54483000D01*
X129159000Y-54483000D02*
X132207000Y-54483000D01*
X132207000Y-54483000D02*
X133477000Y-55753000D01*
X133477000Y-55753000D02*
X133477000Y-57658000D01*
X133477000Y-57658000D02*
X134112000Y-58293000D01*
X134112000Y-58293000D02*
X134192000Y-58293000D01*
X134192000Y-58293000D02*
X138002000Y-62103000D01*
X172847000Y-80223000D02*
X172847000Y-73406000D01*
X143002000Y-57023000D02*
X139192000Y-60833000D01*
X139192000Y-60833000D02*
X139192000Y-60913000D01*
D26*
X101092000Y-110363000D02*
X97917000Y-110363000D01*
D25*
X143002000Y-57023000D02*
X152607000Y-57023000D01*
X139192000Y-60913000D02*
X138002000Y-62103000D01*
X110697000Y-69723000D02*
X100537000Y-79883000D01*
D26*
X103632000Y-112903000D02*
X101092000Y-110363000D01*
D25*
X110697000Y-69723000D02*
X115737000Y-69723000D01*
D26*
X78232000Y-86233000D02*
X78232000Y-91313000D01*
X105537000Y-112903000D02*
X103632000Y-112903000D01*
D25*
%TO.N,+9V*%
X189992000Y-57023000D02*
X189992000Y-54483000D01*
X189992000Y-51943000D02*
X189992000Y-54483000D01*
X163322000Y-51308000D02*
X157607000Y-57023000D01*
X157607000Y-57023000D02*
X160147000Y-59563000D01*
X192532000Y-54483000D02*
X189992000Y-51943000D01*
X192532000Y-54483000D02*
X189992000Y-57023000D01*
X165567000Y-80223000D02*
X170307000Y-80223000D01*
X160147000Y-59563000D02*
X160147000Y-74803000D01*
X163322000Y-51308000D02*
X189357000Y-51308000D01*
D26*
X189992000Y-54483000D02*
X192532000Y-54483000D01*
D25*
X160147000Y-74803000D02*
X165567000Y-80223000D01*
X189992000Y-51943000D02*
X189357000Y-51308000D01*
D24*
%TO.N,/SP0*%
X192532000Y-62103000D02*
X191262000Y-63373000D01*
X191262000Y-63373000D02*
X187452000Y-63373000D01*
X176657000Y-87503000D02*
X172212000Y-87503000D01*
X180467000Y-78613000D02*
X180467000Y-83693000D01*
X184912000Y-74168000D02*
X180467000Y-78613000D01*
X187452000Y-63373000D02*
X184912000Y-65913000D01*
X184912000Y-65913000D02*
X184912000Y-74168000D01*
X180467000Y-83693000D02*
X176657000Y-87503000D01*
%TO.N,/DSMC*%
X193167000Y-60833000D02*
X186817000Y-60833000D01*
X186817000Y-60833000D02*
X183642000Y-64008000D01*
X179832000Y-83058000D02*
X176657000Y-86233000D01*
X176657000Y-86233000D02*
X170942000Y-86233000D01*
X192532000Y-67183000D02*
X194437000Y-65278000D01*
X194437000Y-62103000D02*
X193167000Y-60833000D01*
X194437000Y-65278000D02*
X194437000Y-62103000D01*
X183642000Y-74168000D02*
X179832000Y-77978000D01*
X183642000Y-64008000D02*
X183642000Y-74168000D01*
X169672000Y-87503000D02*
X167767000Y-87503000D01*
X179832000Y-77978000D02*
X179832000Y-83058000D01*
X170942000Y-86233000D02*
X169672000Y-87503000D01*
%TO.N,/A3*%
X106807000Y-93853000D02*
X99822000Y-93853000D01*
X179832000Y-110363000D02*
X182372000Y-112903000D01*
X166497000Y-118545894D02*
X166497000Y-112903000D01*
X166497000Y-112903000D02*
X169037000Y-110363000D01*
X143637000Y-97028000D02*
X146177000Y-99568000D01*
X98557000Y-95118000D02*
X99822000Y-93853000D01*
X149987000Y-120523000D02*
X158877000Y-120523000D01*
X147447000Y-112903000D02*
X147447000Y-117983000D01*
X160147000Y-119253000D02*
X165789894Y-119253000D01*
X158877000Y-120523000D02*
X160147000Y-119253000D01*
X113157000Y-82423000D02*
X113157000Y-84963000D01*
X146177000Y-99568000D02*
X146177000Y-111633000D01*
X165789894Y-119253000D02*
X166497000Y-118545894D01*
X108077000Y-95123000D02*
X106807000Y-93853000D01*
X109982000Y-97028000D02*
X143637000Y-97028000D01*
X147447000Y-117983000D02*
X149987000Y-120523000D01*
X146177000Y-111633000D02*
X147447000Y-112903000D01*
X169037000Y-110363000D02*
X179832000Y-110363000D01*
X108077000Y-95123000D02*
X109982000Y-97028000D01*
%TO.N,/A4*%
X195707000Y-74168000D02*
X192532000Y-77343000D01*
X148717000Y-109093000D02*
X148717000Y-101473000D01*
X157607000Y-49403000D02*
X189992000Y-49403000D01*
X148717000Y-109093000D02*
X149987000Y-110363000D01*
X152527000Y-54483000D02*
X157607000Y-49403000D01*
X149987000Y-100203000D02*
X148717000Y-101473000D01*
X189992000Y-49403000D02*
X195707000Y-55118000D01*
X195707000Y-55118000D02*
X195707000Y-74168000D01*
X149987000Y-97663000D02*
X149987000Y-100203000D01*
%TO.N,/A5*%
X192532000Y-79883000D02*
X191262000Y-81153000D01*
X191262000Y-81153000D02*
X183642000Y-81153000D01*
X183642000Y-81153000D02*
X182372000Y-79883000D01*
%TO.N,/A6*%
X183642000Y-83693000D02*
X182372000Y-82423000D01*
X191262000Y-83693000D02*
X183642000Y-83693000D01*
X192532000Y-82423000D02*
X191262000Y-83693000D01*
%TO.N,/A7*%
X183642000Y-86233000D02*
X182372000Y-84963000D01*
X192532000Y-84963000D02*
X191262000Y-86233000D01*
X191262000Y-86233000D02*
X183642000Y-86233000D01*
%TO.N,/A8*%
X184912000Y-120523000D02*
X183642000Y-119253000D01*
X169630947Y-119846947D02*
X169037000Y-120440894D01*
X169037000Y-123625894D02*
X165789894Y-126873000D01*
X171881009Y-116713000D02*
X169630947Y-118963062D01*
X183642000Y-119253000D02*
X177927000Y-119253000D01*
X165789894Y-126873000D02*
X160147000Y-126873000D01*
X169630947Y-118963062D02*
X169630947Y-119846947D01*
X158877000Y-125603000D02*
X149987000Y-125603000D01*
X177927000Y-119253000D02*
X175387000Y-116713000D01*
X175387000Y-116713000D02*
X171881009Y-116713000D01*
X160147000Y-126873000D02*
X158877000Y-125603000D01*
X169037000Y-120440894D02*
X169037000Y-123625894D01*
%TO.N,/A9*%
X158877000Y-123063000D02*
X149987000Y-123063000D01*
X195072000Y-117348000D02*
X193167000Y-119253000D01*
X160147000Y-124333000D02*
X158877000Y-123063000D01*
X177927000Y-116713000D02*
X175387000Y-114173000D01*
X175387000Y-114173000D02*
X171577000Y-114173000D01*
X186817000Y-119253000D02*
X184277000Y-116713000D01*
X167767000Y-119888000D02*
X167767000Y-122113992D01*
X168402000Y-117348000D02*
X168402000Y-119253000D01*
X184277000Y-116713000D02*
X177927000Y-116713000D01*
X193167000Y-119253000D02*
X186817000Y-119253000D01*
X195072000Y-92583000D02*
X195072000Y-117348000D01*
X192532000Y-90043000D02*
X195072000Y-92583000D01*
X171577000Y-114173000D02*
X168402000Y-117348000D01*
X165547991Y-124333000D02*
X160147000Y-124333000D01*
X167767000Y-122113992D02*
X165547991Y-124333000D01*
X168402000Y-119253000D02*
X167767000Y-119888000D01*
%TO.N,/A10*%
X183007000Y-114173000D02*
X178562000Y-114173000D01*
X193167000Y-116713000D02*
X185547000Y-116713000D01*
X167132000Y-118618000D02*
X165227000Y-120523000D01*
X194437000Y-94488000D02*
X194437000Y-115443000D01*
X169672000Y-110998000D02*
X167132000Y-113538000D01*
X175387000Y-110998000D02*
X169672000Y-110998000D01*
X167132000Y-113538000D02*
X167132000Y-118618000D01*
X185547000Y-116713000D02*
X183007000Y-114173000D01*
X192532000Y-92583000D02*
X194437000Y-94488000D01*
X194437000Y-115443000D02*
X193167000Y-116713000D01*
X178562000Y-114173000D02*
X175387000Y-110998000D01*
%TO.N,/A13*%
X178562000Y-101473000D02*
X181102000Y-101473000D01*
X188722000Y-109093000D02*
X193167000Y-109093000D01*
X167767000Y-98933000D02*
X167767000Y-105283000D01*
X161417000Y-90043000D02*
X157607000Y-90043000D01*
X167767000Y-98933000D02*
X161417000Y-90043000D01*
X167767000Y-105283000D02*
X165227000Y-107823000D01*
X167767000Y-98933000D02*
X176022000Y-98933000D01*
X193167000Y-109093000D02*
X193802000Y-108458000D01*
X176022000Y-98933000D02*
X178562000Y-101473000D01*
X193802000Y-101473000D02*
X192532000Y-100203000D01*
X181102000Y-101473000D02*
X188722000Y-109093000D01*
X193802000Y-108458000D02*
X193802000Y-101473000D01*
%TO.N,/A14*%
X172212000Y-90043000D02*
X173482000Y-91313000D01*
X191262000Y-101473000D02*
X192532000Y-102743000D01*
X186182000Y-101473000D02*
X191262000Y-101473000D01*
X183642000Y-93218000D02*
X183642000Y-98933000D01*
X183642000Y-98933000D02*
X186182000Y-101473000D01*
X181737000Y-91313000D02*
X183642000Y-93218000D01*
X173482000Y-91313000D02*
X181737000Y-91313000D01*
%TO.N,/A16*%
X191262000Y-111633000D02*
X188722000Y-111633000D01*
X188722000Y-111633000D02*
X179832000Y-102743000D01*
X192532000Y-110363000D02*
X191262000Y-111633000D01*
%TO.N,/A17*%
X172212000Y-100203000D02*
X174752000Y-100203000D01*
X174752000Y-100203000D02*
X188722000Y-114173000D01*
X188722000Y-114173000D02*
X191262000Y-114173000D01*
X191262000Y-114173000D02*
X192532000Y-112903000D01*
%TO.N,/D7*%
X160147000Y-125603000D02*
X164592000Y-125603000D01*
X168402000Y-122428000D02*
X168402000Y-120142000D01*
X168402000Y-120142000D02*
X169037000Y-119507000D01*
X149352000Y-124333000D02*
X158877000Y-124333000D01*
X127762000Y-105283000D02*
X130302000Y-105283000D01*
X146177000Y-121158000D02*
X149352000Y-124333000D01*
X169037000Y-119507000D02*
X169037000Y-118608000D01*
X165227000Y-125603000D02*
X168402000Y-122428000D01*
X146177000Y-113157000D02*
X146177000Y-121158000D01*
X136652000Y-111633000D02*
X144653000Y-111633000D01*
X169037000Y-118608000D02*
X172197000Y-115448000D01*
X144653000Y-111633000D02*
X146177000Y-113157000D01*
X158877000Y-124333000D02*
X160147000Y-125603000D01*
X130302000Y-105283000D02*
X136652000Y-111633000D01*
%TO.N,/D6*%
X127762000Y-107823000D02*
X130937000Y-107823000D01*
X144199894Y-112268000D02*
X145542000Y-113610106D01*
X169672000Y-120513000D02*
X172197000Y-117988000D01*
X145542000Y-113610106D02*
X145542000Y-121230106D01*
X158877000Y-126873000D02*
X160147000Y-128143000D01*
X169672000Y-123698000D02*
X169672000Y-120513000D01*
X165227000Y-128143000D02*
X169672000Y-123698000D01*
X147447000Y-123135106D02*
X147447000Y-124653991D01*
X135382000Y-112268000D02*
X144199894Y-112268000D01*
X149666009Y-126873000D02*
X158877000Y-126873000D01*
X160147000Y-128143000D02*
X164592000Y-128143000D01*
X147447000Y-124653991D02*
X149666009Y-126873000D01*
X145542000Y-121230106D02*
X147447000Y-123135106D01*
X130937000Y-107823000D02*
X135382000Y-112268000D01*
%TO.N,/D5*%
X146177000Y-124333000D02*
X146177000Y-126238000D01*
X158877000Y-129413000D02*
X160147000Y-130683000D01*
X138557000Y-120523000D02*
X139827000Y-121793000D01*
X160147000Y-130683000D02*
X164592000Y-130683000D01*
X170937000Y-124328000D02*
X172197000Y-123068000D01*
X139827000Y-121793000D02*
X143637000Y-121793000D01*
X165227000Y-130683000D02*
X170942000Y-124968000D01*
X149352000Y-129413000D02*
X158877000Y-129413000D01*
X146177000Y-126238000D02*
X149352000Y-129413000D01*
X170942000Y-124968000D02*
X170937000Y-124963000D01*
X143637000Y-121793000D02*
X146177000Y-124333000D01*
X134747000Y-120523000D02*
X138557000Y-120523000D01*
X170937000Y-124963000D02*
X170937000Y-124328000D01*
%TO.N,/D4*%
X167132000Y-133213000D02*
X172197000Y-128148000D01*
X143637000Y-126873000D02*
X148717000Y-131953000D01*
X167132000Y-133223000D02*
X167132000Y-133213000D01*
X148717000Y-131953000D02*
X158877000Y-131953000D01*
X141097000Y-126873000D02*
X143637000Y-126873000D01*
X160147000Y-133223000D02*
X167132000Y-133223000D01*
X134747000Y-123063000D02*
X137287000Y-123063000D01*
X158877000Y-131953000D02*
X160147000Y-133223000D01*
X137287000Y-123063000D02*
X141097000Y-126873000D01*
%TO.N,/D3*%
X148082000Y-134493000D02*
X158877000Y-134493000D01*
X170307000Y-135128000D02*
X170307000Y-135118000D01*
X169037000Y-135128000D02*
X170307000Y-135128000D01*
X170307000Y-135118000D02*
X172197000Y-133228000D01*
X134747000Y-128143000D02*
X136652000Y-128143000D01*
X140462000Y-131953000D02*
X145542000Y-131953000D01*
X158877000Y-134493000D02*
X160147000Y-135763000D01*
X145542000Y-131953000D02*
X148082000Y-134493000D01*
X168402000Y-135763000D02*
X169037000Y-135128000D01*
X160147000Y-135763000D02*
X168402000Y-135763000D01*
X136652000Y-128143000D02*
X140462000Y-131953000D01*
%TO.N,/SP3*%
X170942000Y-96393000D02*
X172212000Y-97663000D01*
X186182000Y-73533000D02*
X186182000Y-74168000D01*
X189992000Y-69723000D02*
X186182000Y-73533000D01*
X181102000Y-79248000D02*
X181102000Y-84328000D01*
X186182000Y-74168000D02*
X181102000Y-79248000D01*
X170942000Y-89408000D02*
X170942000Y-96393000D01*
X171577000Y-88773000D02*
X170942000Y-89408000D01*
X181102000Y-84328000D02*
X176657000Y-88773000D01*
X176657000Y-88773000D02*
X171577000Y-88773000D01*
%TO.N,/A2*%
X195072000Y-60198000D02*
X195072000Y-69723000D01*
X195072000Y-69723000D02*
X193802000Y-70993000D01*
X191262000Y-70993000D02*
X189992000Y-72263000D01*
X147447000Y-98615500D02*
X147764500Y-98933000D01*
X147447000Y-97663000D02*
X147447000Y-98615500D01*
X187452000Y-54483000D02*
X187452000Y-57023000D01*
X187452000Y-57023000D02*
X188722000Y-58293000D01*
X149987000Y-112903000D02*
X147764500Y-110680500D01*
X193167000Y-58293000D02*
X195072000Y-60198000D01*
X188722000Y-58293000D02*
X193167000Y-58293000D01*
X193802000Y-70993000D02*
X191262000Y-70993000D01*
X147764500Y-110680500D02*
X147764500Y-98933000D01*
%TO.N,/A1*%
X153797000Y-137033000D02*
X167839107Y-137033000D01*
X130302000Y-138303000D02*
X132524500Y-136080500D01*
X170307000Y-135763000D02*
X172212000Y-137668000D01*
X135699500Y-136080500D02*
X137287000Y-134493000D01*
X169109107Y-135763000D02*
X170307000Y-135763000D01*
X172212000Y-137668000D02*
X180467000Y-137668000D01*
X167839107Y-137033000D02*
X169109107Y-135763000D01*
X180467000Y-137668000D02*
X182372000Y-135763000D01*
X137287000Y-134493000D02*
X146812000Y-134493000D01*
X132524500Y-136080500D02*
X135699500Y-136080500D01*
X151257000Y-137033000D02*
X152527000Y-135763000D01*
X152527000Y-135763000D02*
X153797000Y-137033000D01*
X146812000Y-134493000D02*
X149352000Y-137033000D01*
X149352000Y-137033000D02*
X151257000Y-137033000D01*
%TO.N,/A0*%
X152527000Y-138303000D02*
X167767000Y-138303000D01*
X152527000Y-138303000D02*
X149352000Y-138303000D01*
X146177000Y-135128000D02*
X137922000Y-135128000D01*
X134429500Y-136715500D02*
X132842000Y-138303000D01*
X149352000Y-138303000D02*
X146177000Y-135128000D01*
X169672000Y-136398000D02*
X170234894Y-136398000D01*
X182372000Y-138303000D02*
X184912000Y-135763000D01*
X167767000Y-138303000D02*
X169672000Y-136398000D01*
X172139894Y-138303000D02*
X182372000Y-138303000D01*
X170234894Y-136398000D02*
X172139894Y-138303000D01*
X137922000Y-135128000D02*
X136334500Y-136715500D01*
X136334500Y-136715500D02*
X134429500Y-136715500D01*
%TO.N,/RESET*%
X125222000Y-133223000D02*
X125222000Y-137071148D01*
X148717000Y-140208000D02*
X183007000Y-140208000D01*
X128358852Y-140208000D02*
X136017000Y-140208000D01*
X125222000Y-137071148D02*
X128358852Y-140208000D01*
X139827000Y-136398000D02*
X144907000Y-136398000D01*
X136017000Y-140208000D02*
X139827000Y-136398000D01*
X183007000Y-140208000D02*
X184912000Y-138303000D01*
X144907000Y-136398000D02*
X148717000Y-140208000D01*
%TO.N,/A15*%
X186182000Y-104013000D02*
X190627000Y-104013000D01*
X191262000Y-106553000D02*
X189992000Y-107823000D01*
X179832000Y-92583000D02*
X182372000Y-95123000D01*
X191262000Y-104648000D02*
X191262000Y-106553000D01*
X182372000Y-100203000D02*
X186182000Y-104013000D01*
X190627000Y-104013000D02*
X191262000Y-104648000D01*
X182372000Y-95123000D02*
X182372000Y-100203000D01*
%TO.N,/RW*%
X138557000Y-135763000D02*
X145542000Y-135763000D01*
X145542000Y-135763000D02*
X149352000Y-139573000D01*
X149352000Y-139573000D02*
X169037000Y-139573000D01*
X169037000Y-139573000D02*
X170307000Y-138303000D01*
X182372000Y-139573000D02*
X184912000Y-137033000D01*
X184912000Y-137033000D02*
X186182000Y-137033000D01*
X127762000Y-138303000D02*
X129032000Y-139573000D01*
X170307000Y-138303000D02*
X171577000Y-139573000D01*
X186182000Y-137033000D02*
X187452000Y-135763000D01*
X171577000Y-139573000D02*
X182372000Y-139573000D01*
X134747000Y-139573000D02*
X138557000Y-135763000D01*
X129032000Y-139573000D02*
X134747000Y-139573000D01*
%TO.N,/DS*%
X142367000Y-140843000D02*
X139827000Y-138303000D01*
X184912000Y-140843000D02*
X142367000Y-140843000D01*
X187452000Y-138303000D02*
X184912000Y-140843000D01*
%TO.N,/D0*%
X140462000Y-120523000D02*
X143637000Y-120523000D01*
X127762000Y-123063000D02*
X131572000Y-119253000D01*
X146812000Y-123698000D02*
X143637000Y-120523000D01*
X170307000Y-124895894D02*
X170307000Y-122418000D01*
X170307000Y-122418000D02*
X172197000Y-120528000D01*
X158877000Y-128143000D02*
X160147000Y-129413000D01*
X165789894Y-129413000D02*
X170307000Y-124895894D01*
X149987000Y-128143000D02*
X158877000Y-128143000D01*
X149987000Y-128143000D02*
X146812000Y-124968000D01*
X140462000Y-120523000D02*
X139192000Y-119253000D01*
X160147000Y-129413000D02*
X165789894Y-129413000D01*
X146812000Y-124968000D02*
X146812000Y-123698000D01*
X139192000Y-119253000D02*
X131572000Y-119253000D01*
%TO.N,/D1*%
X165862000Y-131943000D02*
X172197000Y-125608000D01*
X127762000Y-120523000D02*
X126492000Y-121793000D01*
X129667000Y-124333000D02*
X132207000Y-121793000D01*
X158877000Y-130683000D02*
X160147000Y-131953000D01*
X160147000Y-131953000D02*
X165862000Y-131953000D01*
X165862000Y-131953000D02*
X165862000Y-131943000D01*
X143002000Y-123063000D02*
X144907000Y-124968000D01*
X149352000Y-130683000D02*
X149987000Y-130683000D01*
X144907000Y-124968000D02*
X144907000Y-126238000D01*
X126492000Y-123698000D02*
X127127000Y-124333000D01*
X149987000Y-130683000D02*
X158877000Y-130683000D01*
X127127000Y-124333000D02*
X129667000Y-124333000D01*
X139827000Y-123063000D02*
X143002000Y-123063000D01*
X126492000Y-121793000D02*
X126492000Y-123698000D01*
X144907000Y-126238000D02*
X149352000Y-130683000D01*
X138557000Y-121793000D02*
X139827000Y-123063000D01*
X132207000Y-121793000D02*
X138557000Y-121793000D01*
%TO.N,/D2*%
X158877000Y-133223000D02*
X160147000Y-134493000D01*
X125222000Y-120523000D02*
X125222000Y-124968000D01*
X160147000Y-134493000D02*
X168402000Y-134493000D01*
X148082000Y-133223000D02*
X158877000Y-133223000D01*
X140462000Y-128143000D02*
X143002000Y-128143000D01*
X129667000Y-126873000D02*
X132207000Y-124333000D01*
X136652000Y-124333000D02*
X140462000Y-128143000D01*
X127127000Y-126873000D02*
X129667000Y-126873000D01*
X125222000Y-124968000D02*
X127127000Y-126873000D01*
X127762000Y-117983000D02*
X125222000Y-120523000D01*
X168402000Y-134493000D02*
X169037000Y-133858000D01*
X132207000Y-124333000D02*
X136652000Y-124333000D01*
X143002000Y-128143000D02*
X148082000Y-133223000D01*
X169037000Y-133858000D02*
X169037000Y-133848000D01*
X169037000Y-133848000D02*
X172197000Y-130688000D01*
%TO.N,/DS1*%
X89027000Y-130683000D02*
X97917000Y-130683000D01*
X83947000Y-104013000D02*
X83947000Y-125603000D01*
X75692000Y-101473000D02*
X76962000Y-102743000D01*
X83947000Y-125603000D02*
X89027000Y-130683000D01*
X76962000Y-102743000D02*
X82677000Y-102743000D01*
X82677000Y-102743000D02*
X83947000Y-104013000D01*
%TO.N,/MOTOR_ON*%
X76962000Y-97663000D02*
X82677000Y-97663000D01*
X85217000Y-100203000D02*
X85217000Y-123698000D01*
X75692000Y-96393000D02*
X76962000Y-97663000D01*
X82677000Y-97663000D02*
X85217000Y-100203000D01*
X85217000Y-123698000D02*
X87122000Y-125603000D01*
X87122000Y-125603000D02*
X97917000Y-125603000D01*
%TO.N,/DIR*%
X86487000Y-98933000D02*
X86487000Y-116713000D01*
X76962000Y-95123000D02*
X82677000Y-95123000D01*
X102997000Y-120523000D02*
X105537000Y-120523000D01*
X86487000Y-116713000D02*
X89027000Y-119253000D01*
X89027000Y-119253000D02*
X101727000Y-119253000D01*
X82677000Y-95123000D02*
X86487000Y-98933000D01*
X75692000Y-93853000D02*
X76962000Y-95123000D01*
X101727000Y-119253000D02*
X102997000Y-120523000D01*
%TO.N,/STEP*%
X76962000Y-92583000D02*
X82677000Y-92583000D01*
X102997000Y-115443000D02*
X105537000Y-115443000D01*
X75692000Y-91313000D02*
X76962000Y-92583000D01*
X82677000Y-92583000D02*
X87757000Y-97663000D01*
X101727000Y-114173000D02*
X102997000Y-115443000D01*
X90297000Y-114173000D02*
X101727000Y-114173000D01*
X87757000Y-97663000D02*
X87757000Y-111633000D01*
X87757000Y-111633000D02*
X90297000Y-114173000D01*
%TO.N,/DATA_WR*%
X92837000Y-123063000D02*
X94107000Y-124333000D01*
X102997000Y-125603000D02*
X105537000Y-125603000D01*
X101727000Y-124333000D02*
X102997000Y-125603000D01*
X94107000Y-124333000D02*
X101727000Y-124333000D01*
%TO.N,/FDC_T0*%
X115062000Y-115443000D02*
X115062000Y-118618000D01*
X113792000Y-114173000D02*
X115062000Y-115443000D01*
X94107000Y-105918000D02*
X96012000Y-107823000D01*
X115062000Y-118618000D02*
X113157000Y-120523000D01*
X111887000Y-114173000D02*
X113792000Y-114173000D01*
X96012000Y-107823000D02*
X105537000Y-107823000D01*
X105537000Y-107823000D02*
X111887000Y-114173000D01*
%TO.N,/DATA_RD*%
X107442000Y-106553000D02*
X111252000Y-110363000D01*
X111252000Y-110363000D02*
X112522000Y-110363000D01*
X97041009Y-106553000D02*
X107442000Y-106553000D01*
X75692000Y-78613000D02*
X76962000Y-79883000D01*
X95377000Y-104888990D02*
X97041009Y-106553000D01*
%TO.N,/FDCON_CS*%
X97282000Y-101473000D02*
X106807000Y-101473000D01*
X106807000Y-101473000D02*
X108077000Y-100203000D01*
X97917000Y-90038000D02*
X96647000Y-91308000D01*
X96647000Y-91308000D02*
X96647000Y-100838000D01*
X96647000Y-100838000D02*
X97282000Y-101473000D01*
%TO.N,/DS0*%
X87757000Y-131953000D02*
X101727000Y-131953000D01*
X102997000Y-130683000D02*
X105537000Y-130683000D01*
X81407000Y-105283000D02*
X82677000Y-106553000D01*
X76962000Y-105283000D02*
X81407000Y-105283000D01*
X75692000Y-104013000D02*
X76962000Y-105283000D01*
X101727000Y-131953000D02*
X102997000Y-130683000D01*
X82677000Y-126873000D02*
X87757000Y-131953000D01*
X82677000Y-106553000D02*
X82677000Y-126873000D01*
%TO.N,/ROM_OE*%
X149666009Y-119253000D02*
X158877000Y-119253000D01*
X116327000Y-92578000D02*
X116332000Y-92583000D01*
X158877000Y-119253000D02*
X160147000Y-117983000D01*
X144272000Y-96393000D02*
X146812000Y-98933000D01*
X146812000Y-110998000D02*
X148717000Y-112903000D01*
X148717000Y-118303991D02*
X149666009Y-119253000D01*
X123317000Y-92583000D02*
X127127000Y-96393000D01*
X160147000Y-117983000D02*
X164727000Y-117983000D01*
X148717000Y-112903000D02*
X148717000Y-118303991D01*
X116332000Y-92583000D02*
X123317000Y-92583000D01*
X127127000Y-96393000D02*
X144272000Y-96393000D01*
X146812000Y-98933000D02*
X146812000Y-110998000D01*
X105537000Y-92578000D02*
X116327000Y-92578000D01*
%TO.N,/DTACKL*%
X134112000Y-95758000D02*
X153797000Y-95758000D01*
X153797000Y-95758000D02*
X155067000Y-97028000D01*
X158877000Y-112268000D02*
X162052000Y-109093000D01*
X156972000Y-112268000D02*
X158877000Y-112268000D01*
X181102000Y-109093000D02*
X187452000Y-115443000D01*
X155067000Y-97028000D02*
X155067000Y-110363000D01*
X155067000Y-110363000D02*
X156972000Y-112268000D01*
X120777000Y-82423000D02*
X134112000Y-95758000D01*
X187452000Y-115443000D02*
X189992000Y-115443000D01*
X162052000Y-109093000D02*
X181102000Y-109093000D01*
%TO.N,/FDSET_CS*%
X142367000Y-133223000D02*
X137287000Y-133223000D01*
X137287000Y-133223000D02*
X135382000Y-135128000D01*
X135382000Y-135128000D02*
X128397000Y-135128000D01*
X128397000Y-135128000D02*
X127762000Y-135763000D01*
%TO.N,/Dc7*%
X191262000Y-121793000D02*
X192532000Y-120523000D01*
X188087000Y-121793000D02*
X191262000Y-121793000D01*
X184282000Y-117988000D02*
X188087000Y-121793000D01*
X179817000Y-117988000D02*
X184282000Y-117988000D01*
%TO.N,/Dc6*%
X179817000Y-120528000D02*
X183622000Y-124333000D01*
X191262000Y-124333000D02*
X192532000Y-123063000D01*
X183622000Y-124333000D02*
X191262000Y-124333000D01*
%TO.N,/Dc5*%
X191262000Y-126873000D02*
X192532000Y-125603000D01*
X181082000Y-126873000D02*
X191262000Y-126873000D01*
X179817000Y-125608000D02*
X181082000Y-126873000D01*
%TO.N,/Dc4*%
X179817000Y-130688000D02*
X181092000Y-129413000D01*
X191262000Y-129413000D02*
X192532000Y-128143000D01*
X181092000Y-129413000D02*
X191262000Y-129413000D01*
%TO.N,/Dc3*%
X183632000Y-131953000D02*
X191262000Y-131953000D01*
X191262000Y-131953000D02*
X192532000Y-130683000D01*
X179817000Y-135768000D02*
X183632000Y-131953000D01*
%TO.N,/Dc0*%
X182352000Y-125603000D02*
X189992000Y-125603000D01*
X179817000Y-123068000D02*
X182352000Y-125603000D01*
%TO.N,/Dc1*%
X179817000Y-128148000D02*
X189987000Y-128148000D01*
%TO.N,/Dc2*%
X182362000Y-130683000D02*
X189992000Y-130683000D01*
X179817000Y-133228000D02*
X182362000Y-130683000D01*
%TO.N,/ROM_CE*%
X167767000Y-119180894D02*
X167132000Y-119815894D01*
X159512000Y-93853000D02*
X159512000Y-91948000D01*
X151892000Y-83693000D02*
X148717000Y-83693000D01*
X178313000Y-115448000D02*
X174498000Y-111633000D01*
X159512000Y-91948000D02*
X158877000Y-91313000D01*
X156337000Y-91313000D02*
X151892000Y-83693000D01*
X167767000Y-114173000D02*
X167767000Y-119180894D01*
X167132000Y-121158000D02*
X165227000Y-123063000D01*
X146812000Y-76073000D02*
X143002000Y-72263000D01*
X158877000Y-91313000D02*
X156337000Y-91313000D01*
X179817000Y-115448000D02*
X178313000Y-115448000D01*
X170307000Y-111633000D02*
X167767000Y-114173000D01*
X146812000Y-81788000D02*
X146812000Y-76073000D01*
X157607000Y-110363000D02*
X156337000Y-109093000D01*
X156337000Y-109093000D02*
X156337000Y-97028000D01*
X148717000Y-83693000D02*
X146812000Y-81788000D01*
X174498000Y-111633000D02*
X170307000Y-111633000D01*
X156337000Y-97028000D02*
X159512000Y-93853000D01*
X167132000Y-119815894D02*
X167132000Y-121158000D01*
%TO.N,/FDCON_DEN*%
X131572000Y-129413000D02*
X132842000Y-130683000D01*
X132842000Y-130683000D02*
X134747000Y-130683000D01*
X112522000Y-128143000D02*
X120142000Y-128143000D01*
X121412000Y-129413000D02*
X131572000Y-129413000D01*
X120142000Y-128143000D02*
X121412000Y-129413000D01*
%TO.N,Net-(U4-Pad4)*%
X146812000Y-84963000D02*
X145542000Y-83693000D01*
X152527000Y-87503000D02*
X152527000Y-90678000D01*
X149987000Y-84963000D02*
X146812000Y-84963000D01*
X145542000Y-83693000D02*
X145542000Y-77343000D01*
X157607000Y-92583000D02*
X154432000Y-92583000D01*
X149987000Y-84963000D02*
X152527000Y-87503000D01*
X152527000Y-90678000D02*
X154432000Y-92583000D01*
X145542000Y-77343000D02*
X143002000Y-74803000D01*
%TO.N,/XOR_PULLUP*%
X124587000Y-70993000D02*
X122682000Y-72898000D01*
X112522000Y-72898000D02*
X108077000Y-77343000D01*
X172212000Y-95123000D02*
X179832000Y-95123000D01*
X179832000Y-95123000D02*
X179832000Y-97663000D01*
X150622000Y-72898000D02*
X150622000Y-65913000D01*
X108077000Y-77343000D02*
X108077000Y-81153000D01*
X124587000Y-65278000D02*
X124587000Y-70993000D01*
X172212000Y-92583000D02*
X172212000Y-95123000D01*
X148082000Y-63373000D02*
X126492000Y-63373000D01*
X150622000Y-65913000D02*
X148082000Y-63373000D01*
X157607000Y-79883000D02*
X161417000Y-83693000D01*
X126492000Y-63373000D02*
X124587000Y-65278000D01*
X106807000Y-82423000D02*
X92202000Y-82423000D01*
X168402000Y-83693000D02*
X161417000Y-83693000D01*
X122682000Y-72898000D02*
X112522000Y-72898000D01*
X169672000Y-84963000D02*
X168402000Y-83693000D01*
X108077000Y-81153000D02*
X106807000Y-82423000D01*
X157607000Y-79883000D02*
X150622000Y-72898000D01*
D25*
%TO.N,+5V*%
X167767000Y-82423000D02*
X164592000Y-82423000D01*
X172232971Y-84645500D02*
X173799500Y-84645500D01*
X173799500Y-84645500D02*
X175387000Y-83058000D01*
X167767000Y-82423000D02*
X170010471Y-82423000D01*
X170010471Y-82423000D02*
X172232971Y-84645500D01*
X143002000Y-62103000D02*
X155067000Y-62103000D01*
X155067000Y-62103000D02*
X157607000Y-64643000D01*
X175387000Y-83058000D02*
X175387000Y-80223000D01*
X159512000Y-77343000D02*
X157607000Y-77343000D01*
D26*
X120777000Y-74803000D02*
X113157000Y-74803000D01*
D25*
X164592000Y-82423000D02*
X159512000Y-77343000D01*
X165227000Y-102743000D02*
X157607000Y-97663000D01*
D24*
%TO.N,/NOSE_6*%
X122047000Y-81153000D02*
X111887000Y-81153000D01*
X136017000Y-95123000D02*
X122047000Y-81153000D01*
X144907000Y-95123000D02*
X136017000Y-95123000D01*
X101727000Y-88773000D02*
X97912000Y-84958000D01*
X149987000Y-90043000D02*
X144907000Y-95123000D01*
X111887000Y-81153000D02*
X109982000Y-83058000D01*
X109982000Y-83058000D02*
X109982000Y-86868000D01*
X108077000Y-88773000D02*
X101727000Y-88773000D01*
X109982000Y-86868000D02*
X108077000Y-88773000D01*
%TO.N,Net-(U6-Pad10)*%
X125857000Y-78613000D02*
X127762000Y-76708000D01*
X110617000Y-79883000D02*
X111887000Y-78613000D01*
X136652000Y-65913000D02*
X141097000Y-70358000D01*
X127762000Y-76708000D02*
X127762000Y-67818000D01*
X141097000Y-70358000D02*
X141097000Y-75438000D01*
X127762000Y-67818000D02*
X129667000Y-65913000D01*
X111887000Y-78613000D02*
X125857000Y-78613000D01*
X129667000Y-65913000D02*
X136652000Y-65913000D01*
X141097000Y-75438000D02*
X143002000Y-77343000D01*
%TO.N,Net-(U7-Pad10)*%
X105537000Y-97658000D02*
X97917000Y-97658000D01*
X105537000Y-95118000D02*
X105537000Y-97658000D01*
%TO.N,/FDC_WRP*%
X114427000Y-111633000D02*
X115697000Y-112903000D01*
X115697000Y-112903000D02*
X115697000Y-123063000D01*
X111252000Y-111633000D02*
X114427000Y-111633000D01*
X75692000Y-81153000D02*
X76962000Y-82423000D01*
X115697000Y-123063000D02*
X113157000Y-125603000D01*
X94742000Y-105283000D02*
X96647000Y-107188000D01*
X96647000Y-107188000D02*
X106807000Y-107188000D01*
X106807000Y-107188000D02*
X111252000Y-111633000D01*
%TO.N,/FDC_STEP*%
X109982000Y-115443000D02*
X108712000Y-114173000D01*
X108712000Y-114173000D02*
X103632000Y-114173000D01*
X102362000Y-112903000D02*
X103632000Y-114173000D01*
X97917000Y-112903000D02*
X102362000Y-112903000D01*
%TO.N,/FDC_DIR*%
X97917000Y-117983000D02*
X101727000Y-117983000D01*
X102997000Y-119253000D02*
X108712000Y-119253000D01*
X101727000Y-117983000D02*
X102997000Y-119253000D01*
X108712000Y-119253000D02*
X109982000Y-117983000D01*
%TO.N,/FDC_WD*%
X103632000Y-124333000D02*
X108712000Y-124333000D01*
X97917000Y-123063000D02*
X102362000Y-123063000D01*
X102362000Y-123063000D02*
X103632000Y-124333000D01*
X108712000Y-124333000D02*
X109982000Y-123063000D01*
%TO.N,/FDC_WG*%
X109982000Y-120523000D02*
X108712000Y-120523000D01*
X106172000Y-123063000D02*
X108712000Y-120523000D01*
%TO.N,/iMOT*%
X109982000Y-125603000D02*
X108712000Y-125603000D01*
X106172000Y-128143000D02*
X108712000Y-125603000D01*
%TO.N,/iHD*%
X111887000Y-98933000D02*
X119888000Y-98933000D01*
X137922000Y-113538000D02*
X142367000Y-117983000D01*
X129594894Y-109093000D02*
X134039894Y-113538000D01*
X108077000Y-102743000D02*
X111887000Y-98933000D01*
X134039894Y-113538000D02*
X137922000Y-113538000D01*
X124968000Y-109093000D02*
X129594894Y-109093000D01*
X123698000Y-107823000D02*
X124968000Y-109093000D01*
X105537000Y-102743000D02*
X108077000Y-102743000D01*
X119888000Y-98933000D02*
X123698000Y-102743000D01*
%TO.N,/iDS_0*%
X126492000Y-101473000D02*
X130302000Y-101473000D01*
X103632000Y-129413000D02*
X108712000Y-129413000D01*
X97917000Y-128143000D02*
X102362000Y-128143000D01*
X130302000Y-101473000D02*
X131572000Y-102743000D01*
X116967000Y-124968000D02*
X116967000Y-110998000D01*
X116967000Y-110998000D02*
X126492000Y-101473000D01*
X111252000Y-126873000D02*
X115062000Y-126873000D01*
X102362000Y-128143000D02*
X103632000Y-129413000D01*
X131572000Y-102743000D02*
X143002000Y-102743000D01*
X108712000Y-129413000D02*
X111252000Y-126873000D01*
X115062000Y-126873000D02*
X116967000Y-124968000D01*
%TO.N,/iDS_1*%
X137287000Y-130048000D02*
X136652000Y-129413000D01*
X133477000Y-127508000D02*
X134112000Y-126873000D01*
X105537000Y-133223000D02*
X106807000Y-134493000D01*
X137287000Y-131318000D02*
X137287000Y-130048000D01*
X122047000Y-131953000D02*
X136652000Y-131953000D01*
X140462000Y-130683000D02*
X142367000Y-130683000D01*
X133477000Y-128778000D02*
X133477000Y-127508000D01*
X119507000Y-134493000D02*
X122047000Y-131953000D01*
X106807000Y-134493000D02*
X119507000Y-134493000D01*
X136652000Y-126873000D02*
X140462000Y-130683000D01*
X136652000Y-131953000D02*
X137287000Y-131318000D01*
X134112000Y-129413000D02*
X133477000Y-128778000D01*
X134112000Y-126873000D02*
X136652000Y-126873000D01*
X136652000Y-129413000D02*
X134112000Y-129413000D01*
%TO.N,Net-(RP1-R4.2)*%
X135382000Y-74803000D02*
X135382000Y-77343000D01*
X130302000Y-74803000D02*
X135382000Y-74803000D01*
X138002000Y-79963000D02*
X138002000Y-90043000D01*
X135382000Y-77343000D02*
X138002000Y-79963000D01*
%TO.N,Net-(RP1-R3.1)*%
X135382000Y-67183000D02*
X139954000Y-71755000D01*
X139954000Y-71755000D02*
X139954000Y-78105000D01*
X140970000Y-79121000D02*
X140970000Y-87376000D01*
X130302000Y-67183000D02*
X135382000Y-67183000D01*
X139954000Y-78105000D02*
X140970000Y-79121000D01*
X140970000Y-87376000D02*
X143002000Y-89408000D01*
%TO.N,/NOSE_7*%
X97917000Y-87498000D02*
X95382000Y-84963000D01*
X109347000Y-91313000D02*
X101727000Y-91313000D01*
X95382000Y-84963000D02*
X92202000Y-84963000D01*
X97912000Y-87498000D02*
X101727000Y-91313000D01*
X113157000Y-87503000D02*
X109347000Y-91313000D01*
%TO.N,/interface_Sel*%
X108712000Y-78613000D02*
X111252000Y-76073000D01*
X127762000Y-64643000D02*
X126492000Y-65913000D01*
X148082000Y-69723000D02*
X149352000Y-70993000D01*
X126492000Y-76073000D02*
X125222000Y-77343000D01*
X111252000Y-76073000D02*
X119507000Y-76073000D01*
X108712000Y-84328000D02*
X108712000Y-78613000D01*
X126492000Y-65913000D02*
X126492000Y-76073000D01*
X160147000Y-84963000D02*
X157607000Y-82423000D01*
X120777000Y-77343000D02*
X125222000Y-77343000D01*
X137922000Y-64643000D02*
X143002000Y-69723000D01*
X167767000Y-84963000D02*
X160147000Y-84963000D01*
X149352000Y-70993000D02*
X149352000Y-74168000D01*
X119507000Y-76073000D02*
X120777000Y-77343000D01*
X105537000Y-87503000D02*
X108712000Y-84328000D01*
X148082000Y-75438000D02*
X149352000Y-74168000D01*
X148082000Y-80518000D02*
X148082000Y-75438000D01*
X137922000Y-64643000D02*
X127762000Y-64643000D01*
X157607000Y-82423000D02*
X149987000Y-82423000D01*
X148082000Y-69723000D02*
X143002000Y-69723000D01*
X149987000Y-82423000D02*
X148082000Y-80518000D01*
%TO.N,/notDS*%
X148082000Y-87503000D02*
X143002000Y-82423000D01*
X136652000Y-93853000D02*
X143637000Y-93853000D01*
X120777000Y-79883000D02*
X122682000Y-79883000D01*
X148082000Y-87503000D02*
X149987000Y-87503000D01*
X122682000Y-79883000D02*
X136652000Y-93853000D01*
X143637000Y-93853000D02*
X149987000Y-87503000D01*
%TO.N,Net-(RP1-R3.2)*%
X130302000Y-69723000D02*
X135382000Y-69723000D01*
X140208000Y-79629000D02*
X140208000Y-89939000D01*
X139192000Y-73533000D02*
X139192000Y-78613000D01*
X139192000Y-78613000D02*
X140208000Y-79629000D01*
X135382000Y-69723000D02*
X139192000Y-73533000D01*
X140208000Y-89939000D02*
X142822000Y-92553000D01*
%TO.N,Net-(RP1-R4.1)*%
X135382000Y-72263000D02*
X138430000Y-75311000D01*
X130302000Y-72263000D02*
X135382000Y-72263000D01*
X139446000Y-91029000D02*
X137922000Y-92553000D01*
X138430000Y-75311000D02*
X138430000Y-79121000D01*
X138430000Y-79121000D02*
X139446000Y-80137000D01*
X139446000Y-80137000D02*
X139446000Y-91029000D01*
%TD*%
%TA.AperFunction,Conductor*%
%TO.N,GND*%
G36*
X182314121Y-55138002D02*
G01*
X182360614Y-55191658D01*
X182372000Y-55244000D01*
X182372000Y-74042000D01*
X182351998Y-74110121D01*
X182298342Y-74156614D01*
X182246000Y-74168000D01*
X162813000Y-74168000D01*
X162744879Y-74147998D01*
X162698386Y-74094342D01*
X162687000Y-74042000D01*
X162687000Y-63563000D01*
X170583654Y-63563000D01*
X170585181Y-63586300D01*
X170585619Y-63592986D01*
X170585818Y-63605428D01*
X170584849Y-63634433D01*
X170584849Y-63634440D01*
X170584709Y-63638637D01*
X170585130Y-63642822D01*
X170595686Y-63747759D01*
X170596049Y-63752128D01*
X170602746Y-63854305D01*
X170602747Y-63854318D01*
X170603017Y-63858426D01*
X170603820Y-63862465D01*
X170603821Y-63862470D01*
X170609529Y-63891167D01*
X170611316Y-63903127D01*
X170614976Y-63939496D01*
X170615950Y-63943585D01*
X170615952Y-63943594D01*
X170639630Y-64042953D01*
X170640641Y-64047578D01*
X170659970Y-64144749D01*
X170659972Y-64144760D01*
X170660776Y-64148797D01*
X170662103Y-64152706D01*
X170662104Y-64152710D01*
X170672576Y-64183562D01*
X170675829Y-64194849D01*
X170685073Y-64233636D01*
X170686582Y-64237556D01*
X170686584Y-64237560D01*
X170722110Y-64329801D01*
X170723838Y-64334575D01*
X170755941Y-64429145D01*
X170757763Y-64432840D01*
X170757767Y-64432849D01*
X170773651Y-64465060D01*
X170778221Y-64475493D01*
X170793750Y-64515809D01*
X170795773Y-64519502D01*
X170795778Y-64519511D01*
X170841669Y-64603253D01*
X170844178Y-64608075D01*
X170885059Y-64690971D01*
X170886885Y-64694673D01*
X170889166Y-64698088D01*
X170889172Y-64698097D01*
X170910979Y-64730733D01*
X170916708Y-64740180D01*
X170939067Y-64780979D01*
X170941558Y-64784360D01*
X170941562Y-64784366D01*
X170996244Y-64858581D01*
X170999570Y-64863319D01*
X171049071Y-64937403D01*
X171051367Y-64940838D01*
X171054083Y-64943936D01*
X171054090Y-64943944D01*
X171082152Y-64975942D01*
X171088851Y-64984268D01*
X171118431Y-65024414D01*
X171121357Y-65027439D01*
X171121360Y-65027443D01*
X171183131Y-65091313D01*
X171187287Y-65095824D01*
X171246573Y-65163427D01*
X171249661Y-65166135D01*
X171249668Y-65166142D01*
X171284179Y-65196407D01*
X171291667Y-65203539D01*
X171328642Y-65241770D01*
X171331944Y-65244378D01*
X171331949Y-65244382D01*
X171399075Y-65297392D01*
X171404063Y-65301544D01*
X171466053Y-65355908D01*
X171466066Y-65355918D01*
X171469162Y-65358633D01*
X171513527Y-65388276D01*
X171521601Y-65394148D01*
X171565948Y-65429169D01*
X171569570Y-65431314D01*
X171569574Y-65431317D01*
X171640306Y-65473211D01*
X171646097Y-65476857D01*
X171674590Y-65495895D01*
X171715327Y-65523115D01*
X171719031Y-65524941D01*
X171719030Y-65524941D01*
X171766156Y-65548181D01*
X171774627Y-65552769D01*
X171826114Y-65583265D01*
X171902647Y-65615717D01*
X171909145Y-65618695D01*
X171977145Y-65652230D01*
X171977152Y-65652233D01*
X171980855Y-65654059D01*
X172037693Y-65673353D01*
X172046352Y-65676654D01*
X172100617Y-65699665D01*
X172100625Y-65699668D01*
X172104498Y-65701310D01*
X172181444Y-65722387D01*
X172188651Y-65724596D01*
X172261203Y-65749224D01*
X172265245Y-65750028D01*
X172265249Y-65750029D01*
X172285857Y-65754128D01*
X172323314Y-65761578D01*
X172331991Y-65763626D01*
X172396132Y-65781197D01*
X172471913Y-65791388D01*
X172479663Y-65792678D01*
X172551574Y-65806983D01*
X172618075Y-65811341D01*
X172626617Y-65812194D01*
X172695811Y-65821500D01*
X172768941Y-65821500D01*
X172777182Y-65821770D01*
X172842880Y-65826076D01*
X172842881Y-65826076D01*
X172847000Y-65826346D01*
X172919507Y-65821593D01*
X172921402Y-65821500D01*
X172922511Y-65821500D01*
X172996177Y-65816568D01*
X173142426Y-65806983D01*
X173143514Y-65806766D01*
X173143648Y-65806753D01*
X173144490Y-65806639D01*
X173148702Y-65806358D01*
X173292246Y-65777181D01*
X173432797Y-65749224D01*
X173435911Y-65748166D01*
X173440212Y-65747154D01*
X173440890Y-65746968D01*
X173445021Y-65746129D01*
X173580502Y-65699084D01*
X173713145Y-65654059D01*
X173716840Y-65652236D01*
X173720662Y-65650653D01*
X173711779Y-65654748D01*
X173724801Y-65649202D01*
X173722802Y-65649972D01*
X173726691Y-65648322D01*
X173730668Y-65646942D01*
X173855815Y-65583701D01*
X173978673Y-65523115D01*
X173982109Y-65520818D01*
X173985680Y-65518757D01*
X173984928Y-65519224D01*
X173994692Y-65513522D01*
X174000545Y-65510566D01*
X174113534Y-65433003D01*
X174123184Y-65426555D01*
X174221405Y-65360927D01*
X174221412Y-65360922D01*
X174224838Y-65358633D01*
X174229887Y-65354204D01*
X174241682Y-65345034D01*
X174249838Y-65339437D01*
X174349163Y-65249602D01*
X174447427Y-65163427D01*
X174454070Y-65155851D01*
X174464283Y-65145482D01*
X174470969Y-65139435D01*
X174470968Y-65139435D01*
X174474097Y-65136606D01*
X174558514Y-65036755D01*
X174642633Y-64940838D01*
X174650079Y-64929692D01*
X174658615Y-64918356D01*
X174669320Y-64905695D01*
X174737291Y-64799218D01*
X174738716Y-64797038D01*
X174807115Y-64694673D01*
X174814521Y-64679653D01*
X174821312Y-64667602D01*
X174832024Y-64650823D01*
X174883790Y-64539270D01*
X174885078Y-64536578D01*
X174893495Y-64519511D01*
X174938059Y-64429145D01*
X174944507Y-64410147D01*
X174949528Y-64397609D01*
X174957534Y-64380357D01*
X174959306Y-64376539D01*
X174994775Y-64262195D01*
X174995771Y-64259128D01*
X175033224Y-64148797D01*
X175037786Y-64125858D01*
X175041021Y-64113110D01*
X175048893Y-64087738D01*
X175068249Y-63972984D01*
X175068894Y-63969470D01*
X175090983Y-63858426D01*
X175092730Y-63831756D01*
X175094216Y-63819042D01*
X175098486Y-63793729D01*
X175098486Y-63793725D01*
X175099187Y-63789572D01*
X175102963Y-63676603D01*
X175103163Y-63672583D01*
X175108381Y-63592986D01*
X175110346Y-63563000D01*
X175108379Y-63533011D01*
X175108180Y-63520562D01*
X175109291Y-63487363D01*
X175098309Y-63378201D01*
X175097949Y-63373863D01*
X175090983Y-63267574D01*
X175084468Y-63234823D01*
X175082681Y-63222857D01*
X175079446Y-63190702D01*
X175079024Y-63186504D01*
X175054364Y-63083029D01*
X175053355Y-63078407D01*
X175046195Y-63042412D01*
X175033224Y-62977203D01*
X175027453Y-62960203D01*
X175021426Y-62942446D01*
X175018171Y-62931154D01*
X175017276Y-62927401D01*
X175008927Y-62892364D01*
X174971886Y-62796190D01*
X174970154Y-62791405D01*
X174946681Y-62722255D01*
X174938059Y-62696855D01*
X174920346Y-62660936D01*
X174915778Y-62650508D01*
X174901761Y-62614115D01*
X174900250Y-62610191D01*
X174852324Y-62522737D01*
X174849814Y-62517912D01*
X174808941Y-62435030D01*
X174807115Y-62431327D01*
X174783011Y-62395253D01*
X174777293Y-62385823D01*
X174756957Y-62348715D01*
X174754933Y-62345021D01*
X174697740Y-62267398D01*
X174694421Y-62262668D01*
X174644932Y-62188602D01*
X174644928Y-62188597D01*
X174642633Y-62185162D01*
X174611840Y-62150049D01*
X174605145Y-62141726D01*
X174578067Y-62104975D01*
X174578059Y-62104966D01*
X174575569Y-62101586D01*
X174510842Y-62034659D01*
X174506707Y-62030168D01*
X174450142Y-61965668D01*
X174450135Y-61965661D01*
X174447427Y-61962573D01*
X174444338Y-61959864D01*
X174444331Y-61959857D01*
X174409819Y-61929591D01*
X174402330Y-61922459D01*
X174365358Y-61884230D01*
X174294924Y-61828608D01*
X174289936Y-61824456D01*
X174227943Y-61770090D01*
X174227942Y-61770089D01*
X174224838Y-61767367D01*
X174221405Y-61765073D01*
X174221404Y-61765072D01*
X174180482Y-61737729D01*
X174172396Y-61731849D01*
X174131360Y-61699443D01*
X174131357Y-61699441D01*
X174128052Y-61696831D01*
X174124428Y-61694684D01*
X174124420Y-61694679D01*
X174053691Y-61652786D01*
X174047902Y-61649142D01*
X174001011Y-61617811D01*
X173978673Y-61602885D01*
X173974974Y-61601061D01*
X173974964Y-61601055D01*
X173927847Y-61577820D01*
X173919363Y-61573224D01*
X173871522Y-61544887D01*
X173871503Y-61544877D01*
X173867886Y-61542735D01*
X173791371Y-61510290D01*
X173784864Y-61507309D01*
X173713145Y-61471941D01*
X173709239Y-61470615D01*
X173656323Y-61452651D01*
X173647640Y-61449342D01*
X173643857Y-61447738D01*
X173589502Y-61424690D01*
X173585438Y-61423576D01*
X173585436Y-61423576D01*
X173512554Y-61403611D01*
X173505350Y-61401403D01*
X173432797Y-61376776D01*
X173428757Y-61375972D01*
X173428737Y-61375967D01*
X173370684Y-61364419D01*
X173361981Y-61362365D01*
X173348141Y-61358574D01*
X173297868Y-61344803D01*
X173293708Y-61344243D01*
X173293701Y-61344242D01*
X173222089Y-61334611D01*
X173214305Y-61333314D01*
X173146474Y-61319822D01*
X173146471Y-61319821D01*
X173142426Y-61319017D01*
X173138308Y-61318747D01*
X173075921Y-61314657D01*
X173067372Y-61313803D01*
X173002369Y-61305062D01*
X173002367Y-61305061D01*
X172998189Y-61304500D01*
X172993972Y-61304500D01*
X172925059Y-61304500D01*
X172916818Y-61304230D01*
X172851120Y-61299924D01*
X172851119Y-61299924D01*
X172847000Y-61299654D01*
X172842881Y-61299924D01*
X172842879Y-61299924D01*
X172774535Y-61304403D01*
X172772576Y-61304500D01*
X172771489Y-61304500D01*
X172769413Y-61304638D01*
X172769411Y-61304639D01*
X172697822Y-61309431D01*
X172554815Y-61318804D01*
X172554798Y-61318805D01*
X172551574Y-61319017D01*
X172550485Y-61319232D01*
X172550303Y-61319251D01*
X172549487Y-61319360D01*
X172545298Y-61319642D01*
X172541177Y-61320479D01*
X172541174Y-61320480D01*
X172401753Y-61348818D01*
X172265247Y-61375971D01*
X172265238Y-61375973D01*
X172261203Y-61376776D01*
X172258085Y-61377834D01*
X172253780Y-61378847D01*
X172253101Y-61379032D01*
X172248979Y-61379871D01*
X172245000Y-61381252D01*
X172244995Y-61381254D01*
X172113497Y-61426915D01*
X171984759Y-61470615D01*
X171984748Y-61470619D01*
X171980855Y-61471941D01*
X171977158Y-61473763D01*
X171973346Y-61475343D01*
X171979362Y-61472660D01*
X171970868Y-61476155D01*
X171971191Y-61476031D01*
X171967312Y-61477675D01*
X171963332Y-61479058D01*
X171959571Y-61480958D01*
X171959565Y-61480961D01*
X171838184Y-61542298D01*
X171719022Y-61601062D01*
X171719012Y-61601067D01*
X171715327Y-61602885D01*
X171711900Y-61605174D01*
X171708332Y-61607235D01*
X171709013Y-61606811D01*
X171699341Y-61612458D01*
X171697213Y-61613533D01*
X171697191Y-61613545D01*
X171693455Y-61615434D01*
X171690000Y-61617805D01*
X171689991Y-61617811D01*
X171580465Y-61692996D01*
X171472594Y-61765073D01*
X171472586Y-61765079D01*
X171469162Y-61767367D01*
X171466066Y-61770081D01*
X171466053Y-61770092D01*
X171464080Y-61771823D01*
X171452339Y-61780949D01*
X171447636Y-61784177D01*
X171447624Y-61784186D01*
X171444162Y-61786563D01*
X171441040Y-61789386D01*
X171441037Y-61789389D01*
X171344836Y-61876397D01*
X171249674Y-61959853D01*
X171249670Y-61959856D01*
X171246573Y-61962573D01*
X171243856Y-61965671D01*
X171239924Y-61970154D01*
X171229726Y-61980508D01*
X171223032Y-61986563D01*
X171223026Y-61986568D01*
X171219903Y-61989394D01*
X171217191Y-61992600D01*
X171217181Y-61992612D01*
X171135485Y-62089244D01*
X171054084Y-62182063D01*
X171054078Y-62182069D01*
X171051367Y-62185162D01*
X171049080Y-62188583D01*
X171049071Y-62188596D01*
X171043910Y-62196319D01*
X171035381Y-62207645D01*
X171027404Y-62217082D01*
X171027399Y-62217087D01*
X171024680Y-62220305D01*
X171022417Y-62223849D01*
X171022408Y-62223862D01*
X170956735Y-62326735D01*
X170955298Y-62328935D01*
X170889177Y-62427894D01*
X170889165Y-62427914D01*
X170886885Y-62431327D01*
X170885068Y-62435009D01*
X170885057Y-62435030D01*
X170879475Y-62446348D01*
X170872686Y-62458397D01*
X170864236Y-62471635D01*
X170864230Y-62471645D01*
X170861976Y-62475177D01*
X170860210Y-62478982D01*
X170860207Y-62478988D01*
X170810209Y-62586729D01*
X170808922Y-62589417D01*
X170757770Y-62693143D01*
X170757761Y-62693162D01*
X170755941Y-62696855D01*
X170754616Y-62700757D01*
X170754611Y-62700770D01*
X170749490Y-62715855D01*
X170744475Y-62728380D01*
X170736464Y-62745644D01*
X170736458Y-62745658D01*
X170734694Y-62749461D01*
X170733452Y-62753463D01*
X170733446Y-62753480D01*
X170699234Y-62863764D01*
X170698206Y-62866930D01*
X170662103Y-62973289D01*
X170662097Y-62973311D01*
X170660776Y-62977203D01*
X170659972Y-62981241D01*
X170659969Y-62981255D01*
X170656210Y-63000151D01*
X170652977Y-63012889D01*
X170646354Y-63034241D01*
X170645107Y-63038262D01*
X170644409Y-63042398D01*
X170644406Y-63042412D01*
X170625754Y-63152985D01*
X170625088Y-63156606D01*
X170603822Y-63263522D01*
X170603820Y-63263536D01*
X170603017Y-63267574D01*
X170602747Y-63271688D01*
X170602747Y-63271690D01*
X170601267Y-63294253D01*
X170599783Y-63306955D01*
X170595514Y-63332270D01*
X170594813Y-63336428D01*
X170594672Y-63340634D01*
X170594672Y-63340638D01*
X170591035Y-63449389D01*
X170590835Y-63453416D01*
X170583924Y-63558878D01*
X170583654Y-63563000D01*
X162687000Y-63563000D01*
X162687000Y-55244000D01*
X162707002Y-55175879D01*
X162760658Y-55129386D01*
X162813000Y-55118000D01*
X182246000Y-55118000D01*
X182314121Y-55138002D01*
G37*
%TD.AperFunction*%
%TD*%
D27*
X197612000Y-44323000D02*
X71882000Y-44323000D01*
X77724000Y-67691000D02*
G75*
G03*
X77724000Y-67691000I-1270000J0D01*
G01*
X77724000Y-120015000D02*
G75*
G03*
X77724000Y-120015000I-1270000J0D01*
G01*
X78867000Y-48768000D02*
G75*
G03*
X78867000Y-48768000I-1905000J0D01*
G01*
X123317000Y-138303000D02*
G75*
G03*
X123317000Y-138303000I-1905000J0D01*
G01*
X197612000Y-143383000D02*
X197612000Y-44323000D01*
X71882000Y-44323000D02*
X71882000Y-143383000D01*
X123317000Y-48768000D02*
G75*
G03*
X123317000Y-48768000I-1905000J0D01*
G01*
X71882000Y-143383000D02*
X197612000Y-143383000D01*
X78867000Y-138303000D02*
G75*
G03*
X78867000Y-138303000I-1905000J0D01*
G01*
M02*
