%TF.GenerationSoftware,KiCad,Pcbnew,7.0.2-6a45011f42~172~ubuntu22.04.1*%
%TF.CreationDate,2023-05-20T19:06:32+02:00*%
%TF.ProjectId,qdisk_v4,71646973-6b5f-4763-942e-6b696361645f,00*%
%TF.SameCoordinates,Original*%
%TF.FileFunction,Legend,Bot*%
%TF.FilePolarity,Positive*%
%FSLAX46Y46*%
G04 Gerber Fmt 4.6, Leading zero omitted, Abs format (unit mm)*
G04 Created by KiCad (PCBNEW 7.0.2-6a45011f42~172~ubuntu22.04.1) date 2023-05-20 19:06:32*
%MOMM*%
%LPD*%
G01*
G04 APERTURE LIST*
%ADD10C,0.150000*%
%TA.AperFunction,Profile*%
%ADD11C,0.050000*%
%TD*%
G04 APERTURE END LIST*
D10*
X107282001Y-46515619D02*
X107758191Y-46515619D01*
X107758191Y-46515619D02*
X107758191Y-45515619D01*
X106948667Y-46515619D02*
X106948667Y-45848952D01*
X106948667Y-45515619D02*
X106996286Y-45563238D01*
X106996286Y-45563238D02*
X106948667Y-45610857D01*
X106948667Y-45610857D02*
X106901048Y-45563238D01*
X106901048Y-45563238D02*
X106948667Y-45515619D01*
X106948667Y-45515619D02*
X106948667Y-45610857D01*
X106043906Y-46468000D02*
X106139144Y-46515619D01*
X106139144Y-46515619D02*
X106329620Y-46515619D01*
X106329620Y-46515619D02*
X106424858Y-46468000D01*
X106424858Y-46468000D02*
X106472477Y-46420380D01*
X106472477Y-46420380D02*
X106520096Y-46325142D01*
X106520096Y-46325142D02*
X106520096Y-46039428D01*
X106520096Y-46039428D02*
X106472477Y-45944190D01*
X106472477Y-45944190D02*
X106424858Y-45896571D01*
X106424858Y-45896571D02*
X106329620Y-45848952D01*
X106329620Y-45848952D02*
X106139144Y-45848952D01*
X106139144Y-45848952D02*
X106043906Y-45896571D01*
X105234382Y-46468000D02*
X105329620Y-46515619D01*
X105329620Y-46515619D02*
X105520096Y-46515619D01*
X105520096Y-46515619D02*
X105615334Y-46468000D01*
X105615334Y-46468000D02*
X105662953Y-46372761D01*
X105662953Y-46372761D02*
X105662953Y-45991809D01*
X105662953Y-45991809D02*
X105615334Y-45896571D01*
X105615334Y-45896571D02*
X105520096Y-45848952D01*
X105520096Y-45848952D02*
X105329620Y-45848952D01*
X105329620Y-45848952D02*
X105234382Y-45896571D01*
X105234382Y-45896571D02*
X105186763Y-45991809D01*
X105186763Y-45991809D02*
X105186763Y-46087047D01*
X105186763Y-46087047D02*
X105662953Y-46182285D01*
X104758191Y-45848952D02*
X104758191Y-46515619D01*
X104758191Y-45944190D02*
X104710572Y-45896571D01*
X104710572Y-45896571D02*
X104615334Y-45848952D01*
X104615334Y-45848952D02*
X104472477Y-45848952D01*
X104472477Y-45848952D02*
X104377239Y-45896571D01*
X104377239Y-45896571D02*
X104329620Y-45991809D01*
X104329620Y-45991809D02*
X104329620Y-46515619D01*
X103901048Y-46468000D02*
X103805810Y-46515619D01*
X103805810Y-46515619D02*
X103615334Y-46515619D01*
X103615334Y-46515619D02*
X103520096Y-46468000D01*
X103520096Y-46468000D02*
X103472477Y-46372761D01*
X103472477Y-46372761D02*
X103472477Y-46325142D01*
X103472477Y-46325142D02*
X103520096Y-46229904D01*
X103520096Y-46229904D02*
X103615334Y-46182285D01*
X103615334Y-46182285D02*
X103758191Y-46182285D01*
X103758191Y-46182285D02*
X103853429Y-46134666D01*
X103853429Y-46134666D02*
X103901048Y-46039428D01*
X103901048Y-46039428D02*
X103901048Y-45991809D01*
X103901048Y-45991809D02*
X103853429Y-45896571D01*
X103853429Y-45896571D02*
X103758191Y-45848952D01*
X103758191Y-45848952D02*
X103615334Y-45848952D01*
X103615334Y-45848952D02*
X103520096Y-45896571D01*
X102662953Y-46468000D02*
X102758191Y-46515619D01*
X102758191Y-46515619D02*
X102948667Y-46515619D01*
X102948667Y-46515619D02*
X103043905Y-46468000D01*
X103043905Y-46468000D02*
X103091524Y-46372761D01*
X103091524Y-46372761D02*
X103091524Y-45991809D01*
X103091524Y-45991809D02*
X103043905Y-45896571D01*
X103043905Y-45896571D02*
X102948667Y-45848952D01*
X102948667Y-45848952D02*
X102758191Y-45848952D01*
X102758191Y-45848952D02*
X102662953Y-45896571D01*
X102662953Y-45896571D02*
X102615334Y-45991809D01*
X102615334Y-45991809D02*
X102615334Y-46087047D01*
X102615334Y-46087047D02*
X103091524Y-46182285D01*
X101758191Y-46515619D02*
X101758191Y-45515619D01*
X101758191Y-46468000D02*
X101853429Y-46515619D01*
X101853429Y-46515619D02*
X102043905Y-46515619D01*
X102043905Y-46515619D02*
X102139143Y-46468000D01*
X102139143Y-46468000D02*
X102186762Y-46420380D01*
X102186762Y-46420380D02*
X102234381Y-46325142D01*
X102234381Y-46325142D02*
X102234381Y-46039428D01*
X102234381Y-46039428D02*
X102186762Y-45944190D01*
X102186762Y-45944190D02*
X102139143Y-45896571D01*
X102139143Y-45896571D02*
X102043905Y-45848952D01*
X102043905Y-45848952D02*
X101853429Y-45848952D01*
X101853429Y-45848952D02*
X101758191Y-45896571D01*
X100091524Y-45848952D02*
X100091524Y-46515619D01*
X100520095Y-45848952D02*
X100520095Y-46372761D01*
X100520095Y-46372761D02*
X100472476Y-46468000D01*
X100472476Y-46468000D02*
X100377238Y-46515619D01*
X100377238Y-46515619D02*
X100234381Y-46515619D01*
X100234381Y-46515619D02*
X100139143Y-46468000D01*
X100139143Y-46468000D02*
X100091524Y-46420380D01*
X99615333Y-45848952D02*
X99615333Y-46515619D01*
X99615333Y-45944190D02*
X99567714Y-45896571D01*
X99567714Y-45896571D02*
X99472476Y-45848952D01*
X99472476Y-45848952D02*
X99329619Y-45848952D01*
X99329619Y-45848952D02*
X99234381Y-45896571D01*
X99234381Y-45896571D02*
X99186762Y-45991809D01*
X99186762Y-45991809D02*
X99186762Y-46515619D01*
X98282000Y-46515619D02*
X98282000Y-45515619D01*
X98282000Y-46468000D02*
X98377238Y-46515619D01*
X98377238Y-46515619D02*
X98567714Y-46515619D01*
X98567714Y-46515619D02*
X98662952Y-46468000D01*
X98662952Y-46468000D02*
X98710571Y-46420380D01*
X98710571Y-46420380D02*
X98758190Y-46325142D01*
X98758190Y-46325142D02*
X98758190Y-46039428D01*
X98758190Y-46039428D02*
X98710571Y-45944190D01*
X98710571Y-45944190D02*
X98662952Y-45896571D01*
X98662952Y-45896571D02*
X98567714Y-45848952D01*
X98567714Y-45848952D02*
X98377238Y-45848952D01*
X98377238Y-45848952D02*
X98282000Y-45896571D01*
X97424857Y-46468000D02*
X97520095Y-46515619D01*
X97520095Y-46515619D02*
X97710571Y-46515619D01*
X97710571Y-46515619D02*
X97805809Y-46468000D01*
X97805809Y-46468000D02*
X97853428Y-46372761D01*
X97853428Y-46372761D02*
X97853428Y-45991809D01*
X97853428Y-45991809D02*
X97805809Y-45896571D01*
X97805809Y-45896571D02*
X97710571Y-45848952D01*
X97710571Y-45848952D02*
X97520095Y-45848952D01*
X97520095Y-45848952D02*
X97424857Y-45896571D01*
X97424857Y-45896571D02*
X97377238Y-45991809D01*
X97377238Y-45991809D02*
X97377238Y-46087047D01*
X97377238Y-46087047D02*
X97853428Y-46182285D01*
X96948666Y-46515619D02*
X96948666Y-45848952D01*
X96948666Y-46039428D02*
X96901047Y-45944190D01*
X96901047Y-45944190D02*
X96853428Y-45896571D01*
X96853428Y-45896571D02*
X96758190Y-45848952D01*
X96758190Y-45848952D02*
X96662952Y-45848952D01*
X94996285Y-46420380D02*
X95043904Y-46468000D01*
X95043904Y-46468000D02*
X95186761Y-46515619D01*
X95186761Y-46515619D02*
X95281999Y-46515619D01*
X95281999Y-46515619D02*
X95424856Y-46468000D01*
X95424856Y-46468000D02*
X95520094Y-46372761D01*
X95520094Y-46372761D02*
X95567713Y-46277523D01*
X95567713Y-46277523D02*
X95615332Y-46087047D01*
X95615332Y-46087047D02*
X95615332Y-45944190D01*
X95615332Y-45944190D02*
X95567713Y-45753714D01*
X95567713Y-45753714D02*
X95520094Y-45658476D01*
X95520094Y-45658476D02*
X95424856Y-45563238D01*
X95424856Y-45563238D02*
X95281999Y-45515619D01*
X95281999Y-45515619D02*
X95186761Y-45515619D01*
X95186761Y-45515619D02*
X95043904Y-45563238D01*
X95043904Y-45563238D02*
X94996285Y-45610857D01*
X94186761Y-46468000D02*
X94281999Y-46515619D01*
X94281999Y-46515619D02*
X94472475Y-46515619D01*
X94472475Y-46515619D02*
X94567713Y-46468000D01*
X94567713Y-46468000D02*
X94615332Y-46372761D01*
X94615332Y-46372761D02*
X94615332Y-45991809D01*
X94615332Y-45991809D02*
X94567713Y-45896571D01*
X94567713Y-45896571D02*
X94472475Y-45848952D01*
X94472475Y-45848952D02*
X94281999Y-45848952D01*
X94281999Y-45848952D02*
X94186761Y-45896571D01*
X94186761Y-45896571D02*
X94139142Y-45991809D01*
X94139142Y-45991809D02*
X94139142Y-46087047D01*
X94139142Y-46087047D02*
X94615332Y-46182285D01*
X93710570Y-46515619D02*
X93710570Y-45848952D01*
X93710570Y-46039428D02*
X93662951Y-45944190D01*
X93662951Y-45944190D02*
X93615332Y-45896571D01*
X93615332Y-45896571D02*
X93520094Y-45848952D01*
X93520094Y-45848952D02*
X93424856Y-45848952D01*
X93091522Y-45848952D02*
X93091522Y-46515619D01*
X93091522Y-45944190D02*
X93043903Y-45896571D01*
X93043903Y-45896571D02*
X92948665Y-45848952D01*
X92948665Y-45848952D02*
X92805808Y-45848952D01*
X92805808Y-45848952D02*
X92710570Y-45896571D01*
X92710570Y-45896571D02*
X92662951Y-45991809D01*
X92662951Y-45991809D02*
X92662951Y-46515619D01*
X91234379Y-45515619D02*
X91043903Y-45515619D01*
X91043903Y-45515619D02*
X90948665Y-45563238D01*
X90948665Y-45563238D02*
X90853427Y-45658476D01*
X90853427Y-45658476D02*
X90805808Y-45848952D01*
X90805808Y-45848952D02*
X90805808Y-46182285D01*
X90805808Y-46182285D02*
X90853427Y-46372761D01*
X90853427Y-46372761D02*
X90948665Y-46468000D01*
X90948665Y-46468000D02*
X91043903Y-46515619D01*
X91043903Y-46515619D02*
X91234379Y-46515619D01*
X91234379Y-46515619D02*
X91329617Y-46468000D01*
X91329617Y-46468000D02*
X91424855Y-46372761D01*
X91424855Y-46372761D02*
X91472474Y-46182285D01*
X91472474Y-46182285D02*
X91472474Y-45848952D01*
X91472474Y-45848952D02*
X91424855Y-45658476D01*
X91424855Y-45658476D02*
X91329617Y-45563238D01*
X91329617Y-45563238D02*
X91234379Y-45515619D01*
X90377236Y-46515619D02*
X90377236Y-45515619D01*
X90377236Y-45991809D02*
X89805808Y-45991809D01*
X89805808Y-46515619D02*
X89805808Y-45515619D01*
X88853427Y-46515619D02*
X89329617Y-46515619D01*
X89329617Y-46515619D02*
X89329617Y-45515619D01*
X88520093Y-46134666D02*
X87758189Y-46134666D01*
X87329617Y-46468000D02*
X87186760Y-46515619D01*
X87186760Y-46515619D02*
X86948665Y-46515619D01*
X86948665Y-46515619D02*
X86853427Y-46468000D01*
X86853427Y-46468000D02*
X86805808Y-46420380D01*
X86805808Y-46420380D02*
X86758189Y-46325142D01*
X86758189Y-46325142D02*
X86758189Y-46229904D01*
X86758189Y-46229904D02*
X86805808Y-46134666D01*
X86805808Y-46134666D02*
X86853427Y-46087047D01*
X86853427Y-46087047D02*
X86948665Y-46039428D01*
X86948665Y-46039428D02*
X87139141Y-45991809D01*
X87139141Y-45991809D02*
X87234379Y-45944190D01*
X87234379Y-45944190D02*
X87281998Y-45896571D01*
X87281998Y-45896571D02*
X87329617Y-45801333D01*
X87329617Y-45801333D02*
X87329617Y-45706095D01*
X87329617Y-45706095D02*
X87281998Y-45610857D01*
X87281998Y-45610857D02*
X87234379Y-45563238D01*
X87234379Y-45563238D02*
X87139141Y-45515619D01*
X87139141Y-45515619D02*
X86901046Y-45515619D01*
X86901046Y-45515619D02*
X86758189Y-45563238D01*
X110329620Y-48135619D02*
X110329620Y-47135619D01*
X109901049Y-48135619D02*
X109901049Y-47611809D01*
X109901049Y-47611809D02*
X109948668Y-47516571D01*
X109948668Y-47516571D02*
X110043906Y-47468952D01*
X110043906Y-47468952D02*
X110186763Y-47468952D01*
X110186763Y-47468952D02*
X110282001Y-47516571D01*
X110282001Y-47516571D02*
X110329620Y-47564190D01*
X109567715Y-47468952D02*
X109186763Y-47468952D01*
X109424858Y-47135619D02*
X109424858Y-47992761D01*
X109424858Y-47992761D02*
X109377239Y-48088000D01*
X109377239Y-48088000D02*
X109282001Y-48135619D01*
X109282001Y-48135619D02*
X109186763Y-48135619D01*
X108996286Y-47468952D02*
X108615334Y-47468952D01*
X108853429Y-47135619D02*
X108853429Y-47992761D01*
X108853429Y-47992761D02*
X108805810Y-48088000D01*
X108805810Y-48088000D02*
X108710572Y-48135619D01*
X108710572Y-48135619D02*
X108615334Y-48135619D01*
X108282000Y-47468952D02*
X108282000Y-48468952D01*
X108282000Y-47516571D02*
X108186762Y-47468952D01*
X108186762Y-47468952D02*
X107996286Y-47468952D01*
X107996286Y-47468952D02*
X107901048Y-47516571D01*
X107901048Y-47516571D02*
X107853429Y-47564190D01*
X107853429Y-47564190D02*
X107805810Y-47659428D01*
X107805810Y-47659428D02*
X107805810Y-47945142D01*
X107805810Y-47945142D02*
X107853429Y-48040380D01*
X107853429Y-48040380D02*
X107901048Y-48088000D01*
X107901048Y-48088000D02*
X107996286Y-48135619D01*
X107996286Y-48135619D02*
X108186762Y-48135619D01*
X108186762Y-48135619D02*
X108282000Y-48088000D01*
X107424857Y-48088000D02*
X107329619Y-48135619D01*
X107329619Y-48135619D02*
X107139143Y-48135619D01*
X107139143Y-48135619D02*
X107043905Y-48088000D01*
X107043905Y-48088000D02*
X106996286Y-47992761D01*
X106996286Y-47992761D02*
X106996286Y-47945142D01*
X106996286Y-47945142D02*
X107043905Y-47849904D01*
X107043905Y-47849904D02*
X107139143Y-47802285D01*
X107139143Y-47802285D02*
X107282000Y-47802285D01*
X107282000Y-47802285D02*
X107377238Y-47754666D01*
X107377238Y-47754666D02*
X107424857Y-47659428D01*
X107424857Y-47659428D02*
X107424857Y-47611809D01*
X107424857Y-47611809D02*
X107377238Y-47516571D01*
X107377238Y-47516571D02*
X107282000Y-47468952D01*
X107282000Y-47468952D02*
X107139143Y-47468952D01*
X107139143Y-47468952D02*
X107043905Y-47516571D01*
X106567714Y-48040380D02*
X106520095Y-48088000D01*
X106520095Y-48088000D02*
X106567714Y-48135619D01*
X106567714Y-48135619D02*
X106615333Y-48088000D01*
X106615333Y-48088000D02*
X106567714Y-48040380D01*
X106567714Y-48040380D02*
X106567714Y-48135619D01*
X106567714Y-47516571D02*
X106520095Y-47564190D01*
X106520095Y-47564190D02*
X106567714Y-47611809D01*
X106567714Y-47611809D02*
X106615333Y-47564190D01*
X106615333Y-47564190D02*
X106567714Y-47516571D01*
X106567714Y-47516571D02*
X106567714Y-47611809D01*
X105377239Y-47088000D02*
X106234381Y-48373714D01*
X104329620Y-47088000D02*
X105186762Y-48373714D01*
X103853429Y-48135619D02*
X103948667Y-48088000D01*
X103948667Y-48088000D02*
X103996286Y-48040380D01*
X103996286Y-48040380D02*
X104043905Y-47945142D01*
X104043905Y-47945142D02*
X104043905Y-47659428D01*
X104043905Y-47659428D02*
X103996286Y-47564190D01*
X103996286Y-47564190D02*
X103948667Y-47516571D01*
X103948667Y-47516571D02*
X103853429Y-47468952D01*
X103853429Y-47468952D02*
X103710572Y-47468952D01*
X103710572Y-47468952D02*
X103615334Y-47516571D01*
X103615334Y-47516571D02*
X103567715Y-47564190D01*
X103567715Y-47564190D02*
X103520096Y-47659428D01*
X103520096Y-47659428D02*
X103520096Y-47945142D01*
X103520096Y-47945142D02*
X103567715Y-48040380D01*
X103567715Y-48040380D02*
X103615334Y-48088000D01*
X103615334Y-48088000D02*
X103710572Y-48135619D01*
X103710572Y-48135619D02*
X103853429Y-48135619D01*
X103091524Y-48135619D02*
X103091524Y-47135619D01*
X102662953Y-48135619D02*
X102662953Y-47611809D01*
X102662953Y-47611809D02*
X102710572Y-47516571D01*
X102710572Y-47516571D02*
X102805810Y-47468952D01*
X102805810Y-47468952D02*
X102948667Y-47468952D01*
X102948667Y-47468952D02*
X103043905Y-47516571D01*
X103043905Y-47516571D02*
X103091524Y-47564190D01*
X102282000Y-47468952D02*
X102091524Y-48135619D01*
X102091524Y-48135619D02*
X101901048Y-47659428D01*
X101901048Y-47659428D02*
X101710572Y-48135619D01*
X101710572Y-48135619D02*
X101520096Y-47468952D01*
X101139143Y-48135619D02*
X101139143Y-47468952D01*
X101139143Y-47659428D02*
X101091524Y-47564190D01*
X101091524Y-47564190D02*
X101043905Y-47516571D01*
X101043905Y-47516571D02*
X100948667Y-47468952D01*
X100948667Y-47468952D02*
X100853429Y-47468952D01*
X100520095Y-48040380D02*
X100472476Y-48088000D01*
X100472476Y-48088000D02*
X100520095Y-48135619D01*
X100520095Y-48135619D02*
X100567714Y-48088000D01*
X100567714Y-48088000D02*
X100520095Y-48040380D01*
X100520095Y-48040380D02*
X100520095Y-48135619D01*
X99901048Y-48135619D02*
X99996286Y-48088000D01*
X99996286Y-48088000D02*
X100043905Y-48040380D01*
X100043905Y-48040380D02*
X100091524Y-47945142D01*
X100091524Y-47945142D02*
X100091524Y-47659428D01*
X100091524Y-47659428D02*
X100043905Y-47564190D01*
X100043905Y-47564190D02*
X99996286Y-47516571D01*
X99996286Y-47516571D02*
X99901048Y-47468952D01*
X99901048Y-47468952D02*
X99758191Y-47468952D01*
X99758191Y-47468952D02*
X99662953Y-47516571D01*
X99662953Y-47516571D02*
X99615334Y-47564190D01*
X99615334Y-47564190D02*
X99567715Y-47659428D01*
X99567715Y-47659428D02*
X99567715Y-47945142D01*
X99567715Y-47945142D02*
X99615334Y-48040380D01*
X99615334Y-48040380D02*
X99662953Y-48088000D01*
X99662953Y-48088000D02*
X99758191Y-48135619D01*
X99758191Y-48135619D02*
X99901048Y-48135619D01*
X99139143Y-48135619D02*
X99139143Y-47468952D01*
X99139143Y-47659428D02*
X99091524Y-47564190D01*
X99091524Y-47564190D02*
X99043905Y-47516571D01*
X99043905Y-47516571D02*
X98948667Y-47468952D01*
X98948667Y-47468952D02*
X98853429Y-47468952D01*
X98091524Y-47468952D02*
X98091524Y-48278476D01*
X98091524Y-48278476D02*
X98139143Y-48373714D01*
X98139143Y-48373714D02*
X98186762Y-48421333D01*
X98186762Y-48421333D02*
X98282000Y-48468952D01*
X98282000Y-48468952D02*
X98424857Y-48468952D01*
X98424857Y-48468952D02*
X98520095Y-48421333D01*
X98091524Y-48088000D02*
X98186762Y-48135619D01*
X98186762Y-48135619D02*
X98377238Y-48135619D01*
X98377238Y-48135619D02*
X98472476Y-48088000D01*
X98472476Y-48088000D02*
X98520095Y-48040380D01*
X98520095Y-48040380D02*
X98567714Y-47945142D01*
X98567714Y-47945142D02*
X98567714Y-47659428D01*
X98567714Y-47659428D02*
X98520095Y-47564190D01*
X98520095Y-47564190D02*
X98472476Y-47516571D01*
X98472476Y-47516571D02*
X98377238Y-47468952D01*
X98377238Y-47468952D02*
X98186762Y-47468952D01*
X98186762Y-47468952D02*
X98091524Y-47516571D01*
X96901048Y-47088000D02*
X97758190Y-48373714D01*
X96139143Y-48088000D02*
X96234381Y-48135619D01*
X96234381Y-48135619D02*
X96424857Y-48135619D01*
X96424857Y-48135619D02*
X96520095Y-48088000D01*
X96520095Y-48088000D02*
X96567714Y-48040380D01*
X96567714Y-48040380D02*
X96615333Y-47945142D01*
X96615333Y-47945142D02*
X96615333Y-47659428D01*
X96615333Y-47659428D02*
X96567714Y-47564190D01*
X96567714Y-47564190D02*
X96520095Y-47516571D01*
X96520095Y-47516571D02*
X96424857Y-47468952D01*
X96424857Y-47468952D02*
X96234381Y-47468952D01*
X96234381Y-47468952D02*
X96139143Y-47516571D01*
X95329619Y-48088000D02*
X95424857Y-48135619D01*
X95424857Y-48135619D02*
X95615333Y-48135619D01*
X95615333Y-48135619D02*
X95710571Y-48088000D01*
X95710571Y-48088000D02*
X95758190Y-47992761D01*
X95758190Y-47992761D02*
X95758190Y-47611809D01*
X95758190Y-47611809D02*
X95710571Y-47516571D01*
X95710571Y-47516571D02*
X95615333Y-47468952D01*
X95615333Y-47468952D02*
X95424857Y-47468952D01*
X95424857Y-47468952D02*
X95329619Y-47516571D01*
X95329619Y-47516571D02*
X95282000Y-47611809D01*
X95282000Y-47611809D02*
X95282000Y-47707047D01*
X95282000Y-47707047D02*
X95758190Y-47802285D01*
X94853428Y-48135619D02*
X94853428Y-47468952D01*
X94853428Y-47659428D02*
X94805809Y-47564190D01*
X94805809Y-47564190D02*
X94758190Y-47516571D01*
X94758190Y-47516571D02*
X94662952Y-47468952D01*
X94662952Y-47468952D02*
X94567714Y-47468952D01*
X94234380Y-47468952D02*
X94234380Y-48135619D01*
X94234380Y-47564190D02*
X94186761Y-47516571D01*
X94186761Y-47516571D02*
X94091523Y-47468952D01*
X94091523Y-47468952D02*
X93948666Y-47468952D01*
X93948666Y-47468952D02*
X93853428Y-47516571D01*
X93853428Y-47516571D02*
X93805809Y-47611809D01*
X93805809Y-47611809D02*
X93805809Y-48135619D01*
X93567714Y-48230857D02*
X92805809Y-48230857D01*
X92424856Y-48135619D02*
X92520094Y-48088000D01*
X92520094Y-48088000D02*
X92567713Y-48040380D01*
X92567713Y-48040380D02*
X92615332Y-47945142D01*
X92615332Y-47945142D02*
X92615332Y-47659428D01*
X92615332Y-47659428D02*
X92567713Y-47564190D01*
X92567713Y-47564190D02*
X92520094Y-47516571D01*
X92520094Y-47516571D02*
X92424856Y-47468952D01*
X92424856Y-47468952D02*
X92281999Y-47468952D01*
X92281999Y-47468952D02*
X92186761Y-47516571D01*
X92186761Y-47516571D02*
X92139142Y-47564190D01*
X92139142Y-47564190D02*
X92091523Y-47659428D01*
X92091523Y-47659428D02*
X92091523Y-47945142D01*
X92091523Y-47945142D02*
X92139142Y-48040380D01*
X92139142Y-48040380D02*
X92186761Y-48088000D01*
X92186761Y-48088000D02*
X92281999Y-48135619D01*
X92281999Y-48135619D02*
X92424856Y-48135619D01*
X91662951Y-48135619D02*
X91662951Y-47135619D01*
X91234380Y-48135619D02*
X91234380Y-47611809D01*
X91234380Y-47611809D02*
X91281999Y-47516571D01*
X91281999Y-47516571D02*
X91377237Y-47468952D01*
X91377237Y-47468952D02*
X91520094Y-47468952D01*
X91520094Y-47468952D02*
X91615332Y-47516571D01*
X91615332Y-47516571D02*
X91662951Y-47564190D01*
X90615332Y-48135619D02*
X90710570Y-48088000D01*
X90710570Y-48088000D02*
X90758189Y-47992761D01*
X90758189Y-47992761D02*
X90758189Y-47135619D01*
X90472475Y-48230857D02*
X89710570Y-48230857D01*
X89520093Y-48088000D02*
X89424855Y-48135619D01*
X89424855Y-48135619D02*
X89234379Y-48135619D01*
X89234379Y-48135619D02*
X89139141Y-48088000D01*
X89139141Y-48088000D02*
X89091522Y-47992761D01*
X89091522Y-47992761D02*
X89091522Y-47945142D01*
X89091522Y-47945142D02*
X89139141Y-47849904D01*
X89139141Y-47849904D02*
X89234379Y-47802285D01*
X89234379Y-47802285D02*
X89377236Y-47802285D01*
X89377236Y-47802285D02*
X89472474Y-47754666D01*
X89472474Y-47754666D02*
X89520093Y-47659428D01*
X89520093Y-47659428D02*
X89520093Y-47611809D01*
X89520093Y-47611809D02*
X89472474Y-47516571D01*
X89472474Y-47516571D02*
X89377236Y-47468952D01*
X89377236Y-47468952D02*
X89234379Y-47468952D01*
X89234379Y-47468952D02*
X89139141Y-47516571D01*
X88901046Y-48230857D02*
X88139141Y-48230857D01*
X87996283Y-47468952D02*
X87758188Y-48135619D01*
X87758188Y-48135619D02*
X87520093Y-47468952D01*
X87186759Y-47230857D02*
X87139140Y-47183238D01*
X87139140Y-47183238D02*
X87043902Y-47135619D01*
X87043902Y-47135619D02*
X86805807Y-47135619D01*
X86805807Y-47135619D02*
X86710569Y-47183238D01*
X86710569Y-47183238D02*
X86662950Y-47230857D01*
X86662950Y-47230857D02*
X86615331Y-47326095D01*
X86615331Y-47326095D02*
X86615331Y-47421333D01*
X86615331Y-47421333D02*
X86662950Y-47564190D01*
X86662950Y-47564190D02*
X87234378Y-48135619D01*
X87234378Y-48135619D02*
X86615331Y-48135619D01*
X86186759Y-48040380D02*
X86139140Y-48088000D01*
X86139140Y-48088000D02*
X86186759Y-48135619D01*
X86186759Y-48135619D02*
X86234378Y-48088000D01*
X86234378Y-48088000D02*
X86186759Y-48040380D01*
X86186759Y-48040380D02*
X86186759Y-48135619D01*
X85853426Y-47468952D02*
X85472474Y-47468952D01*
X85710569Y-47135619D02*
X85710569Y-47992761D01*
X85710569Y-47992761D02*
X85662950Y-48088000D01*
X85662950Y-48088000D02*
X85567712Y-48135619D01*
X85567712Y-48135619D02*
X85472474Y-48135619D01*
X85234378Y-48135619D02*
X84710569Y-47468952D01*
X85234378Y-47468952D02*
X84710569Y-48135619D01*
X84472473Y-47468952D02*
X84091521Y-47468952D01*
X84329616Y-47135619D02*
X84329616Y-47992761D01*
X84329616Y-47992761D02*
X84281997Y-48088000D01*
X84281997Y-48088000D02*
X84186759Y-48135619D01*
X84186759Y-48135619D02*
X84091521Y-48135619D01*
D11*
X197612000Y-44323000D02*
X71882000Y-44323000D01*
X77724000Y-67691000D02*
G75*
G03*
X77724000Y-67691000I-1270000J0D01*
G01*
X77724000Y-120015000D02*
G75*
G03*
X77724000Y-120015000I-1270000J0D01*
G01*
X78867000Y-48768000D02*
G75*
G03*
X78867000Y-48768000I-1905000J0D01*
G01*
X123317000Y-138303000D02*
G75*
G03*
X123317000Y-138303000I-1905000J0D01*
G01*
X197612000Y-143383000D02*
X197612000Y-44323000D01*
X71882000Y-44323000D02*
X71882000Y-143383000D01*
X123317000Y-48768000D02*
G75*
G03*
X123317000Y-48768000I-1905000J0D01*
G01*
X71882000Y-143383000D02*
X197612000Y-143383000D01*
X78867000Y-138303000D02*
G75*
G03*
X78867000Y-138303000I-1905000J0D01*
G01*
M02*
