%TF.GenerationSoftware,KiCad,Pcbnew,7.0.5-4d25ed1034~172~ubuntu22.04.1*%
%TF.CreationDate,2023-06-17T18:54:13+02:00*%
%TF.ProjectId,qdisk_v4,71646973-6b5f-4763-942e-6b696361645f,00*%
%TF.SameCoordinates,Original*%
%TF.FileFunction,Legend,Top*%
%TF.FilePolarity,Positive*%
%FSLAX46Y46*%
G04 Gerber Fmt 4.6, Leading zero omitted, Abs format (unit mm)*
G04 Created by KiCad (PCBNEW 7.0.5-4d25ed1034~172~ubuntu22.04.1) date 2023-06-17 18:54:13*
%MOMM*%
%LPD*%
G01*
G04 APERTURE LIST*
%ADD10C,0.120000*%
%ADD11C,0.500000*%
%ADD12C,0.600000*%
%ADD13C,0.300000*%
%ADD14C,0.150000*%
%ADD15C,0.400000*%
%TA.AperFunction,Profile*%
%ADD16C,0.050000*%
%TD*%
G04 APERTURE END LIST*
D10*
X85852000Y-57658000D02*
G75*
G03*
X85852000Y-64008000I0J-3175000D01*
G01*
X187452000Y-135763000D02*
X191262000Y-135763000D01*
X106807000Y-60833000D02*
G75*
G03*
X106807000Y-60833000I-3175000J0D01*
G01*
D11*
X115119764Y-63366881D02*
G75*
G03*
X116956251Y-61323440I-57764J1898881D01*
G01*
D12*
X87252525Y-63373000D02*
G75*
G03*
X89661719Y-60968880I-130525J2540000D01*
G01*
D11*
X109982000Y-63373000D02*
G75*
G03*
X109982000Y-59563000I0J1905000D01*
G01*
X118851830Y-59541489D02*
G75*
G03*
X116945503Y-61446500I20170J-1926511D01*
G01*
D10*
X94742000Y-59563000D02*
X94742000Y-63373000D01*
X87131002Y-62905224D02*
G75*
G03*
X89026998Y-60833000I-107802J2002124D01*
G01*
D12*
X105634143Y-62520083D02*
G75*
G03*
X104267000Y-63373000I-2002143J1687083D01*
G01*
D13*
X99822000Y-57023000D02*
G75*
G03*
X99822000Y-57023000I-127000J0D01*
G01*
D12*
X83310821Y-60853175D02*
G75*
G03*
X85772001Y-63373000I2541179J20175D01*
G01*
D10*
X162687000Y-55118000D02*
X182372000Y-55118000D01*
X182372000Y-74168000D01*
X162687000Y-74168000D01*
X162687000Y-55118000D01*
D12*
X105634143Y-62520083D02*
X106332371Y-63269904D01*
D13*
X99060000Y-57023000D02*
G75*
G03*
X99060000Y-57023000I-127000J0D01*
G01*
D12*
X94107000Y-58293000D02*
X96647000Y-58293000D01*
D10*
X105988719Y-63716653D02*
X105141042Y-62800245D01*
D12*
X85848466Y-58291743D02*
G75*
G03*
X83310821Y-60853175I3534J-2541257D01*
G01*
D11*
X113792000Y-63373000D02*
X113792000Y-59563000D01*
D10*
X92323970Y-57660344D02*
G75*
G03*
X89027000Y-60833000I-121970J-3172656D01*
G01*
D11*
X109982000Y-63373000D02*
X109982000Y-59563000D01*
D12*
X95377000Y-58293000D02*
X95377000Y-63373000D01*
D10*
X191262000Y-51943000D02*
X187452000Y-51943000D01*
X94107000Y-57658000D02*
X96647000Y-57658000D01*
X187452000Y-51943000D02*
X187452000Y-135763000D01*
D12*
X92330680Y-58299749D02*
G75*
G03*
X89661719Y-60968880I-460J-2668501D01*
G01*
D11*
X121347924Y-59564078D02*
G75*
G03*
X121412000Y-63373000I64076J-1903922D01*
G01*
D14*
X196161819Y-117124428D02*
X195685628Y-117457761D01*
X196161819Y-117695856D02*
X195161819Y-117695856D01*
X195161819Y-117695856D02*
X195161819Y-117314904D01*
X195161819Y-117314904D02*
X195209438Y-117219666D01*
X195209438Y-117219666D02*
X195257057Y-117172047D01*
X195257057Y-117172047D02*
X195352295Y-117124428D01*
X195352295Y-117124428D02*
X195495152Y-117124428D01*
X195495152Y-117124428D02*
X195590390Y-117172047D01*
X195590390Y-117172047D02*
X195638009Y-117219666D01*
X195638009Y-117219666D02*
X195685628Y-117314904D01*
X195685628Y-117314904D02*
X195685628Y-117695856D01*
X195638009Y-116695856D02*
X195638009Y-116362523D01*
X196161819Y-116219666D02*
X196161819Y-116695856D01*
X196161819Y-116695856D02*
X195161819Y-116695856D01*
X195161819Y-116695856D02*
X195161819Y-116219666D01*
X196161819Y-115791094D02*
X195161819Y-115791094D01*
X195161819Y-115791094D02*
X195876104Y-115457761D01*
X195876104Y-115457761D02*
X195161819Y-115124428D01*
X195161819Y-115124428D02*
X196161819Y-115124428D01*
X196161819Y-114648237D02*
X195161819Y-114648237D01*
X196161819Y-114172047D02*
X195161819Y-114172047D01*
X195161819Y-114172047D02*
X196161819Y-113600619D01*
X196161819Y-113600619D02*
X195161819Y-113600619D01*
X196161819Y-113124428D02*
X195161819Y-113124428D01*
X195161819Y-113124428D02*
X195161819Y-112886333D01*
X195161819Y-112886333D02*
X195209438Y-112743476D01*
X195209438Y-112743476D02*
X195304676Y-112648238D01*
X195304676Y-112648238D02*
X195399914Y-112600619D01*
X195399914Y-112600619D02*
X195590390Y-112553000D01*
X195590390Y-112553000D02*
X195733247Y-112553000D01*
X195733247Y-112553000D02*
X195923723Y-112600619D01*
X195923723Y-112600619D02*
X196018961Y-112648238D01*
X196018961Y-112648238D02*
X196114200Y-112743476D01*
X196114200Y-112743476D02*
X196161819Y-112886333D01*
X196161819Y-112886333D02*
X196161819Y-113124428D01*
X195638009Y-112124428D02*
X195638009Y-111791095D01*
X196161819Y-111648238D02*
X196161819Y-112124428D01*
X196161819Y-112124428D02*
X195161819Y-112124428D01*
X195161819Y-112124428D02*
X195161819Y-111648238D01*
X196161819Y-110648238D02*
X195685628Y-110981571D01*
X196161819Y-111219666D02*
X195161819Y-111219666D01*
X195161819Y-111219666D02*
X195161819Y-110838714D01*
X195161819Y-110838714D02*
X195209438Y-110743476D01*
X195209438Y-110743476D02*
X195257057Y-110695857D01*
X195257057Y-110695857D02*
X195352295Y-110648238D01*
X195352295Y-110648238D02*
X195495152Y-110648238D01*
X195495152Y-110648238D02*
X195590390Y-110695857D01*
X195590390Y-110695857D02*
X195638009Y-110743476D01*
X195638009Y-110743476D02*
X195685628Y-110838714D01*
X195685628Y-110838714D02*
X195685628Y-111219666D01*
X196066580Y-110219666D02*
X196114200Y-110172047D01*
X196114200Y-110172047D02*
X196161819Y-110219666D01*
X196161819Y-110219666D02*
X196114200Y-110267285D01*
X196114200Y-110267285D02*
X196066580Y-110219666D01*
X196066580Y-110219666D02*
X196161819Y-110219666D01*
X195542771Y-110219666D02*
X195590390Y-110172047D01*
X195590390Y-110172047D02*
X195638009Y-110219666D01*
X195638009Y-110219666D02*
X195590390Y-110267285D01*
X195590390Y-110267285D02*
X195542771Y-110219666D01*
X195542771Y-110219666D02*
X195638009Y-110219666D01*
X195638009Y-108648238D02*
X195638009Y-108981571D01*
X196161819Y-108981571D02*
X195161819Y-108981571D01*
X195161819Y-108981571D02*
X195161819Y-108505381D01*
X195638009Y-108124428D02*
X195638009Y-107791095D01*
X196161819Y-107648238D02*
X196161819Y-108124428D01*
X196161819Y-108124428D02*
X195161819Y-108124428D01*
X195161819Y-108124428D02*
X195161819Y-107648238D01*
X196161819Y-107219666D02*
X195161819Y-107219666D01*
X195161819Y-107219666D02*
X195876104Y-106886333D01*
X195876104Y-106886333D02*
X195161819Y-106553000D01*
X195161819Y-106553000D02*
X196161819Y-106553000D01*
X195876104Y-106124428D02*
X195876104Y-105648238D01*
X196161819Y-106219666D02*
X195161819Y-105886333D01*
X195161819Y-105886333D02*
X196161819Y-105553000D01*
X196161819Y-104743476D02*
X196161819Y-105219666D01*
X196161819Y-105219666D02*
X195161819Y-105219666D01*
X195638009Y-104410142D02*
X195638009Y-104076809D01*
X196161819Y-103933952D02*
X196161819Y-104410142D01*
X196161819Y-104410142D02*
X195161819Y-104410142D01*
X195161819Y-104410142D02*
X195161819Y-103933952D01*
X196066580Y-102172047D02*
X196114200Y-102219666D01*
X196114200Y-102219666D02*
X196161819Y-102362523D01*
X196161819Y-102362523D02*
X196161819Y-102457761D01*
X196161819Y-102457761D02*
X196114200Y-102600618D01*
X196114200Y-102600618D02*
X196018961Y-102695856D01*
X196018961Y-102695856D02*
X195923723Y-102743475D01*
X195923723Y-102743475D02*
X195733247Y-102791094D01*
X195733247Y-102791094D02*
X195590390Y-102791094D01*
X195590390Y-102791094D02*
X195399914Y-102743475D01*
X195399914Y-102743475D02*
X195304676Y-102695856D01*
X195304676Y-102695856D02*
X195209438Y-102600618D01*
X195209438Y-102600618D02*
X195161819Y-102457761D01*
X195161819Y-102457761D02*
X195161819Y-102362523D01*
X195161819Y-102362523D02*
X195209438Y-102219666D01*
X195209438Y-102219666D02*
X195257057Y-102172047D01*
X195161819Y-101552999D02*
X195161819Y-101362523D01*
X195161819Y-101362523D02*
X195209438Y-101267285D01*
X195209438Y-101267285D02*
X195304676Y-101172047D01*
X195304676Y-101172047D02*
X195495152Y-101124428D01*
X195495152Y-101124428D02*
X195828485Y-101124428D01*
X195828485Y-101124428D02*
X196018961Y-101172047D01*
X196018961Y-101172047D02*
X196114200Y-101267285D01*
X196114200Y-101267285D02*
X196161819Y-101362523D01*
X196161819Y-101362523D02*
X196161819Y-101552999D01*
X196161819Y-101552999D02*
X196114200Y-101648237D01*
X196114200Y-101648237D02*
X196018961Y-101743475D01*
X196018961Y-101743475D02*
X195828485Y-101791094D01*
X195828485Y-101791094D02*
X195495152Y-101791094D01*
X195495152Y-101791094D02*
X195304676Y-101743475D01*
X195304676Y-101743475D02*
X195209438Y-101648237D01*
X195209438Y-101648237D02*
X195161819Y-101552999D01*
X196161819Y-100695856D02*
X195161819Y-100695856D01*
X195161819Y-100695856D02*
X196161819Y-100124428D01*
X196161819Y-100124428D02*
X195161819Y-100124428D01*
X195638009Y-99648237D02*
X195638009Y-99314904D01*
X196161819Y-99172047D02*
X196161819Y-99648237D01*
X196161819Y-99648237D02*
X195161819Y-99648237D01*
X195161819Y-99648237D02*
X195161819Y-99172047D01*
X196066580Y-98172047D02*
X196114200Y-98219666D01*
X196114200Y-98219666D02*
X196161819Y-98362523D01*
X196161819Y-98362523D02*
X196161819Y-98457761D01*
X196161819Y-98457761D02*
X196114200Y-98600618D01*
X196114200Y-98600618D02*
X196018961Y-98695856D01*
X196018961Y-98695856D02*
X195923723Y-98743475D01*
X195923723Y-98743475D02*
X195733247Y-98791094D01*
X195733247Y-98791094D02*
X195590390Y-98791094D01*
X195590390Y-98791094D02*
X195399914Y-98743475D01*
X195399914Y-98743475D02*
X195304676Y-98695856D01*
X195304676Y-98695856D02*
X195209438Y-98600618D01*
X195209438Y-98600618D02*
X195161819Y-98457761D01*
X195161819Y-98457761D02*
X195161819Y-98362523D01*
X195161819Y-98362523D02*
X195209438Y-98219666D01*
X195209438Y-98219666D02*
X195257057Y-98172047D01*
X195161819Y-97886332D02*
X195161819Y-97314904D01*
X196161819Y-97600618D02*
X195161819Y-97600618D01*
X195161819Y-96791094D02*
X195161819Y-96600618D01*
X195161819Y-96600618D02*
X195209438Y-96505380D01*
X195209438Y-96505380D02*
X195304676Y-96410142D01*
X195304676Y-96410142D02*
X195495152Y-96362523D01*
X195495152Y-96362523D02*
X195828485Y-96362523D01*
X195828485Y-96362523D02*
X196018961Y-96410142D01*
X196018961Y-96410142D02*
X196114200Y-96505380D01*
X196114200Y-96505380D02*
X196161819Y-96600618D01*
X196161819Y-96600618D02*
X196161819Y-96791094D01*
X196161819Y-96791094D02*
X196114200Y-96886332D01*
X196114200Y-96886332D02*
X196018961Y-96981570D01*
X196018961Y-96981570D02*
X195828485Y-97029189D01*
X195828485Y-97029189D02*
X195495152Y-97029189D01*
X195495152Y-97029189D02*
X195304676Y-96981570D01*
X195304676Y-96981570D02*
X195209438Y-96886332D01*
X195209438Y-96886332D02*
X195161819Y-96791094D01*
X196161819Y-95362523D02*
X195685628Y-95695856D01*
X196161819Y-95933951D02*
X195161819Y-95933951D01*
X195161819Y-95933951D02*
X195161819Y-95552999D01*
X195161819Y-95552999D02*
X195209438Y-95457761D01*
X195209438Y-95457761D02*
X195257057Y-95410142D01*
X195257057Y-95410142D02*
X195352295Y-95362523D01*
X195352295Y-95362523D02*
X195495152Y-95362523D01*
X195495152Y-95362523D02*
X195590390Y-95410142D01*
X195590390Y-95410142D02*
X195638009Y-95457761D01*
X195638009Y-95457761D02*
X195685628Y-95552999D01*
X195685628Y-95552999D02*
X195685628Y-95933951D01*
X195161819Y-79422048D02*
X195876104Y-79422048D01*
X195876104Y-79422048D02*
X196018961Y-79469667D01*
X196018961Y-79469667D02*
X196114200Y-79564905D01*
X196114200Y-79564905D02*
X196161819Y-79707762D01*
X196161819Y-79707762D02*
X196161819Y-79803000D01*
X196161819Y-78469667D02*
X196161819Y-78945857D01*
X196161819Y-78945857D02*
X195161819Y-78945857D01*
X196066580Y-77564905D02*
X196114200Y-77612524D01*
X196114200Y-77612524D02*
X196161819Y-77755381D01*
X196161819Y-77755381D02*
X196161819Y-77850619D01*
X196161819Y-77850619D02*
X196114200Y-77993476D01*
X196114200Y-77993476D02*
X196018961Y-78088714D01*
X196018961Y-78088714D02*
X195923723Y-78136333D01*
X195923723Y-78136333D02*
X195733247Y-78183952D01*
X195733247Y-78183952D02*
X195590390Y-78183952D01*
X195590390Y-78183952D02*
X195399914Y-78136333D01*
X195399914Y-78136333D02*
X195304676Y-78088714D01*
X195304676Y-78088714D02*
X195209438Y-77993476D01*
X195209438Y-77993476D02*
X195161819Y-77850619D01*
X195161819Y-77850619D02*
X195161819Y-77755381D01*
X195161819Y-77755381D02*
X195209438Y-77612524D01*
X195209438Y-77612524D02*
X195257057Y-77564905D01*
X195161819Y-76850619D02*
X195876104Y-76850619D01*
X195876104Y-76850619D02*
X196018961Y-76898238D01*
X196018961Y-76898238D02*
X196114200Y-76993476D01*
X196114200Y-76993476D02*
X196161819Y-77136333D01*
X196161819Y-77136333D02*
X196161819Y-77231571D01*
X196161819Y-75898238D02*
X196161819Y-76374428D01*
X196161819Y-76374428D02*
X195161819Y-76374428D01*
X196066580Y-74993476D02*
X196114200Y-75041095D01*
X196114200Y-75041095D02*
X196161819Y-75183952D01*
X196161819Y-75183952D02*
X196161819Y-75279190D01*
X196161819Y-75279190D02*
X196114200Y-75422047D01*
X196114200Y-75422047D02*
X196018961Y-75517285D01*
X196018961Y-75517285D02*
X195923723Y-75564904D01*
X195923723Y-75564904D02*
X195733247Y-75612523D01*
X195733247Y-75612523D02*
X195590390Y-75612523D01*
X195590390Y-75612523D02*
X195399914Y-75564904D01*
X195399914Y-75564904D02*
X195304676Y-75517285D01*
X195304676Y-75517285D02*
X195209438Y-75422047D01*
X195209438Y-75422047D02*
X195161819Y-75279190D01*
X195161819Y-75279190D02*
X195161819Y-75183952D01*
X195161819Y-75183952D02*
X195209438Y-75041095D01*
X195209438Y-75041095D02*
X195257057Y-74993476D01*
X195161819Y-74279190D02*
X195876104Y-74279190D01*
X195876104Y-74279190D02*
X196018961Y-74326809D01*
X196018961Y-74326809D02*
X196114200Y-74422047D01*
X196114200Y-74422047D02*
X196161819Y-74564904D01*
X196161819Y-74564904D02*
X196161819Y-74660142D01*
X196161819Y-73326809D02*
X196161819Y-73802999D01*
X196161819Y-73802999D02*
X195161819Y-73802999D01*
X196066580Y-72422047D02*
X196114200Y-72469666D01*
X196114200Y-72469666D02*
X196161819Y-72612523D01*
X196161819Y-72612523D02*
X196161819Y-72707761D01*
X196161819Y-72707761D02*
X196114200Y-72850618D01*
X196114200Y-72850618D02*
X196018961Y-72945856D01*
X196018961Y-72945856D02*
X195923723Y-72993475D01*
X195923723Y-72993475D02*
X195733247Y-73041094D01*
X195733247Y-73041094D02*
X195590390Y-73041094D01*
X195590390Y-73041094D02*
X195399914Y-72993475D01*
X195399914Y-72993475D02*
X195304676Y-72945856D01*
X195304676Y-72945856D02*
X195209438Y-72850618D01*
X195209438Y-72850618D02*
X195161819Y-72707761D01*
X195161819Y-72707761D02*
X195161819Y-72612523D01*
X195161819Y-72612523D02*
X195209438Y-72469666D01*
X195209438Y-72469666D02*
X195257057Y-72422047D01*
X195161819Y-71707761D02*
X195876104Y-71707761D01*
X195876104Y-71707761D02*
X196018961Y-71755380D01*
X196018961Y-71755380D02*
X196114200Y-71850618D01*
X196114200Y-71850618D02*
X196161819Y-71993475D01*
X196161819Y-71993475D02*
X196161819Y-72088713D01*
X196161819Y-70755380D02*
X196161819Y-71231570D01*
X196161819Y-71231570D02*
X195161819Y-71231570D01*
X196066580Y-69850618D02*
X196114200Y-69898237D01*
X196114200Y-69898237D02*
X196161819Y-70041094D01*
X196161819Y-70041094D02*
X196161819Y-70136332D01*
X196161819Y-70136332D02*
X196114200Y-70279189D01*
X196114200Y-70279189D02*
X196018961Y-70374427D01*
X196018961Y-70374427D02*
X195923723Y-70422046D01*
X195923723Y-70422046D02*
X195733247Y-70469665D01*
X195733247Y-70469665D02*
X195590390Y-70469665D01*
X195590390Y-70469665D02*
X195399914Y-70422046D01*
X195399914Y-70422046D02*
X195304676Y-70374427D01*
X195304676Y-70374427D02*
X195209438Y-70279189D01*
X195209438Y-70279189D02*
X195161819Y-70136332D01*
X195161819Y-70136332D02*
X195161819Y-70041094D01*
X195161819Y-70041094D02*
X195209438Y-69898237D01*
X195209438Y-69898237D02*
X195257057Y-69850618D01*
%TO.C,U1*%
X172085095Y-74892819D02*
X172085095Y-75702342D01*
X172085095Y-75702342D02*
X172132714Y-75797580D01*
X172132714Y-75797580D02*
X172180333Y-75845200D01*
X172180333Y-75845200D02*
X172275571Y-75892819D01*
X172275571Y-75892819D02*
X172466047Y-75892819D01*
X172466047Y-75892819D02*
X172561285Y-75845200D01*
X172561285Y-75845200D02*
X172608904Y-75797580D01*
X172608904Y-75797580D02*
X172656523Y-75702342D01*
X172656523Y-75702342D02*
X172656523Y-74892819D01*
X173656523Y-75892819D02*
X173085095Y-75892819D01*
X173370809Y-75892819D02*
X173370809Y-74892819D01*
X173370809Y-74892819D02*
X173275571Y-75035676D01*
X173275571Y-75035676D02*
X173180333Y-75130914D01*
X173180333Y-75130914D02*
X173085095Y-75178533D01*
D15*
%TO.C,C6*%
X161677000Y-98468807D02*
X161569857Y-98575950D01*
X161569857Y-98575950D02*
X161248429Y-98683092D01*
X161248429Y-98683092D02*
X161034143Y-98683092D01*
X161034143Y-98683092D02*
X160712714Y-98575950D01*
X160712714Y-98575950D02*
X160498429Y-98361664D01*
X160498429Y-98361664D02*
X160391286Y-98147378D01*
X160391286Y-98147378D02*
X160284143Y-97718807D01*
X160284143Y-97718807D02*
X160284143Y-97397378D01*
X160284143Y-97397378D02*
X160391286Y-96968807D01*
X160391286Y-96968807D02*
X160498429Y-96754521D01*
X160498429Y-96754521D02*
X160712714Y-96540235D01*
X160712714Y-96540235D02*
X161034143Y-96433092D01*
X161034143Y-96433092D02*
X161248429Y-96433092D01*
X161248429Y-96433092D02*
X161569857Y-96540235D01*
X161569857Y-96540235D02*
X161677000Y-96647378D01*
X163605572Y-96433092D02*
X163177000Y-96433092D01*
X163177000Y-96433092D02*
X162962714Y-96540235D01*
X162962714Y-96540235D02*
X162855572Y-96647378D01*
X162855572Y-96647378D02*
X162641286Y-96968807D01*
X162641286Y-96968807D02*
X162534143Y-97397378D01*
X162534143Y-97397378D02*
X162534143Y-98254521D01*
X162534143Y-98254521D02*
X162641286Y-98468807D01*
X162641286Y-98468807D02*
X162748429Y-98575950D01*
X162748429Y-98575950D02*
X162962714Y-98683092D01*
X162962714Y-98683092D02*
X163391286Y-98683092D01*
X163391286Y-98683092D02*
X163605572Y-98575950D01*
X163605572Y-98575950D02*
X163712714Y-98468807D01*
X163712714Y-98468807D02*
X163819857Y-98254521D01*
X163819857Y-98254521D02*
X163819857Y-97718807D01*
X163819857Y-97718807D02*
X163712714Y-97504521D01*
X163712714Y-97504521D02*
X163605572Y-97397378D01*
X163605572Y-97397378D02*
X163391286Y-97290235D01*
X163391286Y-97290235D02*
X162962714Y-97290235D01*
X162962714Y-97290235D02*
X162748429Y-97397378D01*
X162748429Y-97397378D02*
X162641286Y-97504521D01*
X162641286Y-97504521D02*
X162534143Y-97718807D01*
%TO.C,C3*%
X147707000Y-51478807D02*
X147599857Y-51585950D01*
X147599857Y-51585950D02*
X147278429Y-51693092D01*
X147278429Y-51693092D02*
X147064143Y-51693092D01*
X147064143Y-51693092D02*
X146742714Y-51585950D01*
X146742714Y-51585950D02*
X146528429Y-51371664D01*
X146528429Y-51371664D02*
X146421286Y-51157378D01*
X146421286Y-51157378D02*
X146314143Y-50728807D01*
X146314143Y-50728807D02*
X146314143Y-50407378D01*
X146314143Y-50407378D02*
X146421286Y-49978807D01*
X146421286Y-49978807D02*
X146528429Y-49764521D01*
X146528429Y-49764521D02*
X146742714Y-49550235D01*
X146742714Y-49550235D02*
X147064143Y-49443092D01*
X147064143Y-49443092D02*
X147278429Y-49443092D01*
X147278429Y-49443092D02*
X147599857Y-49550235D01*
X147599857Y-49550235D02*
X147707000Y-49657378D01*
X148457000Y-49443092D02*
X149849857Y-49443092D01*
X149849857Y-49443092D02*
X149099857Y-50300235D01*
X149099857Y-50300235D02*
X149421286Y-50300235D01*
X149421286Y-50300235D02*
X149635572Y-50407378D01*
X149635572Y-50407378D02*
X149742714Y-50514521D01*
X149742714Y-50514521D02*
X149849857Y-50728807D01*
X149849857Y-50728807D02*
X149849857Y-51264521D01*
X149849857Y-51264521D02*
X149742714Y-51478807D01*
X149742714Y-51478807D02*
X149635572Y-51585950D01*
X149635572Y-51585950D02*
X149421286Y-51693092D01*
X149421286Y-51693092D02*
X148778429Y-51693092D01*
X148778429Y-51693092D02*
X148564143Y-51585950D01*
X148564143Y-51585950D02*
X148457000Y-51478807D01*
D14*
%TO.C,U9*%
X156845095Y-103467819D02*
X156845095Y-104277342D01*
X156845095Y-104277342D02*
X156892714Y-104372580D01*
X156892714Y-104372580D02*
X156940333Y-104420200D01*
X156940333Y-104420200D02*
X157035571Y-104467819D01*
X157035571Y-104467819D02*
X157226047Y-104467819D01*
X157226047Y-104467819D02*
X157321285Y-104420200D01*
X157321285Y-104420200D02*
X157368904Y-104372580D01*
X157368904Y-104372580D02*
X157416523Y-104277342D01*
X157416523Y-104277342D02*
X157416523Y-103467819D01*
X157940333Y-104467819D02*
X158130809Y-104467819D01*
X158130809Y-104467819D02*
X158226047Y-104420200D01*
X158226047Y-104420200D02*
X158273666Y-104372580D01*
X158273666Y-104372580D02*
X158368904Y-104229723D01*
X158368904Y-104229723D02*
X158416523Y-104039247D01*
X158416523Y-104039247D02*
X158416523Y-103658295D01*
X158416523Y-103658295D02*
X158368904Y-103563057D01*
X158368904Y-103563057D02*
X158321285Y-103515438D01*
X158321285Y-103515438D02*
X158226047Y-103467819D01*
X158226047Y-103467819D02*
X158035571Y-103467819D01*
X158035571Y-103467819D02*
X157940333Y-103515438D01*
X157940333Y-103515438D02*
X157892714Y-103563057D01*
X157892714Y-103563057D02*
X157845095Y-103658295D01*
X157845095Y-103658295D02*
X157845095Y-103896390D01*
X157845095Y-103896390D02*
X157892714Y-103991628D01*
X157892714Y-103991628D02*
X157940333Y-104039247D01*
X157940333Y-104039247D02*
X158035571Y-104086866D01*
X158035571Y-104086866D02*
X158226047Y-104086866D01*
X158226047Y-104086866D02*
X158321285Y-104039247D01*
X158321285Y-104039247D02*
X158368904Y-103991628D01*
X158368904Y-103991628D02*
X158416523Y-103896390D01*
D15*
X153458429Y-139192378D02*
X153565572Y-139085235D01*
X153565572Y-139085235D02*
X153779858Y-138978092D01*
X153779858Y-138978092D02*
X154315572Y-138978092D01*
X154315572Y-138978092D02*
X154529858Y-139085235D01*
X154529858Y-139085235D02*
X154637000Y-139192378D01*
X154637000Y-139192378D02*
X154744143Y-139406664D01*
X154744143Y-139406664D02*
X154744143Y-139620950D01*
X154744143Y-139620950D02*
X154637000Y-139942378D01*
X154637000Y-139942378D02*
X153351286Y-141228092D01*
X153351286Y-141228092D02*
X154744143Y-141228092D01*
X155494143Y-138978092D02*
X156994143Y-138978092D01*
X156994143Y-138978092D02*
X156029857Y-141228092D01*
X159137000Y-141013807D02*
X159029857Y-141120950D01*
X159029857Y-141120950D02*
X158708429Y-141228092D01*
X158708429Y-141228092D02*
X158494143Y-141228092D01*
X158494143Y-141228092D02*
X158172714Y-141120950D01*
X158172714Y-141120950D02*
X157958429Y-140906664D01*
X157958429Y-140906664D02*
X157851286Y-140692378D01*
X157851286Y-140692378D02*
X157744143Y-140263807D01*
X157744143Y-140263807D02*
X157744143Y-139942378D01*
X157744143Y-139942378D02*
X157851286Y-139513807D01*
X157851286Y-139513807D02*
X157958429Y-139299521D01*
X157958429Y-139299521D02*
X158172714Y-139085235D01*
X158172714Y-139085235D02*
X158494143Y-138978092D01*
X158494143Y-138978092D02*
X158708429Y-138978092D01*
X158708429Y-138978092D02*
X159029857Y-139085235D01*
X159029857Y-139085235D02*
X159137000Y-139192378D01*
X161279857Y-141228092D02*
X159994143Y-141228092D01*
X160637000Y-141228092D02*
X160637000Y-138978092D01*
X160637000Y-138978092D02*
X160422714Y-139299521D01*
X160422714Y-139299521D02*
X160208429Y-139513807D01*
X160208429Y-139513807D02*
X159994143Y-139620950D01*
X162137000Y-139192378D02*
X162244143Y-139085235D01*
X162244143Y-139085235D02*
X162458429Y-138978092D01*
X162458429Y-138978092D02*
X162994143Y-138978092D01*
X162994143Y-138978092D02*
X163208429Y-139085235D01*
X163208429Y-139085235D02*
X163315571Y-139192378D01*
X163315571Y-139192378D02*
X163422714Y-139406664D01*
X163422714Y-139406664D02*
X163422714Y-139620950D01*
X163422714Y-139620950D02*
X163315571Y-139942378D01*
X163315571Y-139942378D02*
X162029857Y-141228092D01*
X162029857Y-141228092D02*
X163422714Y-141228092D01*
X164708428Y-139942378D02*
X164494143Y-139835235D01*
X164494143Y-139835235D02*
X164387000Y-139728092D01*
X164387000Y-139728092D02*
X164279857Y-139513807D01*
X164279857Y-139513807D02*
X164279857Y-139406664D01*
X164279857Y-139406664D02*
X164387000Y-139192378D01*
X164387000Y-139192378D02*
X164494143Y-139085235D01*
X164494143Y-139085235D02*
X164708428Y-138978092D01*
X164708428Y-138978092D02*
X165137000Y-138978092D01*
X165137000Y-138978092D02*
X165351286Y-139085235D01*
X165351286Y-139085235D02*
X165458428Y-139192378D01*
X165458428Y-139192378D02*
X165565571Y-139406664D01*
X165565571Y-139406664D02*
X165565571Y-139513807D01*
X165565571Y-139513807D02*
X165458428Y-139728092D01*
X165458428Y-139728092D02*
X165351286Y-139835235D01*
X165351286Y-139835235D02*
X165137000Y-139942378D01*
X165137000Y-139942378D02*
X164708428Y-139942378D01*
X164708428Y-139942378D02*
X164494143Y-140049521D01*
X164494143Y-140049521D02*
X164387000Y-140156664D01*
X164387000Y-140156664D02*
X164279857Y-140370950D01*
X164279857Y-140370950D02*
X164279857Y-140799521D01*
X164279857Y-140799521D02*
X164387000Y-141013807D01*
X164387000Y-141013807D02*
X164494143Y-141120950D01*
X164494143Y-141120950D02*
X164708428Y-141228092D01*
X164708428Y-141228092D02*
X165137000Y-141228092D01*
X165137000Y-141228092D02*
X165351286Y-141120950D01*
X165351286Y-141120950D02*
X165458428Y-141013807D01*
X165458428Y-141013807D02*
X165565571Y-140799521D01*
X165565571Y-140799521D02*
X165565571Y-140370950D01*
X165565571Y-140370950D02*
X165458428Y-140156664D01*
X165458428Y-140156664D02*
X165351286Y-140049521D01*
X165351286Y-140049521D02*
X165137000Y-139942378D01*
D14*
%TO.C,U5*%
X175260095Y-113627819D02*
X175260095Y-114437342D01*
X175260095Y-114437342D02*
X175307714Y-114532580D01*
X175307714Y-114532580D02*
X175355333Y-114580200D01*
X175355333Y-114580200D02*
X175450571Y-114627819D01*
X175450571Y-114627819D02*
X175641047Y-114627819D01*
X175641047Y-114627819D02*
X175736285Y-114580200D01*
X175736285Y-114580200D02*
X175783904Y-114532580D01*
X175783904Y-114532580D02*
X175831523Y-114437342D01*
X175831523Y-114437342D02*
X175831523Y-113627819D01*
X176783904Y-113627819D02*
X176307714Y-113627819D01*
X176307714Y-113627819D02*
X176260095Y-114104009D01*
X176260095Y-114104009D02*
X176307714Y-114056390D01*
X176307714Y-114056390D02*
X176402952Y-114008771D01*
X176402952Y-114008771D02*
X176641047Y-114008771D01*
X176641047Y-114008771D02*
X176736285Y-114056390D01*
X176736285Y-114056390D02*
X176783904Y-114104009D01*
X176783904Y-114104009D02*
X176831523Y-114199247D01*
X176831523Y-114199247D02*
X176831523Y-114437342D01*
X176831523Y-114437342D02*
X176783904Y-114532580D01*
X176783904Y-114532580D02*
X176736285Y-114580200D01*
X176736285Y-114580200D02*
X176641047Y-114627819D01*
X176641047Y-114627819D02*
X176402952Y-114627819D01*
X176402952Y-114627819D02*
X176307714Y-114580200D01*
X176307714Y-114580200D02*
X176260095Y-114532580D01*
D15*
X172432714Y-141228092D02*
X171361286Y-141228092D01*
X171361286Y-141228092D02*
X171361286Y-138978092D01*
X173075572Y-141120950D02*
X173397001Y-141228092D01*
X173397001Y-141228092D02*
X173932715Y-141228092D01*
X173932715Y-141228092D02*
X174147001Y-141120950D01*
X174147001Y-141120950D02*
X174254143Y-141013807D01*
X174254143Y-141013807D02*
X174361286Y-140799521D01*
X174361286Y-140799521D02*
X174361286Y-140585235D01*
X174361286Y-140585235D02*
X174254143Y-140370950D01*
X174254143Y-140370950D02*
X174147001Y-140263807D01*
X174147001Y-140263807D02*
X173932715Y-140156664D01*
X173932715Y-140156664D02*
X173504143Y-140049521D01*
X173504143Y-140049521D02*
X173289858Y-139942378D01*
X173289858Y-139942378D02*
X173182715Y-139835235D01*
X173182715Y-139835235D02*
X173075572Y-139620950D01*
X173075572Y-139620950D02*
X173075572Y-139406664D01*
X173075572Y-139406664D02*
X173182715Y-139192378D01*
X173182715Y-139192378D02*
X173289858Y-139085235D01*
X173289858Y-139085235D02*
X173504143Y-138978092D01*
X173504143Y-138978092D02*
X174039858Y-138978092D01*
X174039858Y-138978092D02*
X174361286Y-139085235D01*
X175218429Y-139192378D02*
X175325572Y-139085235D01*
X175325572Y-139085235D02*
X175539858Y-138978092D01*
X175539858Y-138978092D02*
X176075572Y-138978092D01*
X176075572Y-138978092D02*
X176289858Y-139085235D01*
X176289858Y-139085235D02*
X176397000Y-139192378D01*
X176397000Y-139192378D02*
X176504143Y-139406664D01*
X176504143Y-139406664D02*
X176504143Y-139620950D01*
X176504143Y-139620950D02*
X176397000Y-139942378D01*
X176397000Y-139942378D02*
X175111286Y-141228092D01*
X175111286Y-141228092D02*
X176504143Y-141228092D01*
X178432715Y-139728092D02*
X178432715Y-141228092D01*
X177897000Y-138870950D02*
X177361286Y-140478092D01*
X177361286Y-140478092D02*
X178754143Y-140478092D01*
X180682714Y-138978092D02*
X179611286Y-138978092D01*
X179611286Y-138978092D02*
X179504143Y-140049521D01*
X179504143Y-140049521D02*
X179611286Y-139942378D01*
X179611286Y-139942378D02*
X179825572Y-139835235D01*
X179825572Y-139835235D02*
X180361286Y-139835235D01*
X180361286Y-139835235D02*
X180575572Y-139942378D01*
X180575572Y-139942378D02*
X180682714Y-140049521D01*
X180682714Y-140049521D02*
X180789857Y-140263807D01*
X180789857Y-140263807D02*
X180789857Y-140799521D01*
X180789857Y-140799521D02*
X180682714Y-141013807D01*
X180682714Y-141013807D02*
X180575572Y-141120950D01*
X180575572Y-141120950D02*
X180361286Y-141228092D01*
X180361286Y-141228092D02*
X179825572Y-141228092D01*
X179825572Y-141228092D02*
X179611286Y-141120950D01*
X179611286Y-141120950D02*
X179504143Y-141013807D01*
D14*
%TO.C,U6*%
X138430095Y-67907819D02*
X138430095Y-68717342D01*
X138430095Y-68717342D02*
X138477714Y-68812580D01*
X138477714Y-68812580D02*
X138525333Y-68860200D01*
X138525333Y-68860200D02*
X138620571Y-68907819D01*
X138620571Y-68907819D02*
X138811047Y-68907819D01*
X138811047Y-68907819D02*
X138906285Y-68860200D01*
X138906285Y-68860200D02*
X138953904Y-68812580D01*
X138953904Y-68812580D02*
X139001523Y-68717342D01*
X139001523Y-68717342D02*
X139001523Y-67907819D01*
X139906285Y-67907819D02*
X139715809Y-67907819D01*
X139715809Y-67907819D02*
X139620571Y-67955438D01*
X139620571Y-67955438D02*
X139572952Y-68003057D01*
X139572952Y-68003057D02*
X139477714Y-68145914D01*
X139477714Y-68145914D02*
X139430095Y-68336390D01*
X139430095Y-68336390D02*
X139430095Y-68717342D01*
X139430095Y-68717342D02*
X139477714Y-68812580D01*
X139477714Y-68812580D02*
X139525333Y-68860200D01*
X139525333Y-68860200D02*
X139620571Y-68907819D01*
X139620571Y-68907819D02*
X139811047Y-68907819D01*
X139811047Y-68907819D02*
X139906285Y-68860200D01*
X139906285Y-68860200D02*
X139953904Y-68812580D01*
X139953904Y-68812580D02*
X140001523Y-68717342D01*
X140001523Y-68717342D02*
X140001523Y-68479247D01*
X140001523Y-68479247D02*
X139953904Y-68384009D01*
X139953904Y-68384009D02*
X139906285Y-68336390D01*
X139906285Y-68336390D02*
X139811047Y-68288771D01*
X139811047Y-68288771D02*
X139620571Y-68288771D01*
X139620571Y-68288771D02*
X139525333Y-68336390D01*
X139525333Y-68336390D02*
X139477714Y-68384009D01*
X139477714Y-68384009D02*
X139430095Y-68479247D01*
D15*
X147832092Y-72875857D02*
X147832092Y-73947285D01*
X147832092Y-73947285D02*
X145582092Y-73947285D01*
X147724950Y-72232999D02*
X147832092Y-71911571D01*
X147832092Y-71911571D02*
X147832092Y-71375856D01*
X147832092Y-71375856D02*
X147724950Y-71161571D01*
X147724950Y-71161571D02*
X147617807Y-71054428D01*
X147617807Y-71054428D02*
X147403521Y-70947285D01*
X147403521Y-70947285D02*
X147189235Y-70947285D01*
X147189235Y-70947285D02*
X146974950Y-71054428D01*
X146974950Y-71054428D02*
X146867807Y-71161571D01*
X146867807Y-71161571D02*
X146760664Y-71375856D01*
X146760664Y-71375856D02*
X146653521Y-71804428D01*
X146653521Y-71804428D02*
X146546378Y-72018713D01*
X146546378Y-72018713D02*
X146439235Y-72125856D01*
X146439235Y-72125856D02*
X146224950Y-72232999D01*
X146224950Y-72232999D02*
X146010664Y-72232999D01*
X146010664Y-72232999D02*
X145796378Y-72125856D01*
X145796378Y-72125856D02*
X145689235Y-72018713D01*
X145689235Y-72018713D02*
X145582092Y-71804428D01*
X145582092Y-71804428D02*
X145582092Y-71268713D01*
X145582092Y-71268713D02*
X145689235Y-70947285D01*
X145582092Y-69554428D02*
X145582092Y-69340142D01*
X145582092Y-69340142D02*
X145689235Y-69125856D01*
X145689235Y-69125856D02*
X145796378Y-69018714D01*
X145796378Y-69018714D02*
X146010664Y-68911571D01*
X146010664Y-68911571D02*
X146439235Y-68804428D01*
X146439235Y-68804428D02*
X146974950Y-68804428D01*
X146974950Y-68804428D02*
X147403521Y-68911571D01*
X147403521Y-68911571D02*
X147617807Y-69018714D01*
X147617807Y-69018714D02*
X147724950Y-69125856D01*
X147724950Y-69125856D02*
X147832092Y-69340142D01*
X147832092Y-69340142D02*
X147832092Y-69554428D01*
X147832092Y-69554428D02*
X147724950Y-69768714D01*
X147724950Y-69768714D02*
X147617807Y-69875856D01*
X147617807Y-69875856D02*
X147403521Y-69982999D01*
X147403521Y-69982999D02*
X146974950Y-70090142D01*
X146974950Y-70090142D02*
X146439235Y-70090142D01*
X146439235Y-70090142D02*
X146010664Y-69982999D01*
X146010664Y-69982999D02*
X145796378Y-69875856D01*
X145796378Y-69875856D02*
X145689235Y-69768714D01*
X145689235Y-69768714D02*
X145582092Y-69554428D01*
X146332092Y-66875857D02*
X147832092Y-66875857D01*
X145474950Y-67411571D02*
X147082092Y-67947285D01*
X147082092Y-67947285D02*
X147082092Y-66554428D01*
D14*
%TO.C,J1*%
X194103666Y-53937819D02*
X194103666Y-54652104D01*
X194103666Y-54652104D02*
X194056047Y-54794961D01*
X194056047Y-54794961D02*
X193960809Y-54890200D01*
X193960809Y-54890200D02*
X193817952Y-54937819D01*
X193817952Y-54937819D02*
X193722714Y-54937819D01*
X195103666Y-54937819D02*
X194532238Y-54937819D01*
X194817952Y-54937819D02*
X194817952Y-53937819D01*
X194817952Y-53937819D02*
X194722714Y-54080676D01*
X194722714Y-54080676D02*
X194627476Y-54175914D01*
X194627476Y-54175914D02*
X194532238Y-54223533D01*
%TO.C,Y1*%
X139895809Y-96371628D02*
X139895809Y-96847819D01*
X139562476Y-95847819D02*
X139895809Y-96371628D01*
X139895809Y-96371628D02*
X140229142Y-95847819D01*
X141086285Y-96847819D02*
X140514857Y-96847819D01*
X140800571Y-96847819D02*
X140800571Y-95847819D01*
X140800571Y-95847819D02*
X140705333Y-95990676D01*
X140705333Y-95990676D02*
X140610095Y-96085914D01*
X140610095Y-96085914D02*
X140514857Y-96133533D01*
%TO.C,U8*%
X100965095Y-111087819D02*
X100965095Y-111897342D01*
X100965095Y-111897342D02*
X101012714Y-111992580D01*
X101012714Y-111992580D02*
X101060333Y-112040200D01*
X101060333Y-112040200D02*
X101155571Y-112087819D01*
X101155571Y-112087819D02*
X101346047Y-112087819D01*
X101346047Y-112087819D02*
X101441285Y-112040200D01*
X101441285Y-112040200D02*
X101488904Y-111992580D01*
X101488904Y-111992580D02*
X101536523Y-111897342D01*
X101536523Y-111897342D02*
X101536523Y-111087819D01*
X102155571Y-111516390D02*
X102060333Y-111468771D01*
X102060333Y-111468771D02*
X102012714Y-111421152D01*
X102012714Y-111421152D02*
X101965095Y-111325914D01*
X101965095Y-111325914D02*
X101965095Y-111278295D01*
X101965095Y-111278295D02*
X102012714Y-111183057D01*
X102012714Y-111183057D02*
X102060333Y-111135438D01*
X102060333Y-111135438D02*
X102155571Y-111087819D01*
X102155571Y-111087819D02*
X102346047Y-111087819D01*
X102346047Y-111087819D02*
X102441285Y-111135438D01*
X102441285Y-111135438D02*
X102488904Y-111183057D01*
X102488904Y-111183057D02*
X102536523Y-111278295D01*
X102536523Y-111278295D02*
X102536523Y-111325914D01*
X102536523Y-111325914D02*
X102488904Y-111421152D01*
X102488904Y-111421152D02*
X102441285Y-111468771D01*
X102441285Y-111468771D02*
X102346047Y-111516390D01*
X102346047Y-111516390D02*
X102155571Y-111516390D01*
X102155571Y-111516390D02*
X102060333Y-111564009D01*
X102060333Y-111564009D02*
X102012714Y-111611628D01*
X102012714Y-111611628D02*
X101965095Y-111706866D01*
X101965095Y-111706866D02*
X101965095Y-111897342D01*
X101965095Y-111897342D02*
X102012714Y-111992580D01*
X102012714Y-111992580D02*
X102060333Y-112040200D01*
X102060333Y-112040200D02*
X102155571Y-112087819D01*
X102155571Y-112087819D02*
X102346047Y-112087819D01*
X102346047Y-112087819D02*
X102441285Y-112040200D01*
X102441285Y-112040200D02*
X102488904Y-111992580D01*
X102488904Y-111992580D02*
X102536523Y-111897342D01*
X102536523Y-111897342D02*
X102536523Y-111706866D01*
X102536523Y-111706866D02*
X102488904Y-111611628D01*
X102488904Y-111611628D02*
X102441285Y-111564009D01*
X102441285Y-111564009D02*
X102346047Y-111516390D01*
D15*
X98137714Y-141228092D02*
X97066286Y-141228092D01*
X97066286Y-141228092D02*
X97066286Y-138978092D01*
X98780572Y-141120950D02*
X99102001Y-141228092D01*
X99102001Y-141228092D02*
X99637715Y-141228092D01*
X99637715Y-141228092D02*
X99852001Y-141120950D01*
X99852001Y-141120950D02*
X99959143Y-141013807D01*
X99959143Y-141013807D02*
X100066286Y-140799521D01*
X100066286Y-140799521D02*
X100066286Y-140585235D01*
X100066286Y-140585235D02*
X99959143Y-140370950D01*
X99959143Y-140370950D02*
X99852001Y-140263807D01*
X99852001Y-140263807D02*
X99637715Y-140156664D01*
X99637715Y-140156664D02*
X99209143Y-140049521D01*
X99209143Y-140049521D02*
X98994858Y-139942378D01*
X98994858Y-139942378D02*
X98887715Y-139835235D01*
X98887715Y-139835235D02*
X98780572Y-139620950D01*
X98780572Y-139620950D02*
X98780572Y-139406664D01*
X98780572Y-139406664D02*
X98887715Y-139192378D01*
X98887715Y-139192378D02*
X98994858Y-139085235D01*
X98994858Y-139085235D02*
X99209143Y-138978092D01*
X99209143Y-138978092D02*
X99744858Y-138978092D01*
X99744858Y-138978092D02*
X100066286Y-139085235D01*
X100923429Y-139192378D02*
X101030572Y-139085235D01*
X101030572Y-139085235D02*
X101244858Y-138978092D01*
X101244858Y-138978092D02*
X101780572Y-138978092D01*
X101780572Y-138978092D02*
X101994858Y-139085235D01*
X101994858Y-139085235D02*
X102102000Y-139192378D01*
X102102000Y-139192378D02*
X102209143Y-139406664D01*
X102209143Y-139406664D02*
X102209143Y-139620950D01*
X102209143Y-139620950D02*
X102102000Y-139942378D01*
X102102000Y-139942378D02*
X100816286Y-141228092D01*
X100816286Y-141228092D02*
X102209143Y-141228092D01*
X104137715Y-139728092D02*
X104137715Y-141228092D01*
X103602000Y-138870950D02*
X103066286Y-140478092D01*
X103066286Y-140478092D02*
X104459143Y-140478092D01*
X105744857Y-138978092D02*
X105959143Y-138978092D01*
X105959143Y-138978092D02*
X106173429Y-139085235D01*
X106173429Y-139085235D02*
X106280572Y-139192378D01*
X106280572Y-139192378D02*
X106387714Y-139406664D01*
X106387714Y-139406664D02*
X106494857Y-139835235D01*
X106494857Y-139835235D02*
X106494857Y-140370950D01*
X106494857Y-140370950D02*
X106387714Y-140799521D01*
X106387714Y-140799521D02*
X106280572Y-141013807D01*
X106280572Y-141013807D02*
X106173429Y-141120950D01*
X106173429Y-141120950D02*
X105959143Y-141228092D01*
X105959143Y-141228092D02*
X105744857Y-141228092D01*
X105744857Y-141228092D02*
X105530572Y-141120950D01*
X105530572Y-141120950D02*
X105423429Y-141013807D01*
X105423429Y-141013807D02*
X105316286Y-140799521D01*
X105316286Y-140799521D02*
X105209143Y-140370950D01*
X105209143Y-140370950D02*
X105209143Y-139835235D01*
X105209143Y-139835235D02*
X105316286Y-139406664D01*
X105316286Y-139406664D02*
X105423429Y-139192378D01*
X105423429Y-139192378D02*
X105530572Y-139085235D01*
X105530572Y-139085235D02*
X105744857Y-138978092D01*
D14*
%TO.C,J2*%
X77898666Y-116040819D02*
X77898666Y-116755104D01*
X77898666Y-116755104D02*
X77851047Y-116897961D01*
X77851047Y-116897961D02*
X77755809Y-116993200D01*
X77755809Y-116993200D02*
X77612952Y-117040819D01*
X77612952Y-117040819D02*
X77517714Y-117040819D01*
X78327238Y-116136057D02*
X78374857Y-116088438D01*
X78374857Y-116088438D02*
X78470095Y-116040819D01*
X78470095Y-116040819D02*
X78708190Y-116040819D01*
X78708190Y-116040819D02*
X78803428Y-116088438D01*
X78803428Y-116088438D02*
X78851047Y-116136057D01*
X78851047Y-116136057D02*
X78898666Y-116231295D01*
X78898666Y-116231295D02*
X78898666Y-116326533D01*
X78898666Y-116326533D02*
X78851047Y-116469390D01*
X78851047Y-116469390D02*
X78279619Y-117040819D01*
X78279619Y-117040819D02*
X78898666Y-117040819D01*
D15*
%TO.C,C5*%
X147707000Y-59733807D02*
X147599857Y-59840950D01*
X147599857Y-59840950D02*
X147278429Y-59948092D01*
X147278429Y-59948092D02*
X147064143Y-59948092D01*
X147064143Y-59948092D02*
X146742714Y-59840950D01*
X146742714Y-59840950D02*
X146528429Y-59626664D01*
X146528429Y-59626664D02*
X146421286Y-59412378D01*
X146421286Y-59412378D02*
X146314143Y-58983807D01*
X146314143Y-58983807D02*
X146314143Y-58662378D01*
X146314143Y-58662378D02*
X146421286Y-58233807D01*
X146421286Y-58233807D02*
X146528429Y-58019521D01*
X146528429Y-58019521D02*
X146742714Y-57805235D01*
X146742714Y-57805235D02*
X147064143Y-57698092D01*
X147064143Y-57698092D02*
X147278429Y-57698092D01*
X147278429Y-57698092D02*
X147599857Y-57805235D01*
X147599857Y-57805235D02*
X147707000Y-57912378D01*
X149742714Y-57698092D02*
X148671286Y-57698092D01*
X148671286Y-57698092D02*
X148564143Y-58769521D01*
X148564143Y-58769521D02*
X148671286Y-58662378D01*
X148671286Y-58662378D02*
X148885572Y-58555235D01*
X148885572Y-58555235D02*
X149421286Y-58555235D01*
X149421286Y-58555235D02*
X149635572Y-58662378D01*
X149635572Y-58662378D02*
X149742714Y-58769521D01*
X149742714Y-58769521D02*
X149849857Y-58983807D01*
X149849857Y-58983807D02*
X149849857Y-59519521D01*
X149849857Y-59519521D02*
X149742714Y-59733807D01*
X149742714Y-59733807D02*
X149635572Y-59840950D01*
X149635572Y-59840950D02*
X149421286Y-59948092D01*
X149421286Y-59948092D02*
X148885572Y-59948092D01*
X148885572Y-59948092D02*
X148671286Y-59840950D01*
X148671286Y-59840950D02*
X148564143Y-59733807D01*
%TO.C,C12*%
X124410571Y-93388807D02*
X124303428Y-93495950D01*
X124303428Y-93495950D02*
X123982000Y-93603092D01*
X123982000Y-93603092D02*
X123767714Y-93603092D01*
X123767714Y-93603092D02*
X123446285Y-93495950D01*
X123446285Y-93495950D02*
X123232000Y-93281664D01*
X123232000Y-93281664D02*
X123124857Y-93067378D01*
X123124857Y-93067378D02*
X123017714Y-92638807D01*
X123017714Y-92638807D02*
X123017714Y-92317378D01*
X123017714Y-92317378D02*
X123124857Y-91888807D01*
X123124857Y-91888807D02*
X123232000Y-91674521D01*
X123232000Y-91674521D02*
X123446285Y-91460235D01*
X123446285Y-91460235D02*
X123767714Y-91353092D01*
X123767714Y-91353092D02*
X123982000Y-91353092D01*
X123982000Y-91353092D02*
X124303428Y-91460235D01*
X124303428Y-91460235D02*
X124410571Y-91567378D01*
X126553428Y-93603092D02*
X125267714Y-93603092D01*
X125910571Y-93603092D02*
X125910571Y-91353092D01*
X125910571Y-91353092D02*
X125696285Y-91674521D01*
X125696285Y-91674521D02*
X125482000Y-91888807D01*
X125482000Y-91888807D02*
X125267714Y-91995950D01*
X127410571Y-91567378D02*
X127517714Y-91460235D01*
X127517714Y-91460235D02*
X127732000Y-91353092D01*
X127732000Y-91353092D02*
X128267714Y-91353092D01*
X128267714Y-91353092D02*
X128482000Y-91460235D01*
X128482000Y-91460235D02*
X128589142Y-91567378D01*
X128589142Y-91567378D02*
X128696285Y-91781664D01*
X128696285Y-91781664D02*
X128696285Y-91995950D01*
X128696285Y-91995950D02*
X128589142Y-92317378D01*
X128589142Y-92317378D02*
X127303428Y-93603092D01*
X127303428Y-93603092D02*
X128696285Y-93603092D01*
D14*
%TO.C,U4*%
X153035095Y-78067819D02*
X153035095Y-78877342D01*
X153035095Y-78877342D02*
X153082714Y-78972580D01*
X153082714Y-78972580D02*
X153130333Y-79020200D01*
X153130333Y-79020200D02*
X153225571Y-79067819D01*
X153225571Y-79067819D02*
X153416047Y-79067819D01*
X153416047Y-79067819D02*
X153511285Y-79020200D01*
X153511285Y-79020200D02*
X153558904Y-78972580D01*
X153558904Y-78972580D02*
X153606523Y-78877342D01*
X153606523Y-78877342D02*
X153606523Y-78067819D01*
X154511285Y-78401152D02*
X154511285Y-79067819D01*
X154273190Y-78020200D02*
X154035095Y-78734485D01*
X154035095Y-78734485D02*
X154654142Y-78734485D01*
D15*
X162437092Y-83670857D02*
X162437092Y-84742285D01*
X162437092Y-84742285D02*
X160187092Y-84742285D01*
X162329950Y-83027999D02*
X162437092Y-82706571D01*
X162437092Y-82706571D02*
X162437092Y-82170856D01*
X162437092Y-82170856D02*
X162329950Y-81956571D01*
X162329950Y-81956571D02*
X162222807Y-81849428D01*
X162222807Y-81849428D02*
X162008521Y-81742285D01*
X162008521Y-81742285D02*
X161794235Y-81742285D01*
X161794235Y-81742285D02*
X161579950Y-81849428D01*
X161579950Y-81849428D02*
X161472807Y-81956571D01*
X161472807Y-81956571D02*
X161365664Y-82170856D01*
X161365664Y-82170856D02*
X161258521Y-82599428D01*
X161258521Y-82599428D02*
X161151378Y-82813713D01*
X161151378Y-82813713D02*
X161044235Y-82920856D01*
X161044235Y-82920856D02*
X160829950Y-83027999D01*
X160829950Y-83027999D02*
X160615664Y-83027999D01*
X160615664Y-83027999D02*
X160401378Y-82920856D01*
X160401378Y-82920856D02*
X160294235Y-82813713D01*
X160294235Y-82813713D02*
X160187092Y-82599428D01*
X160187092Y-82599428D02*
X160187092Y-82063713D01*
X160187092Y-82063713D02*
X160294235Y-81742285D01*
X162437092Y-79599428D02*
X162437092Y-80885142D01*
X162437092Y-80242285D02*
X160187092Y-80242285D01*
X160187092Y-80242285D02*
X160508521Y-80456571D01*
X160508521Y-80456571D02*
X160722807Y-80670856D01*
X160722807Y-80670856D02*
X160829950Y-80885142D01*
X162437092Y-77456571D02*
X162437092Y-78742285D01*
X162437092Y-78099428D02*
X160187092Y-78099428D01*
X160187092Y-78099428D02*
X160508521Y-78313714D01*
X160508521Y-78313714D02*
X160722807Y-78527999D01*
X160722807Y-78527999D02*
X160829950Y-78742285D01*
D14*
%TO.C,U10*%
X121380094Y-132498180D02*
X121380094Y-131688657D01*
X121380094Y-131688657D02*
X121332475Y-131593419D01*
X121332475Y-131593419D02*
X121284856Y-131545800D01*
X121284856Y-131545800D02*
X121189618Y-131498180D01*
X121189618Y-131498180D02*
X120999142Y-131498180D01*
X120999142Y-131498180D02*
X120903904Y-131545800D01*
X120903904Y-131545800D02*
X120856285Y-131593419D01*
X120856285Y-131593419D02*
X120808666Y-131688657D01*
X120808666Y-131688657D02*
X120808666Y-132498180D01*
X119808666Y-131498180D02*
X120380094Y-131498180D01*
X120094380Y-131498180D02*
X120094380Y-132498180D01*
X120094380Y-132498180D02*
X120189618Y-132355323D01*
X120189618Y-132355323D02*
X120284856Y-132260085D01*
X120284856Y-132260085D02*
X120380094Y-132212466D01*
X119189618Y-132498180D02*
X119094380Y-132498180D01*
X119094380Y-132498180D02*
X118999142Y-132450561D01*
X118999142Y-132450561D02*
X118951523Y-132402942D01*
X118951523Y-132402942D02*
X118903904Y-132307704D01*
X118903904Y-132307704D02*
X118856285Y-132117228D01*
X118856285Y-132117228D02*
X118856285Y-131879133D01*
X118856285Y-131879133D02*
X118903904Y-131688657D01*
X118903904Y-131688657D02*
X118951523Y-131593419D01*
X118951523Y-131593419D02*
X118999142Y-131545800D01*
X118999142Y-131545800D02*
X119094380Y-131498180D01*
X119094380Y-131498180D02*
X119189618Y-131498180D01*
X119189618Y-131498180D02*
X119284856Y-131545800D01*
X119284856Y-131545800D02*
X119332475Y-131593419D01*
X119332475Y-131593419D02*
X119380094Y-131688657D01*
X119380094Y-131688657D02*
X119427713Y-131879133D01*
X119427713Y-131879133D02*
X119427713Y-132117228D01*
X119427713Y-132117228D02*
X119380094Y-132307704D01*
X119380094Y-132307704D02*
X119332475Y-132402942D01*
X119332475Y-132402942D02*
X119284856Y-132450561D01*
X119284856Y-132450561D02*
X119189618Y-132498180D01*
D15*
X120752000Y-95163092D02*
X121287714Y-97413092D01*
X121287714Y-97413092D02*
X121716286Y-95805950D01*
X121716286Y-95805950D02*
X122144857Y-97413092D01*
X122144857Y-97413092D02*
X122680572Y-95163092D01*
X123537715Y-97413092D02*
X123537715Y-95163092D01*
X123537715Y-95163092D02*
X124073429Y-95163092D01*
X124073429Y-95163092D02*
X124394858Y-95270235D01*
X124394858Y-95270235D02*
X124609143Y-95484521D01*
X124609143Y-95484521D02*
X124716286Y-95698807D01*
X124716286Y-95698807D02*
X124823429Y-96127378D01*
X124823429Y-96127378D02*
X124823429Y-96448807D01*
X124823429Y-96448807D02*
X124716286Y-96877378D01*
X124716286Y-96877378D02*
X124609143Y-97091664D01*
X124609143Y-97091664D02*
X124394858Y-97305950D01*
X124394858Y-97305950D02*
X124073429Y-97413092D01*
X124073429Y-97413092D02*
X123537715Y-97413092D01*
X126966286Y-97413092D02*
X125680572Y-97413092D01*
X126323429Y-97413092D02*
X126323429Y-95163092D01*
X126323429Y-95163092D02*
X126109143Y-95484521D01*
X126109143Y-95484521D02*
X125894858Y-95698807D01*
X125894858Y-95698807D02*
X125680572Y-95805950D01*
X127716286Y-95163092D02*
X129216286Y-95163092D01*
X129216286Y-95163092D02*
X128252000Y-97413092D01*
X129859143Y-95163092D02*
X131359143Y-95163092D01*
X131359143Y-95163092D02*
X130394857Y-97413092D01*
X132644857Y-95163092D02*
X132859143Y-95163092D01*
X132859143Y-95163092D02*
X133073429Y-95270235D01*
X133073429Y-95270235D02*
X133180572Y-95377378D01*
X133180572Y-95377378D02*
X133287714Y-95591664D01*
X133287714Y-95591664D02*
X133394857Y-96020235D01*
X133394857Y-96020235D02*
X133394857Y-96555950D01*
X133394857Y-96555950D02*
X133287714Y-96984521D01*
X133287714Y-96984521D02*
X133180572Y-97198807D01*
X133180572Y-97198807D02*
X133073429Y-97305950D01*
X133073429Y-97305950D02*
X132859143Y-97413092D01*
X132859143Y-97413092D02*
X132644857Y-97413092D01*
X132644857Y-97413092D02*
X132430572Y-97305950D01*
X132430572Y-97305950D02*
X132323429Y-97198807D01*
X132323429Y-97198807D02*
X132216286Y-96984521D01*
X132216286Y-96984521D02*
X132109143Y-96555950D01*
X132109143Y-96555950D02*
X132109143Y-96020235D01*
X132109143Y-96020235D02*
X132216286Y-95591664D01*
X132216286Y-95591664D02*
X132323429Y-95377378D01*
X132323429Y-95377378D02*
X132430572Y-95270235D01*
X132430572Y-95270235D02*
X132644857Y-95163092D01*
%TO.C,C4*%
X147707000Y-55288807D02*
X147599857Y-55395950D01*
X147599857Y-55395950D02*
X147278429Y-55503092D01*
X147278429Y-55503092D02*
X147064143Y-55503092D01*
X147064143Y-55503092D02*
X146742714Y-55395950D01*
X146742714Y-55395950D02*
X146528429Y-55181664D01*
X146528429Y-55181664D02*
X146421286Y-54967378D01*
X146421286Y-54967378D02*
X146314143Y-54538807D01*
X146314143Y-54538807D02*
X146314143Y-54217378D01*
X146314143Y-54217378D02*
X146421286Y-53788807D01*
X146421286Y-53788807D02*
X146528429Y-53574521D01*
X146528429Y-53574521D02*
X146742714Y-53360235D01*
X146742714Y-53360235D02*
X147064143Y-53253092D01*
X147064143Y-53253092D02*
X147278429Y-53253092D01*
X147278429Y-53253092D02*
X147599857Y-53360235D01*
X147599857Y-53360235D02*
X147707000Y-53467378D01*
X149635572Y-54003092D02*
X149635572Y-55503092D01*
X149099857Y-53145950D02*
X148564143Y-54753092D01*
X148564143Y-54753092D02*
X149957000Y-54753092D01*
%TO.C,C14*%
X93295571Y-106088807D02*
X93188428Y-106195950D01*
X93188428Y-106195950D02*
X92867000Y-106303092D01*
X92867000Y-106303092D02*
X92652714Y-106303092D01*
X92652714Y-106303092D02*
X92331285Y-106195950D01*
X92331285Y-106195950D02*
X92117000Y-105981664D01*
X92117000Y-105981664D02*
X92009857Y-105767378D01*
X92009857Y-105767378D02*
X91902714Y-105338807D01*
X91902714Y-105338807D02*
X91902714Y-105017378D01*
X91902714Y-105017378D02*
X92009857Y-104588807D01*
X92009857Y-104588807D02*
X92117000Y-104374521D01*
X92117000Y-104374521D02*
X92331285Y-104160235D01*
X92331285Y-104160235D02*
X92652714Y-104053092D01*
X92652714Y-104053092D02*
X92867000Y-104053092D01*
X92867000Y-104053092D02*
X93188428Y-104160235D01*
X93188428Y-104160235D02*
X93295571Y-104267378D01*
X95438428Y-106303092D02*
X94152714Y-106303092D01*
X94795571Y-106303092D02*
X94795571Y-104053092D01*
X94795571Y-104053092D02*
X94581285Y-104374521D01*
X94581285Y-104374521D02*
X94367000Y-104588807D01*
X94367000Y-104588807D02*
X94152714Y-104695950D01*
X97367000Y-104803092D02*
X97367000Y-106303092D01*
X96831285Y-103945950D02*
X96295571Y-105553092D01*
X96295571Y-105553092D02*
X97688428Y-105553092D01*
%TO.C,RP1*%
X128635333Y-53332747D02*
X127802000Y-52142271D01*
X127206762Y-53332747D02*
X127206762Y-50832747D01*
X127206762Y-50832747D02*
X128159143Y-50832747D01*
X128159143Y-50832747D02*
X128397238Y-50951795D01*
X128397238Y-50951795D02*
X128516285Y-51070842D01*
X128516285Y-51070842D02*
X128635333Y-51308938D01*
X128635333Y-51308938D02*
X128635333Y-51666080D01*
X128635333Y-51666080D02*
X128516285Y-51904176D01*
X128516285Y-51904176D02*
X128397238Y-52023223D01*
X128397238Y-52023223D02*
X128159143Y-52142271D01*
X128159143Y-52142271D02*
X127206762Y-52142271D01*
X129706762Y-53332747D02*
X129706762Y-50832747D01*
X129706762Y-50832747D02*
X130659143Y-50832747D01*
X130659143Y-50832747D02*
X130897238Y-50951795D01*
X130897238Y-50951795D02*
X131016285Y-51070842D01*
X131016285Y-51070842D02*
X131135333Y-51308938D01*
X131135333Y-51308938D02*
X131135333Y-51666080D01*
X131135333Y-51666080D02*
X131016285Y-51904176D01*
X131016285Y-51904176D02*
X130897238Y-52023223D01*
X130897238Y-52023223D02*
X130659143Y-52142271D01*
X130659143Y-52142271D02*
X129706762Y-52142271D01*
X133516285Y-53332747D02*
X132087714Y-53332747D01*
X132802000Y-53332747D02*
X132802000Y-50832747D01*
X132802000Y-50832747D02*
X132563904Y-51189890D01*
X132563904Y-51189890D02*
X132325809Y-51427985D01*
X132325809Y-51427985D02*
X132087714Y-51547033D01*
%TO.C,C8*%
X133142000Y-87038807D02*
X133034857Y-87145950D01*
X133034857Y-87145950D02*
X132713429Y-87253092D01*
X132713429Y-87253092D02*
X132499143Y-87253092D01*
X132499143Y-87253092D02*
X132177714Y-87145950D01*
X132177714Y-87145950D02*
X131963429Y-86931664D01*
X131963429Y-86931664D02*
X131856286Y-86717378D01*
X131856286Y-86717378D02*
X131749143Y-86288807D01*
X131749143Y-86288807D02*
X131749143Y-85967378D01*
X131749143Y-85967378D02*
X131856286Y-85538807D01*
X131856286Y-85538807D02*
X131963429Y-85324521D01*
X131963429Y-85324521D02*
X132177714Y-85110235D01*
X132177714Y-85110235D02*
X132499143Y-85003092D01*
X132499143Y-85003092D02*
X132713429Y-85003092D01*
X132713429Y-85003092D02*
X133034857Y-85110235D01*
X133034857Y-85110235D02*
X133142000Y-85217378D01*
X134427714Y-85967378D02*
X134213429Y-85860235D01*
X134213429Y-85860235D02*
X134106286Y-85753092D01*
X134106286Y-85753092D02*
X133999143Y-85538807D01*
X133999143Y-85538807D02*
X133999143Y-85431664D01*
X133999143Y-85431664D02*
X134106286Y-85217378D01*
X134106286Y-85217378D02*
X134213429Y-85110235D01*
X134213429Y-85110235D02*
X134427714Y-85003092D01*
X134427714Y-85003092D02*
X134856286Y-85003092D01*
X134856286Y-85003092D02*
X135070572Y-85110235D01*
X135070572Y-85110235D02*
X135177714Y-85217378D01*
X135177714Y-85217378D02*
X135284857Y-85431664D01*
X135284857Y-85431664D02*
X135284857Y-85538807D01*
X135284857Y-85538807D02*
X135177714Y-85753092D01*
X135177714Y-85753092D02*
X135070572Y-85860235D01*
X135070572Y-85860235D02*
X134856286Y-85967378D01*
X134856286Y-85967378D02*
X134427714Y-85967378D01*
X134427714Y-85967378D02*
X134213429Y-86074521D01*
X134213429Y-86074521D02*
X134106286Y-86181664D01*
X134106286Y-86181664D02*
X133999143Y-86395950D01*
X133999143Y-86395950D02*
X133999143Y-86824521D01*
X133999143Y-86824521D02*
X134106286Y-87038807D01*
X134106286Y-87038807D02*
X134213429Y-87145950D01*
X134213429Y-87145950D02*
X134427714Y-87253092D01*
X134427714Y-87253092D02*
X134856286Y-87253092D01*
X134856286Y-87253092D02*
X135070572Y-87145950D01*
X135070572Y-87145950D02*
X135177714Y-87038807D01*
X135177714Y-87038807D02*
X135284857Y-86824521D01*
X135284857Y-86824521D02*
X135284857Y-86395950D01*
X135284857Y-86395950D02*
X135177714Y-86181664D01*
X135177714Y-86181664D02*
X135070572Y-86074521D01*
X135070572Y-86074521D02*
X134856286Y-85967378D01*
%TO.C,RP2*%
X90535333Y-76192747D02*
X89702000Y-75002271D01*
X89106762Y-76192747D02*
X89106762Y-73692747D01*
X89106762Y-73692747D02*
X90059143Y-73692747D01*
X90059143Y-73692747D02*
X90297238Y-73811795D01*
X90297238Y-73811795D02*
X90416285Y-73930842D01*
X90416285Y-73930842D02*
X90535333Y-74168938D01*
X90535333Y-74168938D02*
X90535333Y-74526080D01*
X90535333Y-74526080D02*
X90416285Y-74764176D01*
X90416285Y-74764176D02*
X90297238Y-74883223D01*
X90297238Y-74883223D02*
X90059143Y-75002271D01*
X90059143Y-75002271D02*
X89106762Y-75002271D01*
X91606762Y-76192747D02*
X91606762Y-73692747D01*
X91606762Y-73692747D02*
X92559143Y-73692747D01*
X92559143Y-73692747D02*
X92797238Y-73811795D01*
X92797238Y-73811795D02*
X92916285Y-73930842D01*
X92916285Y-73930842D02*
X93035333Y-74168938D01*
X93035333Y-74168938D02*
X93035333Y-74526080D01*
X93035333Y-74526080D02*
X92916285Y-74764176D01*
X92916285Y-74764176D02*
X92797238Y-74883223D01*
X92797238Y-74883223D02*
X92559143Y-75002271D01*
X92559143Y-75002271D02*
X91606762Y-75002271D01*
X93987714Y-73930842D02*
X94106762Y-73811795D01*
X94106762Y-73811795D02*
X94344857Y-73692747D01*
X94344857Y-73692747D02*
X94940095Y-73692747D01*
X94940095Y-73692747D02*
X95178190Y-73811795D01*
X95178190Y-73811795D02*
X95297238Y-73930842D01*
X95297238Y-73930842D02*
X95416285Y-74168938D01*
X95416285Y-74168938D02*
X95416285Y-74407033D01*
X95416285Y-74407033D02*
X95297238Y-74764176D01*
X95297238Y-74764176D02*
X93868666Y-76192747D01*
X93868666Y-76192747D02*
X95416285Y-76192747D01*
%TO.C,C2*%
X184447807Y-108197999D02*
X184554950Y-108305142D01*
X184554950Y-108305142D02*
X184662092Y-108626570D01*
X184662092Y-108626570D02*
X184662092Y-108840856D01*
X184662092Y-108840856D02*
X184554950Y-109162285D01*
X184554950Y-109162285D02*
X184340664Y-109376570D01*
X184340664Y-109376570D02*
X184126378Y-109483713D01*
X184126378Y-109483713D02*
X183697807Y-109590856D01*
X183697807Y-109590856D02*
X183376378Y-109590856D01*
X183376378Y-109590856D02*
X182947807Y-109483713D01*
X182947807Y-109483713D02*
X182733521Y-109376570D01*
X182733521Y-109376570D02*
X182519235Y-109162285D01*
X182519235Y-109162285D02*
X182412092Y-108840856D01*
X182412092Y-108840856D02*
X182412092Y-108626570D01*
X182412092Y-108626570D02*
X182519235Y-108305142D01*
X182519235Y-108305142D02*
X182626378Y-108197999D01*
X182626378Y-107340856D02*
X182519235Y-107233713D01*
X182519235Y-107233713D02*
X182412092Y-107019428D01*
X182412092Y-107019428D02*
X182412092Y-106483713D01*
X182412092Y-106483713D02*
X182519235Y-106269428D01*
X182519235Y-106269428D02*
X182626378Y-106162285D01*
X182626378Y-106162285D02*
X182840664Y-106055142D01*
X182840664Y-106055142D02*
X183054950Y-106055142D01*
X183054950Y-106055142D02*
X183376378Y-106162285D01*
X183376378Y-106162285D02*
X184662092Y-107447999D01*
X184662092Y-107447999D02*
X184662092Y-106055142D01*
%TO.C,C1*%
X181997000Y-83863807D02*
X181889857Y-83970950D01*
X181889857Y-83970950D02*
X181568429Y-84078092D01*
X181568429Y-84078092D02*
X181354143Y-84078092D01*
X181354143Y-84078092D02*
X181032714Y-83970950D01*
X181032714Y-83970950D02*
X180818429Y-83756664D01*
X180818429Y-83756664D02*
X180711286Y-83542378D01*
X180711286Y-83542378D02*
X180604143Y-83113807D01*
X180604143Y-83113807D02*
X180604143Y-82792378D01*
X180604143Y-82792378D02*
X180711286Y-82363807D01*
X180711286Y-82363807D02*
X180818429Y-82149521D01*
X180818429Y-82149521D02*
X181032714Y-81935235D01*
X181032714Y-81935235D02*
X181354143Y-81828092D01*
X181354143Y-81828092D02*
X181568429Y-81828092D01*
X181568429Y-81828092D02*
X181889857Y-81935235D01*
X181889857Y-81935235D02*
X181997000Y-82042378D01*
X184139857Y-84078092D02*
X182854143Y-84078092D01*
X183497000Y-84078092D02*
X183497000Y-81828092D01*
X183497000Y-81828092D02*
X183282714Y-82149521D01*
X183282714Y-82149521D02*
X183068429Y-82363807D01*
X183068429Y-82363807D02*
X182854143Y-82470950D01*
D14*
%TO.C,U7*%
X100965095Y-85687819D02*
X100965095Y-86497342D01*
X100965095Y-86497342D02*
X101012714Y-86592580D01*
X101012714Y-86592580D02*
X101060333Y-86640200D01*
X101060333Y-86640200D02*
X101155571Y-86687819D01*
X101155571Y-86687819D02*
X101346047Y-86687819D01*
X101346047Y-86687819D02*
X101441285Y-86640200D01*
X101441285Y-86640200D02*
X101488904Y-86592580D01*
X101488904Y-86592580D02*
X101536523Y-86497342D01*
X101536523Y-86497342D02*
X101536523Y-85687819D01*
X101917476Y-85687819D02*
X102584142Y-85687819D01*
X102584142Y-85687819D02*
X102155571Y-86687819D01*
D15*
X88777092Y-100180857D02*
X88777092Y-101252285D01*
X88777092Y-101252285D02*
X86527092Y-101252285D01*
X88669950Y-99537999D02*
X88777092Y-99216571D01*
X88777092Y-99216571D02*
X88777092Y-98680856D01*
X88777092Y-98680856D02*
X88669950Y-98466571D01*
X88669950Y-98466571D02*
X88562807Y-98359428D01*
X88562807Y-98359428D02*
X88348521Y-98252285D01*
X88348521Y-98252285D02*
X88134235Y-98252285D01*
X88134235Y-98252285D02*
X87919950Y-98359428D01*
X87919950Y-98359428D02*
X87812807Y-98466571D01*
X87812807Y-98466571D02*
X87705664Y-98680856D01*
X87705664Y-98680856D02*
X87598521Y-99109428D01*
X87598521Y-99109428D02*
X87491378Y-99323713D01*
X87491378Y-99323713D02*
X87384235Y-99430856D01*
X87384235Y-99430856D02*
X87169950Y-99537999D01*
X87169950Y-99537999D02*
X86955664Y-99537999D01*
X86955664Y-99537999D02*
X86741378Y-99430856D01*
X86741378Y-99430856D02*
X86634235Y-99323713D01*
X86634235Y-99323713D02*
X86527092Y-99109428D01*
X86527092Y-99109428D02*
X86527092Y-98573713D01*
X86527092Y-98573713D02*
X86634235Y-98252285D01*
X86527092Y-96859428D02*
X86527092Y-96645142D01*
X86527092Y-96645142D02*
X86634235Y-96430856D01*
X86634235Y-96430856D02*
X86741378Y-96323714D01*
X86741378Y-96323714D02*
X86955664Y-96216571D01*
X86955664Y-96216571D02*
X87384235Y-96109428D01*
X87384235Y-96109428D02*
X87919950Y-96109428D01*
X87919950Y-96109428D02*
X88348521Y-96216571D01*
X88348521Y-96216571D02*
X88562807Y-96323714D01*
X88562807Y-96323714D02*
X88669950Y-96430856D01*
X88669950Y-96430856D02*
X88777092Y-96645142D01*
X88777092Y-96645142D02*
X88777092Y-96859428D01*
X88777092Y-96859428D02*
X88669950Y-97073714D01*
X88669950Y-97073714D02*
X88562807Y-97180856D01*
X88562807Y-97180856D02*
X88348521Y-97287999D01*
X88348521Y-97287999D02*
X87919950Y-97395142D01*
X87919950Y-97395142D02*
X87384235Y-97395142D01*
X87384235Y-97395142D02*
X86955664Y-97287999D01*
X86955664Y-97287999D02*
X86741378Y-97180856D01*
X86741378Y-97180856D02*
X86634235Y-97073714D01*
X86634235Y-97073714D02*
X86527092Y-96859428D01*
X86527092Y-94716571D02*
X86527092Y-94502285D01*
X86527092Y-94502285D02*
X86634235Y-94287999D01*
X86634235Y-94287999D02*
X86741378Y-94180857D01*
X86741378Y-94180857D02*
X86955664Y-94073714D01*
X86955664Y-94073714D02*
X87384235Y-93966571D01*
X87384235Y-93966571D02*
X87919950Y-93966571D01*
X87919950Y-93966571D02*
X88348521Y-94073714D01*
X88348521Y-94073714D02*
X88562807Y-94180857D01*
X88562807Y-94180857D02*
X88669950Y-94287999D01*
X88669950Y-94287999D02*
X88777092Y-94502285D01*
X88777092Y-94502285D02*
X88777092Y-94716571D01*
X88777092Y-94716571D02*
X88669950Y-94930857D01*
X88669950Y-94930857D02*
X88562807Y-95037999D01*
X88562807Y-95037999D02*
X88348521Y-95145142D01*
X88348521Y-95145142D02*
X87919950Y-95252285D01*
X87919950Y-95252285D02*
X87384235Y-95252285D01*
X87384235Y-95252285D02*
X86955664Y-95145142D01*
X86955664Y-95145142D02*
X86741378Y-95037999D01*
X86741378Y-95037999D02*
X86634235Y-94930857D01*
X86634235Y-94930857D02*
X86527092Y-94716571D01*
%TO.C,C10*%
X133647807Y-111174428D02*
X133754950Y-111281571D01*
X133754950Y-111281571D02*
X133862092Y-111602999D01*
X133862092Y-111602999D02*
X133862092Y-111817285D01*
X133862092Y-111817285D02*
X133754950Y-112138714D01*
X133754950Y-112138714D02*
X133540664Y-112352999D01*
X133540664Y-112352999D02*
X133326378Y-112460142D01*
X133326378Y-112460142D02*
X132897807Y-112567285D01*
X132897807Y-112567285D02*
X132576378Y-112567285D01*
X132576378Y-112567285D02*
X132147807Y-112460142D01*
X132147807Y-112460142D02*
X131933521Y-112352999D01*
X131933521Y-112352999D02*
X131719235Y-112138714D01*
X131719235Y-112138714D02*
X131612092Y-111817285D01*
X131612092Y-111817285D02*
X131612092Y-111602999D01*
X131612092Y-111602999D02*
X131719235Y-111281571D01*
X131719235Y-111281571D02*
X131826378Y-111174428D01*
X133862092Y-109031571D02*
X133862092Y-110317285D01*
X133862092Y-109674428D02*
X131612092Y-109674428D01*
X131612092Y-109674428D02*
X131933521Y-109888714D01*
X131933521Y-109888714D02*
X132147807Y-110102999D01*
X132147807Y-110102999D02*
X132254950Y-110317285D01*
X131612092Y-107638714D02*
X131612092Y-107424428D01*
X131612092Y-107424428D02*
X131719235Y-107210142D01*
X131719235Y-107210142D02*
X131826378Y-107103000D01*
X131826378Y-107103000D02*
X132040664Y-106995857D01*
X132040664Y-106995857D02*
X132469235Y-106888714D01*
X132469235Y-106888714D02*
X133004950Y-106888714D01*
X133004950Y-106888714D02*
X133433521Y-106995857D01*
X133433521Y-106995857D02*
X133647807Y-107103000D01*
X133647807Y-107103000D02*
X133754950Y-107210142D01*
X133754950Y-107210142D02*
X133862092Y-107424428D01*
X133862092Y-107424428D02*
X133862092Y-107638714D01*
X133862092Y-107638714D02*
X133754950Y-107853000D01*
X133754950Y-107853000D02*
X133647807Y-107960142D01*
X133647807Y-107960142D02*
X133433521Y-108067285D01*
X133433521Y-108067285D02*
X133004950Y-108174428D01*
X133004950Y-108174428D02*
X132469235Y-108174428D01*
X132469235Y-108174428D02*
X132040664Y-108067285D01*
X132040664Y-108067285D02*
X131826378Y-107960142D01*
X131826378Y-107960142D02*
X131719235Y-107853000D01*
X131719235Y-107853000D02*
X131612092Y-107638714D01*
%TO.C,Q1*%
X169140842Y-91551095D02*
X169021795Y-91789190D01*
X169021795Y-91789190D02*
X168783700Y-92027285D01*
X168783700Y-92027285D02*
X168426557Y-92384428D01*
X168426557Y-92384428D02*
X168307509Y-92622523D01*
X168307509Y-92622523D02*
X168307509Y-92860619D01*
X168902747Y-92741571D02*
X168783700Y-92979666D01*
X168783700Y-92979666D02*
X168545604Y-93217761D01*
X168545604Y-93217761D02*
X168069414Y-93336809D01*
X168069414Y-93336809D02*
X167236080Y-93336809D01*
X167236080Y-93336809D02*
X166759890Y-93217761D01*
X166759890Y-93217761D02*
X166521795Y-92979666D01*
X166521795Y-92979666D02*
X166402747Y-92741571D01*
X166402747Y-92741571D02*
X166402747Y-92265380D01*
X166402747Y-92265380D02*
X166521795Y-92027285D01*
X166521795Y-92027285D02*
X166759890Y-91789190D01*
X166759890Y-91789190D02*
X167236080Y-91670142D01*
X167236080Y-91670142D02*
X168069414Y-91670142D01*
X168069414Y-91670142D02*
X168545604Y-91789190D01*
X168545604Y-91789190D02*
X168783700Y-92027285D01*
X168783700Y-92027285D02*
X168902747Y-92265380D01*
X168902747Y-92265380D02*
X168902747Y-92741571D01*
X168902747Y-89289190D02*
X168902747Y-90717761D01*
X168902747Y-90003475D02*
X166402747Y-90003475D01*
X166402747Y-90003475D02*
X166759890Y-90241571D01*
X166759890Y-90241571D02*
X166997985Y-90479666D01*
X166997985Y-90479666D02*
X167117033Y-90717761D01*
%TO.C,C9*%
X133182000Y-90848807D02*
X133074857Y-90955950D01*
X133074857Y-90955950D02*
X132753429Y-91063092D01*
X132753429Y-91063092D02*
X132539143Y-91063092D01*
X132539143Y-91063092D02*
X132217714Y-90955950D01*
X132217714Y-90955950D02*
X132003429Y-90741664D01*
X132003429Y-90741664D02*
X131896286Y-90527378D01*
X131896286Y-90527378D02*
X131789143Y-90098807D01*
X131789143Y-90098807D02*
X131789143Y-89777378D01*
X131789143Y-89777378D02*
X131896286Y-89348807D01*
X131896286Y-89348807D02*
X132003429Y-89134521D01*
X132003429Y-89134521D02*
X132217714Y-88920235D01*
X132217714Y-88920235D02*
X132539143Y-88813092D01*
X132539143Y-88813092D02*
X132753429Y-88813092D01*
X132753429Y-88813092D02*
X133074857Y-88920235D01*
X133074857Y-88920235D02*
X133182000Y-89027378D01*
X134253429Y-91063092D02*
X134682000Y-91063092D01*
X134682000Y-91063092D02*
X134896286Y-90955950D01*
X134896286Y-90955950D02*
X135003429Y-90848807D01*
X135003429Y-90848807D02*
X135217714Y-90527378D01*
X135217714Y-90527378D02*
X135324857Y-90098807D01*
X135324857Y-90098807D02*
X135324857Y-89241664D01*
X135324857Y-89241664D02*
X135217714Y-89027378D01*
X135217714Y-89027378D02*
X135110572Y-88920235D01*
X135110572Y-88920235D02*
X134896286Y-88813092D01*
X134896286Y-88813092D02*
X134467714Y-88813092D01*
X134467714Y-88813092D02*
X134253429Y-88920235D01*
X134253429Y-88920235D02*
X134146286Y-89027378D01*
X134146286Y-89027378D02*
X134039143Y-89241664D01*
X134039143Y-89241664D02*
X134039143Y-89777378D01*
X134039143Y-89777378D02*
X134146286Y-89991664D01*
X134146286Y-89991664D02*
X134253429Y-90098807D01*
X134253429Y-90098807D02*
X134467714Y-90205950D01*
X134467714Y-90205950D02*
X134896286Y-90205950D01*
X134896286Y-90205950D02*
X135110572Y-90098807D01*
X135110572Y-90098807D02*
X135217714Y-89991664D01*
X135217714Y-89991664D02*
X135324857Y-89777378D01*
D14*
%TO.C,U3*%
X116205095Y-75527819D02*
X116205095Y-76337342D01*
X116205095Y-76337342D02*
X116252714Y-76432580D01*
X116252714Y-76432580D02*
X116300333Y-76480200D01*
X116300333Y-76480200D02*
X116395571Y-76527819D01*
X116395571Y-76527819D02*
X116586047Y-76527819D01*
X116586047Y-76527819D02*
X116681285Y-76480200D01*
X116681285Y-76480200D02*
X116728904Y-76432580D01*
X116728904Y-76432580D02*
X116776523Y-76337342D01*
X116776523Y-76337342D02*
X116776523Y-75527819D01*
X117157476Y-75527819D02*
X117776523Y-75527819D01*
X117776523Y-75527819D02*
X117443190Y-75908771D01*
X117443190Y-75908771D02*
X117586047Y-75908771D01*
X117586047Y-75908771D02*
X117681285Y-75956390D01*
X117681285Y-75956390D02*
X117728904Y-76004009D01*
X117728904Y-76004009D02*
X117776523Y-76099247D01*
X117776523Y-76099247D02*
X117776523Y-76337342D01*
X117776523Y-76337342D02*
X117728904Y-76432580D01*
X117728904Y-76432580D02*
X117681285Y-76480200D01*
X117681285Y-76480200D02*
X117586047Y-76527819D01*
X117586047Y-76527819D02*
X117300333Y-76527819D01*
X117300333Y-76527819D02*
X117205095Y-76480200D01*
X117205095Y-76480200D02*
X117157476Y-76432580D01*
D15*
X125607092Y-81130857D02*
X125607092Y-82202285D01*
X125607092Y-82202285D02*
X123357092Y-82202285D01*
X125499950Y-80487999D02*
X125607092Y-80166571D01*
X125607092Y-80166571D02*
X125607092Y-79630856D01*
X125607092Y-79630856D02*
X125499950Y-79416571D01*
X125499950Y-79416571D02*
X125392807Y-79309428D01*
X125392807Y-79309428D02*
X125178521Y-79202285D01*
X125178521Y-79202285D02*
X124964235Y-79202285D01*
X124964235Y-79202285D02*
X124749950Y-79309428D01*
X124749950Y-79309428D02*
X124642807Y-79416571D01*
X124642807Y-79416571D02*
X124535664Y-79630856D01*
X124535664Y-79630856D02*
X124428521Y-80059428D01*
X124428521Y-80059428D02*
X124321378Y-80273713D01*
X124321378Y-80273713D02*
X124214235Y-80380856D01*
X124214235Y-80380856D02*
X123999950Y-80487999D01*
X123999950Y-80487999D02*
X123785664Y-80487999D01*
X123785664Y-80487999D02*
X123571378Y-80380856D01*
X123571378Y-80380856D02*
X123464235Y-80273713D01*
X123464235Y-80273713D02*
X123357092Y-80059428D01*
X123357092Y-80059428D02*
X123357092Y-79523713D01*
X123357092Y-79523713D02*
X123464235Y-79202285D01*
X123357092Y-77809428D02*
X123357092Y-77595142D01*
X123357092Y-77595142D02*
X123464235Y-77380856D01*
X123464235Y-77380856D02*
X123571378Y-77273714D01*
X123571378Y-77273714D02*
X123785664Y-77166571D01*
X123785664Y-77166571D02*
X124214235Y-77059428D01*
X124214235Y-77059428D02*
X124749950Y-77059428D01*
X124749950Y-77059428D02*
X125178521Y-77166571D01*
X125178521Y-77166571D02*
X125392807Y-77273714D01*
X125392807Y-77273714D02*
X125499950Y-77380856D01*
X125499950Y-77380856D02*
X125607092Y-77595142D01*
X125607092Y-77595142D02*
X125607092Y-77809428D01*
X125607092Y-77809428D02*
X125499950Y-78023714D01*
X125499950Y-78023714D02*
X125392807Y-78130856D01*
X125392807Y-78130856D02*
X125178521Y-78237999D01*
X125178521Y-78237999D02*
X124749950Y-78345142D01*
X124749950Y-78345142D02*
X124214235Y-78345142D01*
X124214235Y-78345142D02*
X123785664Y-78237999D01*
X123785664Y-78237999D02*
X123571378Y-78130856D01*
X123571378Y-78130856D02*
X123464235Y-78023714D01*
X123464235Y-78023714D02*
X123357092Y-77809428D01*
X123357092Y-76309428D02*
X123357092Y-74916571D01*
X123357092Y-74916571D02*
X124214235Y-75666571D01*
X124214235Y-75666571D02*
X124214235Y-75345142D01*
X124214235Y-75345142D02*
X124321378Y-75130857D01*
X124321378Y-75130857D02*
X124428521Y-75023714D01*
X124428521Y-75023714D02*
X124642807Y-74916571D01*
X124642807Y-74916571D02*
X125178521Y-74916571D01*
X125178521Y-74916571D02*
X125392807Y-75023714D01*
X125392807Y-75023714D02*
X125499950Y-75130857D01*
X125499950Y-75130857D02*
X125607092Y-75345142D01*
X125607092Y-75345142D02*
X125607092Y-75987999D01*
X125607092Y-75987999D02*
X125499950Y-76202285D01*
X125499950Y-76202285D02*
X125392807Y-76309428D01*
%TO.C,C11*%
X109170571Y-70528807D02*
X109063428Y-70635950D01*
X109063428Y-70635950D02*
X108742000Y-70743092D01*
X108742000Y-70743092D02*
X108527714Y-70743092D01*
X108527714Y-70743092D02*
X108206285Y-70635950D01*
X108206285Y-70635950D02*
X107992000Y-70421664D01*
X107992000Y-70421664D02*
X107884857Y-70207378D01*
X107884857Y-70207378D02*
X107777714Y-69778807D01*
X107777714Y-69778807D02*
X107777714Y-69457378D01*
X107777714Y-69457378D02*
X107884857Y-69028807D01*
X107884857Y-69028807D02*
X107992000Y-68814521D01*
X107992000Y-68814521D02*
X108206285Y-68600235D01*
X108206285Y-68600235D02*
X108527714Y-68493092D01*
X108527714Y-68493092D02*
X108742000Y-68493092D01*
X108742000Y-68493092D02*
X109063428Y-68600235D01*
X109063428Y-68600235D02*
X109170571Y-68707378D01*
X111313428Y-70743092D02*
X110027714Y-70743092D01*
X110670571Y-70743092D02*
X110670571Y-68493092D01*
X110670571Y-68493092D02*
X110456285Y-68814521D01*
X110456285Y-68814521D02*
X110242000Y-69028807D01*
X110242000Y-69028807D02*
X110027714Y-69135950D01*
X113456285Y-70743092D02*
X112170571Y-70743092D01*
X112813428Y-70743092D02*
X112813428Y-68493092D01*
X112813428Y-68493092D02*
X112599142Y-68814521D01*
X112599142Y-68814521D02*
X112384857Y-69028807D01*
X112384857Y-69028807D02*
X112170571Y-69135950D01*
%TO.C,C7*%
X138182000Y-59098807D02*
X138074857Y-59205950D01*
X138074857Y-59205950D02*
X137753429Y-59313092D01*
X137753429Y-59313092D02*
X137539143Y-59313092D01*
X137539143Y-59313092D02*
X137217714Y-59205950D01*
X137217714Y-59205950D02*
X137003429Y-58991664D01*
X137003429Y-58991664D02*
X136896286Y-58777378D01*
X136896286Y-58777378D02*
X136789143Y-58348807D01*
X136789143Y-58348807D02*
X136789143Y-58027378D01*
X136789143Y-58027378D02*
X136896286Y-57598807D01*
X136896286Y-57598807D02*
X137003429Y-57384521D01*
X137003429Y-57384521D02*
X137217714Y-57170235D01*
X137217714Y-57170235D02*
X137539143Y-57063092D01*
X137539143Y-57063092D02*
X137753429Y-57063092D01*
X137753429Y-57063092D02*
X138074857Y-57170235D01*
X138074857Y-57170235D02*
X138182000Y-57277378D01*
X138932000Y-57063092D02*
X140432000Y-57063092D01*
X140432000Y-57063092D02*
X139467714Y-59313092D01*
D14*
%TO.C,U11*%
X137318905Y-116167819D02*
X137318905Y-116977342D01*
X137318905Y-116977342D02*
X137366524Y-117072580D01*
X137366524Y-117072580D02*
X137414143Y-117120200D01*
X137414143Y-117120200D02*
X137509381Y-117167819D01*
X137509381Y-117167819D02*
X137699857Y-117167819D01*
X137699857Y-117167819D02*
X137795095Y-117120200D01*
X137795095Y-117120200D02*
X137842714Y-117072580D01*
X137842714Y-117072580D02*
X137890333Y-116977342D01*
X137890333Y-116977342D02*
X137890333Y-116167819D01*
X138890333Y-117167819D02*
X138318905Y-117167819D01*
X138604619Y-117167819D02*
X138604619Y-116167819D01*
X138604619Y-116167819D02*
X138509381Y-116310676D01*
X138509381Y-116310676D02*
X138414143Y-116405914D01*
X138414143Y-116405914D02*
X138318905Y-116453533D01*
X139842714Y-117167819D02*
X139271286Y-117167819D01*
X139557000Y-117167819D02*
X139557000Y-116167819D01*
X139557000Y-116167819D02*
X139461762Y-116310676D01*
X139461762Y-116310676D02*
X139366524Y-116405914D01*
X139366524Y-116405914D02*
X139271286Y-116453533D01*
D15*
X134967714Y-141228092D02*
X133896286Y-141228092D01*
X133896286Y-141228092D02*
X133896286Y-138978092D01*
X135610572Y-141120950D02*
X135932001Y-141228092D01*
X135932001Y-141228092D02*
X136467715Y-141228092D01*
X136467715Y-141228092D02*
X136682001Y-141120950D01*
X136682001Y-141120950D02*
X136789143Y-141013807D01*
X136789143Y-141013807D02*
X136896286Y-140799521D01*
X136896286Y-140799521D02*
X136896286Y-140585235D01*
X136896286Y-140585235D02*
X136789143Y-140370950D01*
X136789143Y-140370950D02*
X136682001Y-140263807D01*
X136682001Y-140263807D02*
X136467715Y-140156664D01*
X136467715Y-140156664D02*
X136039143Y-140049521D01*
X136039143Y-140049521D02*
X135824858Y-139942378D01*
X135824858Y-139942378D02*
X135717715Y-139835235D01*
X135717715Y-139835235D02*
X135610572Y-139620950D01*
X135610572Y-139620950D02*
X135610572Y-139406664D01*
X135610572Y-139406664D02*
X135717715Y-139192378D01*
X135717715Y-139192378D02*
X135824858Y-139085235D01*
X135824858Y-139085235D02*
X136039143Y-138978092D01*
X136039143Y-138978092D02*
X136574858Y-138978092D01*
X136574858Y-138978092D02*
X136896286Y-139085235D01*
X139039143Y-141228092D02*
X137753429Y-141228092D01*
X138396286Y-141228092D02*
X138396286Y-138978092D01*
X138396286Y-138978092D02*
X138182000Y-139299521D01*
X138182000Y-139299521D02*
X137967715Y-139513807D01*
X137967715Y-139513807D02*
X137753429Y-139620950D01*
X139789143Y-138978092D02*
X141289143Y-138978092D01*
X141289143Y-138978092D02*
X140324857Y-141228092D01*
X143110572Y-139728092D02*
X143110572Y-141228092D01*
X142574857Y-138870950D02*
X142039143Y-140478092D01*
X142039143Y-140478092D02*
X143432000Y-140478092D01*
%TO.C,C13*%
X101590571Y-76878807D02*
X101483428Y-76985950D01*
X101483428Y-76985950D02*
X101162000Y-77093092D01*
X101162000Y-77093092D02*
X100947714Y-77093092D01*
X100947714Y-77093092D02*
X100626285Y-76985950D01*
X100626285Y-76985950D02*
X100412000Y-76771664D01*
X100412000Y-76771664D02*
X100304857Y-76557378D01*
X100304857Y-76557378D02*
X100197714Y-76128807D01*
X100197714Y-76128807D02*
X100197714Y-75807378D01*
X100197714Y-75807378D02*
X100304857Y-75378807D01*
X100304857Y-75378807D02*
X100412000Y-75164521D01*
X100412000Y-75164521D02*
X100626285Y-74950235D01*
X100626285Y-74950235D02*
X100947714Y-74843092D01*
X100947714Y-74843092D02*
X101162000Y-74843092D01*
X101162000Y-74843092D02*
X101483428Y-74950235D01*
X101483428Y-74950235D02*
X101590571Y-75057378D01*
X103733428Y-77093092D02*
X102447714Y-77093092D01*
X103090571Y-77093092D02*
X103090571Y-74843092D01*
X103090571Y-74843092D02*
X102876285Y-75164521D01*
X102876285Y-75164521D02*
X102662000Y-75378807D01*
X102662000Y-75378807D02*
X102447714Y-75485950D01*
X104483428Y-74843092D02*
X105876285Y-74843092D01*
X105876285Y-74843092D02*
X105126285Y-75700235D01*
X105126285Y-75700235D02*
X105447714Y-75700235D01*
X105447714Y-75700235D02*
X105662000Y-75807378D01*
X105662000Y-75807378D02*
X105769142Y-75914521D01*
X105769142Y-75914521D02*
X105876285Y-76128807D01*
X105876285Y-76128807D02*
X105876285Y-76664521D01*
X105876285Y-76664521D02*
X105769142Y-76878807D01*
X105769142Y-76878807D02*
X105662000Y-76985950D01*
X105662000Y-76985950D02*
X105447714Y-77093092D01*
X105447714Y-77093092D02*
X104804857Y-77093092D01*
X104804857Y-77093092D02*
X104590571Y-76985950D01*
X104590571Y-76985950D02*
X104483428Y-76878807D01*
D14*
%TO.C,U2*%
X175260095Y-88100819D02*
X175260095Y-88910342D01*
X175260095Y-88910342D02*
X175307714Y-89005580D01*
X175307714Y-89005580D02*
X175355333Y-89053200D01*
X175355333Y-89053200D02*
X175450571Y-89100819D01*
X175450571Y-89100819D02*
X175641047Y-89100819D01*
X175641047Y-89100819D02*
X175736285Y-89053200D01*
X175736285Y-89053200D02*
X175783904Y-89005580D01*
X175783904Y-89005580D02*
X175831523Y-88910342D01*
X175831523Y-88910342D02*
X175831523Y-88100819D01*
X176260095Y-88196057D02*
X176307714Y-88148438D01*
X176307714Y-88148438D02*
X176402952Y-88100819D01*
X176402952Y-88100819D02*
X176641047Y-88100819D01*
X176641047Y-88100819D02*
X176736285Y-88148438D01*
X176736285Y-88148438D02*
X176783904Y-88196057D01*
X176783904Y-88196057D02*
X176831523Y-88291295D01*
X176831523Y-88291295D02*
X176831523Y-88386533D01*
X176831523Y-88386533D02*
X176783904Y-88529390D01*
X176783904Y-88529390D02*
X176212476Y-89100819D01*
X176212476Y-89100819D02*
X176831523Y-89100819D01*
D15*
X184777747Y-99111094D02*
X184777747Y-100301570D01*
X184777747Y-100301570D02*
X182277747Y-100301570D01*
X184658700Y-98396808D02*
X184777747Y-98039665D01*
X184777747Y-98039665D02*
X184777747Y-97444427D01*
X184777747Y-97444427D02*
X184658700Y-97206332D01*
X184658700Y-97206332D02*
X184539652Y-97087284D01*
X184539652Y-97087284D02*
X184301557Y-96968237D01*
X184301557Y-96968237D02*
X184063461Y-96968237D01*
X184063461Y-96968237D02*
X183825366Y-97087284D01*
X183825366Y-97087284D02*
X183706319Y-97206332D01*
X183706319Y-97206332D02*
X183587271Y-97444427D01*
X183587271Y-97444427D02*
X183468223Y-97920618D01*
X183468223Y-97920618D02*
X183349176Y-98158713D01*
X183349176Y-98158713D02*
X183230128Y-98277760D01*
X183230128Y-98277760D02*
X182992033Y-98396808D01*
X182992033Y-98396808D02*
X182753938Y-98396808D01*
X182753938Y-98396808D02*
X182515842Y-98277760D01*
X182515842Y-98277760D02*
X182396795Y-98158713D01*
X182396795Y-98158713D02*
X182277747Y-97920618D01*
X182277747Y-97920618D02*
X182277747Y-97325379D01*
X182277747Y-97325379D02*
X182396795Y-96968237D01*
X182515842Y-96015856D02*
X182396795Y-95896808D01*
X182396795Y-95896808D02*
X182277747Y-95658713D01*
X182277747Y-95658713D02*
X182277747Y-95063475D01*
X182277747Y-95063475D02*
X182396795Y-94825380D01*
X182396795Y-94825380D02*
X182515842Y-94706332D01*
X182515842Y-94706332D02*
X182753938Y-94587285D01*
X182753938Y-94587285D02*
X182992033Y-94587285D01*
X182992033Y-94587285D02*
X183349176Y-94706332D01*
X183349176Y-94706332D02*
X184777747Y-96134904D01*
X184777747Y-96134904D02*
X184777747Y-94587285D01*
X182277747Y-92444428D02*
X182277747Y-92920618D01*
X182277747Y-92920618D02*
X182396795Y-93158714D01*
X182396795Y-93158714D02*
X182515842Y-93277761D01*
X182515842Y-93277761D02*
X182872985Y-93515856D01*
X182872985Y-93515856D02*
X183349176Y-93634904D01*
X183349176Y-93634904D02*
X184301557Y-93634904D01*
X184301557Y-93634904D02*
X184539652Y-93515856D01*
X184539652Y-93515856D02*
X184658700Y-93396809D01*
X184658700Y-93396809D02*
X184777747Y-93158714D01*
X184777747Y-93158714D02*
X184777747Y-92682523D01*
X184777747Y-92682523D02*
X184658700Y-92444428D01*
X184658700Y-92444428D02*
X184539652Y-92325380D01*
X184539652Y-92325380D02*
X184301557Y-92206333D01*
X184301557Y-92206333D02*
X183706319Y-92206333D01*
X183706319Y-92206333D02*
X183468223Y-92325380D01*
X183468223Y-92325380D02*
X183349176Y-92444428D01*
X183349176Y-92444428D02*
X183230128Y-92682523D01*
X183230128Y-92682523D02*
X183230128Y-93158714D01*
X183230128Y-93158714D02*
X183349176Y-93396809D01*
X183349176Y-93396809D02*
X183468223Y-93515856D01*
X183468223Y-93515856D02*
X183706319Y-93634904D01*
X182277747Y-90063476D02*
X182277747Y-90539666D01*
X182277747Y-90539666D02*
X182396795Y-90777762D01*
X182396795Y-90777762D02*
X182515842Y-90896809D01*
X182515842Y-90896809D02*
X182872985Y-91134904D01*
X182872985Y-91134904D02*
X183349176Y-91253952D01*
X183349176Y-91253952D02*
X184301557Y-91253952D01*
X184301557Y-91253952D02*
X184539652Y-91134904D01*
X184539652Y-91134904D02*
X184658700Y-91015857D01*
X184658700Y-91015857D02*
X184777747Y-90777762D01*
X184777747Y-90777762D02*
X184777747Y-90301571D01*
X184777747Y-90301571D02*
X184658700Y-90063476D01*
X184658700Y-90063476D02*
X184539652Y-89944428D01*
X184539652Y-89944428D02*
X184301557Y-89825381D01*
X184301557Y-89825381D02*
X183706319Y-89825381D01*
X183706319Y-89825381D02*
X183468223Y-89944428D01*
X183468223Y-89944428D02*
X183349176Y-90063476D01*
X183349176Y-90063476D02*
X183230128Y-90301571D01*
X183230128Y-90301571D02*
X183230128Y-90777762D01*
X183230128Y-90777762D02*
X183349176Y-91015857D01*
X183349176Y-91015857D02*
X183468223Y-91134904D01*
X183468223Y-91134904D02*
X183706319Y-91253952D01*
D10*
%TO.C,U1*%
X167727000Y-60643000D02*
X167727000Y-76533000D01*
X167727000Y-60643000D02*
X177967000Y-60643000D01*
X167727000Y-76533000D02*
X177967000Y-76533000D01*
X170307000Y-76533000D02*
X170307000Y-79073000D01*
X172847000Y-76533000D02*
X172847000Y-79073000D01*
X175387000Y-76533000D02*
X175387000Y-79073000D01*
X177967000Y-60643000D02*
X177967000Y-76533000D01*
%TO.C,C6*%
X158727000Y-99033000D02*
X158727000Y-96293000D01*
X158727000Y-99033000D02*
X151487000Y-99033000D01*
X158727000Y-96293000D02*
X151487000Y-96293000D01*
X151487000Y-99033000D02*
X151487000Y-96293000D01*
%TO.C,C3*%
X158727000Y-58393000D02*
X158727000Y-55653000D01*
X158727000Y-58393000D02*
X151487000Y-58393000D01*
X158727000Y-55653000D02*
X151487000Y-55653000D01*
X151487000Y-58393000D02*
X151487000Y-55653000D01*
%TO.C,U9*%
X148657000Y-101353000D02*
X148657000Y-137153000D01*
X148657000Y-137153000D02*
X166557000Y-137153000D01*
X151147000Y-101413000D02*
X151147000Y-137093000D01*
X151147000Y-137093000D02*
X164067000Y-137093000D01*
X156607000Y-101413000D02*
X151147000Y-101413000D01*
X164067000Y-101413000D02*
X158607000Y-101413000D01*
X164067000Y-137093000D02*
X164067000Y-101413000D01*
X166557000Y-101353000D02*
X148657000Y-101353000D01*
X166557000Y-137153000D02*
X166557000Y-101353000D01*
X156607000Y-101413000D02*
G75*
G03*
X158607000Y-101413000I1000000J0D01*
G01*
%TO.C,U5*%
X170867000Y-111518000D02*
X170867000Y-137158000D01*
X170867000Y-137158000D02*
X181147000Y-137158000D01*
X173357000Y-111578000D02*
X173357000Y-137098000D01*
X173357000Y-137098000D02*
X178657000Y-137098000D01*
X175007000Y-111578000D02*
X173357000Y-111578000D01*
X178657000Y-111578000D02*
X177007000Y-111578000D01*
X178657000Y-137098000D02*
X178657000Y-111578000D01*
X181147000Y-111518000D02*
X170867000Y-111518000D01*
X181147000Y-137158000D02*
X181147000Y-111518000D01*
X175007000Y-111578000D02*
G75*
G03*
X177007000Y-111578000I1000000J0D01*
G01*
%TO.C,U6*%
X134052000Y-65793000D02*
X134052000Y-83813000D01*
X134052000Y-83813000D02*
X144332000Y-83813000D01*
X136542000Y-65853000D02*
X136542000Y-83753000D01*
X136542000Y-83753000D02*
X141842000Y-83753000D01*
X138192000Y-65853000D02*
X136542000Y-65853000D01*
X141842000Y-65853000D02*
X140192000Y-65853000D01*
X141842000Y-83753000D02*
X141842000Y-65853000D01*
X144332000Y-65793000D02*
X134052000Y-65793000D01*
X144332000Y-83813000D02*
X144332000Y-65793000D01*
X138192000Y-65853000D02*
G75*
G03*
X140192000Y-65853000I1000000J0D01*
G01*
%TO.C,J1*%
X197832000Y-46593000D02*
X192272000Y-46593000D01*
X192272000Y-46593000D02*
X192272000Y-52113000D01*
X193272000Y-52112000D02*
X193272000Y-53388000D01*
X192272000Y-52113000D02*
X193272000Y-52113000D01*
X192832000Y-52788000D02*
X192232000Y-52788000D01*
X192232000Y-52788000D02*
X192532000Y-53388000D01*
X192532000Y-53388000D02*
X192832000Y-52788000D01*
X193272000Y-55578000D02*
X193272000Y-56154000D01*
X193272000Y-57893000D02*
X193272000Y-58694000D01*
X193272000Y-60433000D02*
X193272000Y-61234000D01*
X193272000Y-62973000D02*
X193272000Y-63774000D01*
X193272000Y-65513000D02*
X193272000Y-66314000D01*
X193272000Y-68053000D02*
X193272000Y-68854000D01*
X193272000Y-70593000D02*
X193272000Y-71394000D01*
X193272000Y-73133000D02*
X193272000Y-73934000D01*
X193272000Y-75673000D02*
X193272000Y-76474000D01*
X193272000Y-78213000D02*
X193272000Y-79014000D01*
X193272000Y-80753000D02*
X193272000Y-81554000D01*
X193272000Y-83293000D02*
X193272000Y-84094000D01*
X193272000Y-85833000D02*
X193272000Y-86634000D01*
X193272000Y-88373000D02*
X193272000Y-89174000D01*
X193272000Y-90913000D02*
X193272000Y-91714000D01*
X193272000Y-93453000D02*
X193272000Y-94254000D01*
X193272000Y-95993000D02*
X193272000Y-96794000D01*
X193272000Y-98533000D02*
X193272000Y-99334000D01*
X193272000Y-101073000D02*
X193272000Y-101874000D01*
X193272000Y-103613000D02*
X193272000Y-104414000D01*
X193272000Y-106153000D02*
X193272000Y-106954000D01*
X193272000Y-108693000D02*
X193272000Y-109494000D01*
X193272000Y-111233000D02*
X193272000Y-112034000D01*
X193272000Y-113773000D02*
X193272000Y-114574000D01*
X193272000Y-116313000D02*
X193272000Y-117114000D01*
X193272000Y-118853000D02*
X193272000Y-119654000D01*
X193272000Y-121393000D02*
X193272000Y-122194000D01*
X193272000Y-123933000D02*
X193272000Y-124734000D01*
X193272000Y-126473000D02*
X193272000Y-127274000D01*
X193272000Y-129013000D02*
X193272000Y-129814000D01*
X193272000Y-131553000D02*
X193272000Y-132354000D01*
X193272000Y-134093000D02*
X193272000Y-135593000D01*
X192272000Y-135593000D02*
X193272000Y-135593000D01*
X197832000Y-141113000D02*
X192272000Y-141113000D01*
X192272000Y-141113000D02*
X192272000Y-135593000D01*
%TO.C,Y1*%
X134372000Y-94233000D02*
X146372000Y-94233000D01*
X134372000Y-94353000D02*
X134372000Y-94233000D01*
X134722000Y-94353000D02*
X134722000Y-107753000D01*
X134722000Y-107753000D02*
X146022000Y-107753000D01*
X137922000Y-93503000D02*
X137922000Y-93503000D01*
X137922000Y-94353000D02*
X137922000Y-93503000D01*
X142822000Y-93503000D02*
X142822000Y-93503000D01*
X142822000Y-94353000D02*
X142822000Y-93503000D01*
X146022000Y-94353000D02*
X134722000Y-94353000D01*
X146022000Y-107753000D02*
X146022000Y-94353000D01*
X146372000Y-94233000D02*
X146372000Y-94353000D01*
X146372000Y-94353000D02*
X134372000Y-94353000D01*
%TO.C,U8*%
X96587000Y-108973000D02*
X96587000Y-134613000D01*
X96587000Y-134613000D02*
X106867000Y-134613000D01*
X99077000Y-109033000D02*
X99077000Y-134553000D01*
X99077000Y-134553000D02*
X104377000Y-134553000D01*
X100727000Y-109033000D02*
X99077000Y-109033000D01*
X104377000Y-109033000D02*
X102727000Y-109033000D01*
X104377000Y-134553000D02*
X104377000Y-109033000D01*
X106867000Y-108973000D02*
X96587000Y-108973000D01*
X106867000Y-134613000D02*
X106867000Y-108973000D01*
X100727000Y-109033000D02*
G75*
G03*
X102727000Y-109033000I1000000J0D01*
G01*
%TO.C,J2*%
X80972000Y-114673000D02*
X80972000Y-113673000D01*
X80972000Y-113673000D02*
X79972000Y-114173000D01*
X79972000Y-114173000D02*
X80972000Y-114673000D01*
X79582000Y-125253000D02*
X72252000Y-125253000D01*
X79582000Y-62453000D02*
X79582000Y-125253000D01*
X72252000Y-125253000D02*
X62592000Y-121783000D01*
X72252000Y-62453000D02*
X79582000Y-62453000D01*
X66152000Y-116963000D02*
X66152000Y-70743000D01*
X66152000Y-70743000D02*
X62592000Y-70113000D01*
X62592000Y-121783000D02*
X62592000Y-117593000D01*
X62592000Y-117593000D02*
X66152000Y-116963000D01*
X62592000Y-70113000D02*
X62592000Y-65923000D01*
X62592000Y-65923000D02*
X72252000Y-62453000D01*
%TO.C,C5*%
X158687000Y-73633000D02*
X158687000Y-70893000D01*
X158687000Y-73633000D02*
X151447000Y-73633000D01*
X158687000Y-70893000D02*
X151447000Y-70893000D01*
X151447000Y-73633000D02*
X151447000Y-70893000D01*
%TO.C,C12*%
X119357000Y-96493000D02*
X119357000Y-93753000D01*
X119357000Y-96493000D02*
X112117000Y-96493000D01*
X119357000Y-93753000D02*
X112117000Y-93753000D01*
X112117000Y-96493000D02*
X112117000Y-93753000D01*
%TO.C,U4*%
X148657000Y-75953000D02*
X148657000Y-93973000D01*
X148657000Y-93973000D02*
X158937000Y-93973000D01*
X151147000Y-76013000D02*
X151147000Y-93913000D01*
X151147000Y-93913000D02*
X156447000Y-93913000D01*
X152797000Y-76013000D02*
X151147000Y-76013000D01*
X156447000Y-76013000D02*
X154797000Y-76013000D01*
X156447000Y-93913000D02*
X156447000Y-76013000D01*
X158937000Y-75953000D02*
X148657000Y-75953000D01*
X158937000Y-93973000D02*
X158937000Y-75953000D01*
X152797000Y-76013000D02*
G75*
G03*
X154797000Y-76013000I1000000J0D01*
G01*
%TO.C,U10*%
X129092000Y-134613000D02*
X129092000Y-98813000D01*
X129092000Y-98813000D02*
X111192000Y-98813000D01*
X126602000Y-134553000D02*
X126602000Y-98873000D01*
X126602000Y-98873000D02*
X113682000Y-98873000D01*
X121142000Y-134553000D02*
X126602000Y-134553000D01*
X113682000Y-134553000D02*
X119142000Y-134553000D01*
X113682000Y-98873000D02*
X113682000Y-134553000D01*
X111192000Y-134613000D02*
X129092000Y-134613000D01*
X111192000Y-98813000D02*
X111192000Y-134613000D01*
X121142000Y-134553000D02*
G75*
G03*
X119142000Y-134553000I-1000000J0D01*
G01*
%TO.C,C4*%
X159516698Y-66958000D02*
X158716698Y-66958000D01*
X159116698Y-67358000D02*
X159116698Y-66558000D01*
X155107000Y-68723000D02*
X155107000Y-60563000D01*
X155067000Y-68723000D02*
X155067000Y-60563000D01*
X155027000Y-68723000D02*
X155027000Y-60563000D01*
X154987000Y-68722000D02*
X154987000Y-60564000D01*
X154947000Y-68720000D02*
X154947000Y-60566000D01*
X154907000Y-68719000D02*
X154907000Y-60567000D01*
X154867000Y-68717000D02*
X154867000Y-60569000D01*
X154827000Y-68714000D02*
X154827000Y-60572000D01*
X154787000Y-68711000D02*
X154787000Y-60575000D01*
X154747000Y-68708000D02*
X154747000Y-60578000D01*
X154707000Y-68704000D02*
X154707000Y-60582000D01*
X154667000Y-68700000D02*
X154667000Y-60586000D01*
X154627000Y-68695000D02*
X154627000Y-60591000D01*
X154587000Y-68691000D02*
X154587000Y-60595000D01*
X154547000Y-68685000D02*
X154547000Y-60601000D01*
X154507000Y-68680000D02*
X154507000Y-60606000D01*
X154467000Y-68673000D02*
X154467000Y-60613000D01*
X154427000Y-68667000D02*
X154427000Y-60619000D01*
X154386000Y-68660000D02*
X154386000Y-60626000D01*
X154346000Y-68653000D02*
X154346000Y-60633000D01*
X154306000Y-68645000D02*
X154306000Y-60641000D01*
X154266000Y-68637000D02*
X154266000Y-60649000D01*
X154226000Y-68628000D02*
X154226000Y-60658000D01*
X154186000Y-68619000D02*
X154186000Y-60667000D01*
X154146000Y-68610000D02*
X154146000Y-60676000D01*
X154106000Y-68600000D02*
X154106000Y-60686000D01*
X154066000Y-68590000D02*
X154066000Y-60696000D01*
X154026000Y-68579000D02*
X154026000Y-60707000D01*
X153986000Y-68568000D02*
X153986000Y-60718000D01*
X153946000Y-68557000D02*
X153946000Y-60729000D01*
X153906000Y-68545000D02*
X153906000Y-60741000D01*
X153866000Y-68532000D02*
X153866000Y-60754000D01*
X153826000Y-68520000D02*
X153826000Y-60766000D01*
X153786000Y-68506000D02*
X153786000Y-60780000D01*
X153746000Y-68493000D02*
X153746000Y-60793000D01*
X153706000Y-68478000D02*
X153706000Y-60808000D01*
X153666000Y-68464000D02*
X153666000Y-60822000D01*
X153626000Y-68448000D02*
X153626000Y-65683000D01*
X153626000Y-63603000D02*
X153626000Y-60838000D01*
X153586000Y-68433000D02*
X153586000Y-65683000D01*
X153586000Y-63603000D02*
X153586000Y-60853000D01*
X153546000Y-68417000D02*
X153546000Y-65683000D01*
X153546000Y-63603000D02*
X153546000Y-60869000D01*
X153506000Y-68400000D02*
X153506000Y-65683000D01*
X153506000Y-63603000D02*
X153506000Y-60886000D01*
X153466000Y-68383000D02*
X153466000Y-65683000D01*
X153466000Y-63603000D02*
X153466000Y-60903000D01*
X153426000Y-68365000D02*
X153426000Y-65683000D01*
X153426000Y-63603000D02*
X153426000Y-60921000D01*
X153386000Y-68347000D02*
X153386000Y-65683000D01*
X153386000Y-63603000D02*
X153386000Y-60939000D01*
X153346000Y-68329000D02*
X153346000Y-65683000D01*
X153346000Y-63603000D02*
X153346000Y-60957000D01*
X153306000Y-68309000D02*
X153306000Y-65683000D01*
X153306000Y-63603000D02*
X153306000Y-60977000D01*
X153266000Y-68290000D02*
X153266000Y-65683000D01*
X153266000Y-63603000D02*
X153266000Y-60996000D01*
X153226000Y-68270000D02*
X153226000Y-65683000D01*
X153226000Y-63603000D02*
X153226000Y-61016000D01*
X153186000Y-68249000D02*
X153186000Y-65683000D01*
X153186000Y-63603000D02*
X153186000Y-61037000D01*
X153146000Y-68227000D02*
X153146000Y-65683000D01*
X153146000Y-63603000D02*
X153146000Y-61059000D01*
X153106000Y-68205000D02*
X153106000Y-65683000D01*
X153106000Y-63603000D02*
X153106000Y-61081000D01*
X153066000Y-68183000D02*
X153066000Y-65683000D01*
X153066000Y-63603000D02*
X153066000Y-61103000D01*
X153026000Y-68160000D02*
X153026000Y-65683000D01*
X153026000Y-63603000D02*
X153026000Y-61126000D01*
X152986000Y-68136000D02*
X152986000Y-65683000D01*
X152986000Y-63603000D02*
X152986000Y-61150000D01*
X152946000Y-68112000D02*
X152946000Y-65683000D01*
X152946000Y-63603000D02*
X152946000Y-61174000D01*
X152906000Y-68087000D02*
X152906000Y-65683000D01*
X152906000Y-63603000D02*
X152906000Y-61199000D01*
X152866000Y-68061000D02*
X152866000Y-65683000D01*
X152866000Y-63603000D02*
X152866000Y-61225000D01*
X152826000Y-68035000D02*
X152826000Y-65683000D01*
X152826000Y-63603000D02*
X152826000Y-61251000D01*
X152786000Y-68008000D02*
X152786000Y-65683000D01*
X152786000Y-63603000D02*
X152786000Y-61278000D01*
X152746000Y-67981000D02*
X152746000Y-65683000D01*
X152746000Y-63603000D02*
X152746000Y-61305000D01*
X152706000Y-67952000D02*
X152706000Y-65683000D01*
X152706000Y-63603000D02*
X152706000Y-61334000D01*
X152666000Y-67923000D02*
X152666000Y-65683000D01*
X152666000Y-63603000D02*
X152666000Y-61363000D01*
X152626000Y-67893000D02*
X152626000Y-65683000D01*
X152626000Y-63603000D02*
X152626000Y-61393000D01*
X152586000Y-67863000D02*
X152586000Y-65683000D01*
X152586000Y-63603000D02*
X152586000Y-61423000D01*
X152546000Y-67832000D02*
X152546000Y-65683000D01*
X152546000Y-63603000D02*
X152546000Y-61454000D01*
X152506000Y-67799000D02*
X152506000Y-65683000D01*
X152506000Y-63603000D02*
X152506000Y-61487000D01*
X152466000Y-67767000D02*
X152466000Y-65683000D01*
X152466000Y-63603000D02*
X152466000Y-61519000D01*
X152426000Y-67733000D02*
X152426000Y-65683000D01*
X152426000Y-63603000D02*
X152426000Y-61553000D01*
X152386000Y-67698000D02*
X152386000Y-65683000D01*
X152386000Y-63603000D02*
X152386000Y-61588000D01*
X152346000Y-67662000D02*
X152346000Y-65683000D01*
X152346000Y-63603000D02*
X152346000Y-61624000D01*
X152306000Y-67626000D02*
X152306000Y-65683000D01*
X152306000Y-63603000D02*
X152306000Y-61660000D01*
X152266000Y-67588000D02*
X152266000Y-65683000D01*
X152266000Y-63603000D02*
X152266000Y-61698000D01*
X152226000Y-67550000D02*
X152226000Y-65683000D01*
X152226000Y-63603000D02*
X152226000Y-61736000D01*
X152186000Y-67510000D02*
X152186000Y-65683000D01*
X152186000Y-63603000D02*
X152186000Y-61776000D01*
X152146000Y-67469000D02*
X152146000Y-65683000D01*
X152146000Y-63603000D02*
X152146000Y-61817000D01*
X152106000Y-67427000D02*
X152106000Y-65683000D01*
X152106000Y-63603000D02*
X152106000Y-61859000D01*
X152066000Y-67384000D02*
X152066000Y-65683000D01*
X152066000Y-63603000D02*
X152066000Y-61902000D01*
X152026000Y-67340000D02*
X152026000Y-65683000D01*
X152026000Y-63603000D02*
X152026000Y-61946000D01*
X151986000Y-67294000D02*
X151986000Y-65683000D01*
X151986000Y-63603000D02*
X151986000Y-61992000D01*
X151946000Y-67247000D02*
X151946000Y-65683000D01*
X151946000Y-63603000D02*
X151946000Y-62039000D01*
X151906000Y-67199000D02*
X151906000Y-65683000D01*
X151906000Y-63603000D02*
X151906000Y-62087000D01*
X151866000Y-67148000D02*
X151866000Y-65683000D01*
X151866000Y-63603000D02*
X151866000Y-62138000D01*
X151826000Y-67097000D02*
X151826000Y-65683000D01*
X151826000Y-63603000D02*
X151826000Y-62189000D01*
X151786000Y-67043000D02*
X151786000Y-65683000D01*
X151786000Y-63603000D02*
X151786000Y-62243000D01*
X151746000Y-66988000D02*
X151746000Y-65683000D01*
X151746000Y-63603000D02*
X151746000Y-62298000D01*
X151706000Y-66930000D02*
X151706000Y-65683000D01*
X151706000Y-63603000D02*
X151706000Y-62356000D01*
X151666000Y-66871000D02*
X151666000Y-65683000D01*
X151666000Y-63603000D02*
X151666000Y-62415000D01*
X151626000Y-66809000D02*
X151626000Y-65683000D01*
X151626000Y-63603000D02*
X151626000Y-62477000D01*
X151586000Y-66745000D02*
X151586000Y-65683000D01*
X151586000Y-63603000D02*
X151586000Y-62541000D01*
X151546000Y-66677000D02*
X151546000Y-62609000D01*
X151506000Y-66607000D02*
X151506000Y-62679000D01*
X151466000Y-66533000D02*
X151466000Y-62753000D01*
X151426000Y-66456000D02*
X151426000Y-62830000D01*
X151386000Y-66374000D02*
X151386000Y-62912000D01*
X151346000Y-66288000D02*
X151346000Y-62998000D01*
X151306000Y-66195000D02*
X151306000Y-63091000D01*
X151266000Y-66096000D02*
X151266000Y-63190000D01*
X151226000Y-65989000D02*
X151226000Y-63297000D01*
X151186000Y-65872000D02*
X151186000Y-63414000D01*
X151146000Y-65741000D02*
X151146000Y-63545000D01*
X151106000Y-65591000D02*
X151106000Y-63695000D01*
X151066000Y-65411000D02*
X151066000Y-63875000D01*
X151026000Y-65176000D02*
X151026000Y-64110000D01*
X159227000Y-64643000D02*
G75*
G03*
X159227000Y-64643000I-4120000J0D01*
G01*
%TO.C,C14*%
X106577000Y-106653000D02*
X106577000Y-103913000D01*
X106577000Y-106653000D02*
X99337000Y-106653000D01*
X106577000Y-103913000D02*
X99337000Y-103913000D01*
X99337000Y-106653000D02*
X99337000Y-103913000D01*
%TO.C,RP1*%
X131702000Y-55583000D02*
X128902000Y-55583000D01*
X128902000Y-55583000D02*
X128902000Y-76243000D01*
X131702000Y-58293000D02*
X128902000Y-58293000D01*
X131702000Y-76243000D02*
X131702000Y-55583000D01*
X128902000Y-76243000D02*
X131702000Y-76243000D01*
%TO.C,C8*%
X136882000Y-84863000D02*
X136882000Y-87603000D01*
X136882000Y-84863000D02*
X144122000Y-84863000D01*
X136882000Y-87603000D02*
X144122000Y-87603000D01*
X144122000Y-84863000D02*
X144122000Y-87603000D01*
%TO.C,RP2*%
X93602000Y-78443000D02*
X90802000Y-78443000D01*
X90802000Y-78443000D02*
X90802000Y-96563000D01*
X93602000Y-81153000D02*
X90802000Y-81153000D01*
X93602000Y-96563000D02*
X93602000Y-78443000D01*
X90802000Y-96563000D02*
X93602000Y-96563000D01*
%TO.C,C2*%
X180952000Y-109193000D02*
X180952000Y-106453000D01*
X180952000Y-109193000D02*
X173712000Y-109193000D01*
X180952000Y-106453000D02*
X173712000Y-106453000D01*
X173712000Y-109193000D02*
X173712000Y-106453000D01*
%TO.C,C1*%
X179007000Y-84428000D02*
X179007000Y-81688000D01*
X179007000Y-84428000D02*
X171767000Y-84428000D01*
X179007000Y-81688000D02*
X171767000Y-81688000D01*
X171767000Y-84428000D02*
X171767000Y-81688000D01*
%TO.C,U7*%
X96587000Y-83568000D02*
X96587000Y-101588000D01*
X96587000Y-101588000D02*
X106867000Y-101588000D01*
X99077000Y-83628000D02*
X99077000Y-101528000D01*
X99077000Y-101528000D02*
X104377000Y-101528000D01*
X100727000Y-83628000D02*
X99077000Y-83628000D01*
X104377000Y-83628000D02*
X102727000Y-83628000D01*
X104377000Y-101528000D02*
X104377000Y-83628000D01*
X106867000Y-83568000D02*
X96587000Y-83568000D01*
X106867000Y-101588000D02*
X106867000Y-83568000D01*
X100727000Y-83628000D02*
G75*
G03*
X102727000Y-83628000I1000000J0D01*
G01*
%TO.C,C10*%
X143487000Y-111098000D02*
X143487000Y-108358000D01*
X143487000Y-111098000D02*
X136247000Y-111098000D01*
X143487000Y-108358000D02*
X136247000Y-108358000D01*
X136247000Y-111098000D02*
X136247000Y-108358000D01*
%TO.C,Q1*%
X168617000Y-86883000D02*
X168617000Y-83033000D01*
X166167000Y-86433000D02*
X167067000Y-86803000D01*
X166167000Y-83483000D02*
X166167000Y-86433000D01*
X167067000Y-83153000D02*
X166167000Y-83483000D01*
X168617000Y-83033000D02*
X168467000Y-83003000D01*
%TO.C,C9*%
X136882000Y-88038000D02*
X136882000Y-90778000D01*
X136882000Y-88038000D02*
X144122000Y-88038000D01*
X136882000Y-90778000D02*
X144122000Y-90778000D01*
X144122000Y-88038000D02*
X144122000Y-90778000D01*
%TO.C,U3*%
X111827000Y-73413000D02*
X111827000Y-91433000D01*
X111827000Y-91433000D02*
X122107000Y-91433000D01*
X114317000Y-73473000D02*
X114317000Y-91373000D01*
X114317000Y-91373000D02*
X119617000Y-91373000D01*
X115967000Y-73473000D02*
X114317000Y-73473000D01*
X119617000Y-73473000D02*
X117967000Y-73473000D01*
X119617000Y-91373000D02*
X119617000Y-73473000D01*
X122107000Y-73413000D02*
X111827000Y-73413000D01*
X122107000Y-91433000D02*
X122107000Y-73413000D01*
X115967000Y-73473000D02*
G75*
G03*
X117967000Y-73473000I1000000J0D01*
G01*
%TO.C,C11*%
X121857000Y-71093000D02*
X121857000Y-68353000D01*
X121857000Y-71093000D02*
X114617000Y-71093000D01*
X121857000Y-68353000D02*
X114617000Y-68353000D01*
X114617000Y-71093000D02*
X114617000Y-68353000D01*
%TO.C,C7*%
X144122000Y-63473000D02*
X144122000Y-60733000D01*
X144122000Y-63473000D02*
X136882000Y-63473000D01*
X144122000Y-60733000D02*
X136882000Y-60733000D01*
X136882000Y-63473000D02*
X136882000Y-60733000D01*
%TO.C,U11*%
X133417000Y-114053000D02*
X133417000Y-134613000D01*
X133417000Y-134613000D02*
X143697000Y-134613000D01*
X135907000Y-114113000D02*
X135907000Y-134553000D01*
X135907000Y-134553000D02*
X141207000Y-134553000D01*
X137557000Y-114113000D02*
X135907000Y-114113000D01*
X141207000Y-114113000D02*
X139557000Y-114113000D01*
X141207000Y-134553000D02*
X141207000Y-114113000D01*
X143697000Y-114053000D02*
X133417000Y-114053000D01*
X143697000Y-134613000D02*
X143697000Y-114053000D01*
X137557000Y-114113000D02*
G75*
G03*
X139557000Y-114113000I1000000J0D01*
G01*
%TO.C,C13*%
X106657000Y-81253000D02*
X106657000Y-78513000D01*
X106657000Y-81253000D02*
X99417000Y-81253000D01*
X106657000Y-78513000D02*
X99417000Y-78513000D01*
X99417000Y-81253000D02*
X99417000Y-78513000D01*
%TO.C,U2*%
X170882000Y-86113000D02*
X170882000Y-104133000D01*
X170882000Y-104133000D02*
X181162000Y-104133000D01*
X173372000Y-86173000D02*
X173372000Y-104073000D01*
X173372000Y-104073000D02*
X178672000Y-104073000D01*
X175022000Y-86173000D02*
X173372000Y-86173000D01*
X178672000Y-86173000D02*
X177022000Y-86173000D01*
X178672000Y-104073000D02*
X178672000Y-86173000D01*
X181162000Y-86113000D02*
X170882000Y-86113000D01*
X181162000Y-104133000D02*
X181162000Y-86113000D01*
X175022000Y-86173000D02*
G75*
G03*
X177022000Y-86173000I1000000J0D01*
G01*
%TD*%
D16*
X197612000Y-44958000D02*
X71882000Y-44958000D01*
X77724000Y-67691000D02*
G75*
G03*
X77724000Y-67691000I-1270000J0D01*
G01*
X77724000Y-120015000D02*
G75*
G03*
X77724000Y-120015000I-1270000J0D01*
G01*
X78867000Y-49403000D02*
G75*
G03*
X78867000Y-49403000I-1905000J0D01*
G01*
X120142000Y-138303000D02*
G75*
G03*
X120142000Y-138303000I-1905000J0D01*
G01*
X197612000Y-142748000D02*
X197612000Y-44958000D01*
X71882000Y-44958000D02*
X71882000Y-142748000D01*
X120142000Y-49403000D02*
G75*
G03*
X120142000Y-49403000I-1905000J0D01*
G01*
X71882000Y-142748000D02*
X197612000Y-142748000D01*
X78867000Y-138303000D02*
G75*
G03*
X78867000Y-138303000I-1905000J0D01*
G01*
M02*
