%TF.GenerationSoftware,KiCad,Pcbnew,7.0.5-4d25ed1034~172~ubuntu22.04.1*%
%TF.CreationDate,2023-06-17T18:54:06+02:00*%
%TF.ProjectId,qdisk_v4,71646973-6b5f-4763-942e-6b696361645f,00*%
%TF.SameCoordinates,Original*%
%TF.FileFunction,Drillmap*%
%TF.FilePolarity,Positive*%
%FSLAX45Y45*%
G04 Gerber Fmt 4.5, Leading zero omitted, Abs format (unit mm)*
G04 Created by KiCad (PCBNEW 7.0.5-4d25ed1034~172~ubuntu22.04.1) date 2023-06-17 18:54:06*
%MOMM*%
%LPD*%
G01*
G04 APERTURE LIST*
%ADD10C,0.050000*%
%ADD11C,0.200000*%
%ADD12C,0.285000*%
%ADD13C,0.350000*%
G04 APERTURE END LIST*
D10*
X19761200Y-4495800D02*
X7188200Y-4495800D01*
X7772400Y-6769100D02*
G75*
G03*
X7772400Y-6769100I-127000J0D01*
G01*
X7772400Y-12001500D02*
G75*
G03*
X7772400Y-12001500I-127000J0D01*
G01*
X7886700Y-4940300D02*
G75*
G03*
X7886700Y-4940300I-190500J0D01*
G01*
X12014200Y-13830300D02*
G75*
G03*
X12014200Y-13830300I-190500J0D01*
G01*
X19761200Y-14274800D02*
X19761200Y-4495800D01*
X7188200Y-4495800D02*
X7188200Y-14274800D01*
X12014200Y-4940300D02*
G75*
G03*
X12014200Y-4940300I-190500J0D01*
G01*
X7188200Y-14274800D02*
X19761200Y-14274800D01*
X7886700Y-13830300D02*
G75*
G03*
X7886700Y-13830300I-190500J0D01*
G01*
D11*
D12*
X19364700Y-4797800D02*
X19649700Y-5082800D01*
X19649700Y-4797800D02*
X19364700Y-5082800D01*
X19364700Y-13687800D02*
X19649700Y-13972800D01*
X19649700Y-13687800D02*
X19364700Y-13972800D01*
D13*
X17459700Y-6356300D02*
G75*
G03*
X17459700Y-6356300I-175000J0D01*
G01*
D11*
X7446477Y-14588784D02*
X7446477Y-14388784D01*
X7446477Y-14388784D02*
X7494096Y-14388784D01*
X7494096Y-14388784D02*
X7522667Y-14398308D01*
X7522667Y-14398308D02*
X7541715Y-14417355D01*
X7541715Y-14417355D02*
X7551239Y-14436403D01*
X7551239Y-14436403D02*
X7560762Y-14474498D01*
X7560762Y-14474498D02*
X7560762Y-14503069D01*
X7560762Y-14503069D02*
X7551239Y-14541165D01*
X7551239Y-14541165D02*
X7541715Y-14560212D01*
X7541715Y-14560212D02*
X7522667Y-14579260D01*
X7522667Y-14579260D02*
X7494096Y-14588784D01*
X7494096Y-14588784D02*
X7446477Y-14588784D01*
X7646477Y-14588784D02*
X7646477Y-14455450D01*
X7646477Y-14493546D02*
X7656001Y-14474498D01*
X7656001Y-14474498D02*
X7665524Y-14464974D01*
X7665524Y-14464974D02*
X7684572Y-14455450D01*
X7684572Y-14455450D02*
X7703620Y-14455450D01*
X7770286Y-14588784D02*
X7770286Y-14455450D01*
X7770286Y-14388784D02*
X7760762Y-14398308D01*
X7760762Y-14398308D02*
X7770286Y-14407831D01*
X7770286Y-14407831D02*
X7779810Y-14398308D01*
X7779810Y-14398308D02*
X7770286Y-14388784D01*
X7770286Y-14388784D02*
X7770286Y-14407831D01*
X7894096Y-14588784D02*
X7875048Y-14579260D01*
X7875048Y-14579260D02*
X7865524Y-14560212D01*
X7865524Y-14560212D02*
X7865524Y-14388784D01*
X7998858Y-14588784D02*
X7979810Y-14579260D01*
X7979810Y-14579260D02*
X7970286Y-14560212D01*
X7970286Y-14560212D02*
X7970286Y-14388784D01*
X8227429Y-14588784D02*
X8227429Y-14388784D01*
X8227429Y-14388784D02*
X8294096Y-14531641D01*
X8294096Y-14531641D02*
X8360762Y-14388784D01*
X8360762Y-14388784D02*
X8360762Y-14588784D01*
X8541715Y-14588784D02*
X8541715Y-14484022D01*
X8541715Y-14484022D02*
X8532191Y-14464974D01*
X8532191Y-14464974D02*
X8513144Y-14455450D01*
X8513144Y-14455450D02*
X8475048Y-14455450D01*
X8475048Y-14455450D02*
X8456001Y-14464974D01*
X8541715Y-14579260D02*
X8522667Y-14588784D01*
X8522667Y-14588784D02*
X8475048Y-14588784D01*
X8475048Y-14588784D02*
X8456001Y-14579260D01*
X8456001Y-14579260D02*
X8446477Y-14560212D01*
X8446477Y-14560212D02*
X8446477Y-14541165D01*
X8446477Y-14541165D02*
X8456001Y-14522117D01*
X8456001Y-14522117D02*
X8475048Y-14512593D01*
X8475048Y-14512593D02*
X8522667Y-14512593D01*
X8522667Y-14512593D02*
X8541715Y-14503069D01*
X8636953Y-14455450D02*
X8636953Y-14655450D01*
X8636953Y-14464974D02*
X8656001Y-14455450D01*
X8656001Y-14455450D02*
X8694096Y-14455450D01*
X8694096Y-14455450D02*
X8713144Y-14464974D01*
X8713144Y-14464974D02*
X8722667Y-14474498D01*
X8722667Y-14474498D02*
X8732191Y-14493546D01*
X8732191Y-14493546D02*
X8732191Y-14550688D01*
X8732191Y-14550688D02*
X8722667Y-14569736D01*
X8722667Y-14569736D02*
X8713144Y-14579260D01*
X8713144Y-14579260D02*
X8694096Y-14588784D01*
X8694096Y-14588784D02*
X8656001Y-14588784D01*
X8656001Y-14588784D02*
X8636953Y-14579260D01*
X8817905Y-14569736D02*
X8827429Y-14579260D01*
X8827429Y-14579260D02*
X8817905Y-14588784D01*
X8817905Y-14588784D02*
X8808382Y-14579260D01*
X8808382Y-14579260D02*
X8817905Y-14569736D01*
X8817905Y-14569736D02*
X8817905Y-14588784D01*
X8817905Y-14464974D02*
X8827429Y-14474498D01*
X8827429Y-14474498D02*
X8817905Y-14484022D01*
X8817905Y-14484022D02*
X8808382Y-14474498D01*
X8808382Y-14474498D02*
X8817905Y-14464974D01*
X8817905Y-14464974D02*
X8817905Y-14484022D01*
X6985700Y-14817300D02*
X7185700Y-15017300D01*
X7185700Y-14817300D02*
X6985700Y-15017300D01*
X7436953Y-14827831D02*
X7446477Y-14818308D01*
X7446477Y-14818308D02*
X7465524Y-14808784D01*
X7465524Y-14808784D02*
X7513143Y-14808784D01*
X7513143Y-14808784D02*
X7532191Y-14818308D01*
X7532191Y-14818308D02*
X7541715Y-14827831D01*
X7541715Y-14827831D02*
X7551239Y-14846879D01*
X7551239Y-14846879D02*
X7551239Y-14865927D01*
X7551239Y-14865927D02*
X7541715Y-14894498D01*
X7541715Y-14894498D02*
X7427429Y-15008784D01*
X7427429Y-15008784D02*
X7551239Y-15008784D01*
X7636953Y-14989736D02*
X7646477Y-14999260D01*
X7646477Y-14999260D02*
X7636953Y-15008784D01*
X7636953Y-15008784D02*
X7627429Y-14999260D01*
X7627429Y-14999260D02*
X7636953Y-14989736D01*
X7636953Y-14989736D02*
X7636953Y-15008784D01*
X7760762Y-14894498D02*
X7741715Y-14884974D01*
X7741715Y-14884974D02*
X7732191Y-14875450D01*
X7732191Y-14875450D02*
X7722667Y-14856403D01*
X7722667Y-14856403D02*
X7722667Y-14846879D01*
X7722667Y-14846879D02*
X7732191Y-14827831D01*
X7732191Y-14827831D02*
X7741715Y-14818308D01*
X7741715Y-14818308D02*
X7760762Y-14808784D01*
X7760762Y-14808784D02*
X7798858Y-14808784D01*
X7798858Y-14808784D02*
X7817905Y-14818308D01*
X7817905Y-14818308D02*
X7827429Y-14827831D01*
X7827429Y-14827831D02*
X7836953Y-14846879D01*
X7836953Y-14846879D02*
X7836953Y-14856403D01*
X7836953Y-14856403D02*
X7827429Y-14875450D01*
X7827429Y-14875450D02*
X7817905Y-14884974D01*
X7817905Y-14884974D02*
X7798858Y-14894498D01*
X7798858Y-14894498D02*
X7760762Y-14894498D01*
X7760762Y-14894498D02*
X7741715Y-14904022D01*
X7741715Y-14904022D02*
X7732191Y-14913546D01*
X7732191Y-14913546D02*
X7722667Y-14932593D01*
X7722667Y-14932593D02*
X7722667Y-14970688D01*
X7722667Y-14970688D02*
X7732191Y-14989736D01*
X7732191Y-14989736D02*
X7741715Y-14999260D01*
X7741715Y-14999260D02*
X7760762Y-15008784D01*
X7760762Y-15008784D02*
X7798858Y-15008784D01*
X7798858Y-15008784D02*
X7817905Y-14999260D01*
X7817905Y-14999260D02*
X7827429Y-14989736D01*
X7827429Y-14989736D02*
X7836953Y-14970688D01*
X7836953Y-14970688D02*
X7836953Y-14932593D01*
X7836953Y-14932593D02*
X7827429Y-14913546D01*
X7827429Y-14913546D02*
X7817905Y-14904022D01*
X7817905Y-14904022D02*
X7798858Y-14894498D01*
X8017905Y-14808784D02*
X7922667Y-14808784D01*
X7922667Y-14808784D02*
X7913143Y-14904022D01*
X7913143Y-14904022D02*
X7922667Y-14894498D01*
X7922667Y-14894498D02*
X7941715Y-14884974D01*
X7941715Y-14884974D02*
X7989334Y-14884974D01*
X7989334Y-14884974D02*
X8008382Y-14894498D01*
X8008382Y-14894498D02*
X8017905Y-14904022D01*
X8017905Y-14904022D02*
X8027429Y-14923069D01*
X8027429Y-14923069D02*
X8027429Y-14970688D01*
X8027429Y-14970688D02*
X8017905Y-14989736D01*
X8017905Y-14989736D02*
X8008382Y-14999260D01*
X8008382Y-14999260D02*
X7989334Y-15008784D01*
X7989334Y-15008784D02*
X7941715Y-15008784D01*
X7941715Y-15008784D02*
X7922667Y-14999260D01*
X7922667Y-14999260D02*
X7913143Y-14989736D01*
X8151239Y-14808784D02*
X8170286Y-14808784D01*
X8170286Y-14808784D02*
X8189334Y-14818308D01*
X8189334Y-14818308D02*
X8198858Y-14827831D01*
X8198858Y-14827831D02*
X8208382Y-14846879D01*
X8208382Y-14846879D02*
X8217905Y-14884974D01*
X8217905Y-14884974D02*
X8217905Y-14932593D01*
X8217905Y-14932593D02*
X8208382Y-14970688D01*
X8208382Y-14970688D02*
X8198858Y-14989736D01*
X8198858Y-14989736D02*
X8189334Y-14999260D01*
X8189334Y-14999260D02*
X8170286Y-15008784D01*
X8170286Y-15008784D02*
X8151239Y-15008784D01*
X8151239Y-15008784D02*
X8132191Y-14999260D01*
X8132191Y-14999260D02*
X8122667Y-14989736D01*
X8122667Y-14989736D02*
X8113143Y-14970688D01*
X8113143Y-14970688D02*
X8103620Y-14932593D01*
X8103620Y-14932593D02*
X8103620Y-14884974D01*
X8103620Y-14884974D02*
X8113143Y-14846879D01*
X8113143Y-14846879D02*
X8122667Y-14827831D01*
X8122667Y-14827831D02*
X8132191Y-14818308D01*
X8132191Y-14818308D02*
X8151239Y-14808784D01*
X8303620Y-15008784D02*
X8303620Y-14875450D01*
X8303620Y-14894498D02*
X8313143Y-14884974D01*
X8313143Y-14884974D02*
X8332191Y-14875450D01*
X8332191Y-14875450D02*
X8360763Y-14875450D01*
X8360763Y-14875450D02*
X8379810Y-14884974D01*
X8379810Y-14884974D02*
X8389334Y-14904022D01*
X8389334Y-14904022D02*
X8389334Y-15008784D01*
X8389334Y-14904022D02*
X8398858Y-14884974D01*
X8398858Y-14884974D02*
X8417905Y-14875450D01*
X8417905Y-14875450D02*
X8446477Y-14875450D01*
X8446477Y-14875450D02*
X8465525Y-14884974D01*
X8465525Y-14884974D02*
X8475048Y-14904022D01*
X8475048Y-14904022D02*
X8475048Y-15008784D01*
X8570286Y-15008784D02*
X8570286Y-14875450D01*
X8570286Y-14894498D02*
X8579810Y-14884974D01*
X8579810Y-14884974D02*
X8598858Y-14875450D01*
X8598858Y-14875450D02*
X8627429Y-14875450D01*
X8627429Y-14875450D02*
X8646477Y-14884974D01*
X8646477Y-14884974D02*
X8656001Y-14904022D01*
X8656001Y-14904022D02*
X8656001Y-15008784D01*
X8656001Y-14904022D02*
X8665525Y-14884974D01*
X8665525Y-14884974D02*
X8684572Y-14875450D01*
X8684572Y-14875450D02*
X8713144Y-14875450D01*
X8713144Y-14875450D02*
X8732191Y-14884974D01*
X8732191Y-14884974D02*
X8741715Y-14904022D01*
X8741715Y-14904022D02*
X8741715Y-15008784D01*
X9132191Y-14799260D02*
X8960763Y-15056403D01*
X9389334Y-14808784D02*
X9408382Y-14808784D01*
X9408382Y-14808784D02*
X9427429Y-14818308D01*
X9427429Y-14818308D02*
X9436953Y-14827831D01*
X9436953Y-14827831D02*
X9446477Y-14846879D01*
X9446477Y-14846879D02*
X9456001Y-14884974D01*
X9456001Y-14884974D02*
X9456001Y-14932593D01*
X9456001Y-14932593D02*
X9446477Y-14970688D01*
X9446477Y-14970688D02*
X9436953Y-14989736D01*
X9436953Y-14989736D02*
X9427429Y-14999260D01*
X9427429Y-14999260D02*
X9408382Y-15008784D01*
X9408382Y-15008784D02*
X9389334Y-15008784D01*
X9389334Y-15008784D02*
X9370287Y-14999260D01*
X9370287Y-14999260D02*
X9360763Y-14989736D01*
X9360763Y-14989736D02*
X9351239Y-14970688D01*
X9351239Y-14970688D02*
X9341715Y-14932593D01*
X9341715Y-14932593D02*
X9341715Y-14884974D01*
X9341715Y-14884974D02*
X9351239Y-14846879D01*
X9351239Y-14846879D02*
X9360763Y-14827831D01*
X9360763Y-14827831D02*
X9370287Y-14818308D01*
X9370287Y-14818308D02*
X9389334Y-14808784D01*
X9541715Y-14989736D02*
X9551239Y-14999260D01*
X9551239Y-14999260D02*
X9541715Y-15008784D01*
X9541715Y-15008784D02*
X9532191Y-14999260D01*
X9532191Y-14999260D02*
X9541715Y-14989736D01*
X9541715Y-14989736D02*
X9541715Y-15008784D01*
X9741715Y-15008784D02*
X9627429Y-15008784D01*
X9684572Y-15008784D02*
X9684572Y-14808784D01*
X9684572Y-14808784D02*
X9665525Y-14837355D01*
X9665525Y-14837355D02*
X9646477Y-14856403D01*
X9646477Y-14856403D02*
X9627429Y-14865927D01*
X9932191Y-15008784D02*
X9817906Y-15008784D01*
X9875048Y-15008784D02*
X9875048Y-14808784D01*
X9875048Y-14808784D02*
X9856001Y-14837355D01*
X9856001Y-14837355D02*
X9836953Y-14856403D01*
X9836953Y-14856403D02*
X9817906Y-14865927D01*
X10008382Y-14827831D02*
X10017906Y-14818308D01*
X10017906Y-14818308D02*
X10036953Y-14808784D01*
X10036953Y-14808784D02*
X10084572Y-14808784D01*
X10084572Y-14808784D02*
X10103620Y-14818308D01*
X10103620Y-14818308D02*
X10113144Y-14827831D01*
X10113144Y-14827831D02*
X10122668Y-14846879D01*
X10122668Y-14846879D02*
X10122668Y-14865927D01*
X10122668Y-14865927D02*
X10113144Y-14894498D01*
X10113144Y-14894498D02*
X9998858Y-15008784D01*
X9998858Y-15008784D02*
X10122668Y-15008784D01*
X10198858Y-14827831D02*
X10208382Y-14818308D01*
X10208382Y-14818308D02*
X10227429Y-14808784D01*
X10227429Y-14808784D02*
X10275049Y-14808784D01*
X10275049Y-14808784D02*
X10294096Y-14818308D01*
X10294096Y-14818308D02*
X10303620Y-14827831D01*
X10303620Y-14827831D02*
X10313144Y-14846879D01*
X10313144Y-14846879D02*
X10313144Y-14865927D01*
X10313144Y-14865927D02*
X10303620Y-14894498D01*
X10303620Y-14894498D02*
X10189334Y-15008784D01*
X10189334Y-15008784D02*
X10313144Y-15008784D01*
X10389334Y-14808784D02*
X10389334Y-14846879D01*
X10465525Y-14808784D02*
X10465525Y-14846879D01*
X10760763Y-15084974D02*
X10751239Y-15075450D01*
X10751239Y-15075450D02*
X10732191Y-15046879D01*
X10732191Y-15046879D02*
X10722668Y-15027831D01*
X10722668Y-15027831D02*
X10713144Y-14999260D01*
X10713144Y-14999260D02*
X10703620Y-14951641D01*
X10703620Y-14951641D02*
X10703620Y-14913546D01*
X10703620Y-14913546D02*
X10713144Y-14865927D01*
X10713144Y-14865927D02*
X10722668Y-14837355D01*
X10722668Y-14837355D02*
X10732191Y-14818308D01*
X10732191Y-14818308D02*
X10751239Y-14789736D01*
X10751239Y-14789736D02*
X10760763Y-14780212D01*
X10827430Y-14827831D02*
X10836953Y-14818308D01*
X10836953Y-14818308D02*
X10856001Y-14808784D01*
X10856001Y-14808784D02*
X10903620Y-14808784D01*
X10903620Y-14808784D02*
X10922668Y-14818308D01*
X10922668Y-14818308D02*
X10932191Y-14827831D01*
X10932191Y-14827831D02*
X10941715Y-14846879D01*
X10941715Y-14846879D02*
X10941715Y-14865927D01*
X10941715Y-14865927D02*
X10932191Y-14894498D01*
X10932191Y-14894498D02*
X10817906Y-15008784D01*
X10817906Y-15008784D02*
X10941715Y-15008784D01*
X11179811Y-15008784D02*
X11179811Y-14808784D01*
X11265525Y-15008784D02*
X11265525Y-14904022D01*
X11265525Y-14904022D02*
X11256001Y-14884974D01*
X11256001Y-14884974D02*
X11236953Y-14875450D01*
X11236953Y-14875450D02*
X11208382Y-14875450D01*
X11208382Y-14875450D02*
X11189334Y-14884974D01*
X11189334Y-14884974D02*
X11179811Y-14894498D01*
X11389334Y-15008784D02*
X11370287Y-14999260D01*
X11370287Y-14999260D02*
X11360763Y-14989736D01*
X11360763Y-14989736D02*
X11351239Y-14970688D01*
X11351239Y-14970688D02*
X11351239Y-14913546D01*
X11351239Y-14913546D02*
X11360763Y-14894498D01*
X11360763Y-14894498D02*
X11370287Y-14884974D01*
X11370287Y-14884974D02*
X11389334Y-14875450D01*
X11389334Y-14875450D02*
X11417906Y-14875450D01*
X11417906Y-14875450D02*
X11436953Y-14884974D01*
X11436953Y-14884974D02*
X11446477Y-14894498D01*
X11446477Y-14894498D02*
X11456001Y-14913546D01*
X11456001Y-14913546D02*
X11456001Y-14970688D01*
X11456001Y-14970688D02*
X11446477Y-14989736D01*
X11446477Y-14989736D02*
X11436953Y-14999260D01*
X11436953Y-14999260D02*
X11417906Y-15008784D01*
X11417906Y-15008784D02*
X11389334Y-15008784D01*
X11570287Y-15008784D02*
X11551239Y-14999260D01*
X11551239Y-14999260D02*
X11541715Y-14980212D01*
X11541715Y-14980212D02*
X11541715Y-14808784D01*
X11722668Y-14999260D02*
X11703620Y-15008784D01*
X11703620Y-15008784D02*
X11665525Y-15008784D01*
X11665525Y-15008784D02*
X11646477Y-14999260D01*
X11646477Y-14999260D02*
X11636953Y-14980212D01*
X11636953Y-14980212D02*
X11636953Y-14904022D01*
X11636953Y-14904022D02*
X11646477Y-14884974D01*
X11646477Y-14884974D02*
X11665525Y-14875450D01*
X11665525Y-14875450D02*
X11703620Y-14875450D01*
X11703620Y-14875450D02*
X11722668Y-14884974D01*
X11722668Y-14884974D02*
X11732191Y-14904022D01*
X11732191Y-14904022D02*
X11732191Y-14923069D01*
X11732191Y-14923069D02*
X11636953Y-14942117D01*
X11808382Y-14999260D02*
X11827430Y-15008784D01*
X11827430Y-15008784D02*
X11865525Y-15008784D01*
X11865525Y-15008784D02*
X11884572Y-14999260D01*
X11884572Y-14999260D02*
X11894096Y-14980212D01*
X11894096Y-14980212D02*
X11894096Y-14970688D01*
X11894096Y-14970688D02*
X11884572Y-14951641D01*
X11884572Y-14951641D02*
X11865525Y-14942117D01*
X11865525Y-14942117D02*
X11836953Y-14942117D01*
X11836953Y-14942117D02*
X11817906Y-14932593D01*
X11817906Y-14932593D02*
X11808382Y-14913546D01*
X11808382Y-14913546D02*
X11808382Y-14904022D01*
X11808382Y-14904022D02*
X11817906Y-14884974D01*
X11817906Y-14884974D02*
X11836953Y-14875450D01*
X11836953Y-14875450D02*
X11865525Y-14875450D01*
X11865525Y-14875450D02*
X11884572Y-14884974D01*
X11960763Y-15084974D02*
X11970287Y-15075450D01*
X11970287Y-15075450D02*
X11989334Y-15046879D01*
X11989334Y-15046879D02*
X11998858Y-15027831D01*
X11998858Y-15027831D02*
X12008382Y-14999260D01*
X12008382Y-14999260D02*
X12017906Y-14951641D01*
X12017906Y-14951641D02*
X12017906Y-14913546D01*
X12017906Y-14913546D02*
X12008382Y-14865927D01*
X12008382Y-14865927D02*
X11998858Y-14837355D01*
X11998858Y-14837355D02*
X11989334Y-14818308D01*
X11989334Y-14818308D02*
X11970287Y-14789736D01*
X11970287Y-14789736D02*
X11960763Y-14780212D01*
X12322668Y-15084974D02*
X12313144Y-15075450D01*
X12313144Y-15075450D02*
X12294096Y-15046879D01*
X12294096Y-15046879D02*
X12284572Y-15027831D01*
X12284572Y-15027831D02*
X12275049Y-14999260D01*
X12275049Y-14999260D02*
X12265525Y-14951641D01*
X12265525Y-14951641D02*
X12265525Y-14913546D01*
X12265525Y-14913546D02*
X12275049Y-14865927D01*
X12275049Y-14865927D02*
X12284572Y-14837355D01*
X12284572Y-14837355D02*
X12294096Y-14818308D01*
X12294096Y-14818308D02*
X12313144Y-14789736D01*
X12313144Y-14789736D02*
X12322668Y-14780212D01*
X12398858Y-14875450D02*
X12398858Y-15008784D01*
X12398858Y-14894498D02*
X12408382Y-14884974D01*
X12408382Y-14884974D02*
X12427430Y-14875450D01*
X12427430Y-14875450D02*
X12456001Y-14875450D01*
X12456001Y-14875450D02*
X12475049Y-14884974D01*
X12475049Y-14884974D02*
X12484572Y-14904022D01*
X12484572Y-14904022D02*
X12484572Y-15008784D01*
X12608382Y-15008784D02*
X12589334Y-14999260D01*
X12589334Y-14999260D02*
X12579811Y-14989736D01*
X12579811Y-14989736D02*
X12570287Y-14970688D01*
X12570287Y-14970688D02*
X12570287Y-14913546D01*
X12570287Y-14913546D02*
X12579811Y-14894498D01*
X12579811Y-14894498D02*
X12589334Y-14884974D01*
X12589334Y-14884974D02*
X12608382Y-14875450D01*
X12608382Y-14875450D02*
X12636953Y-14875450D01*
X12636953Y-14875450D02*
X12656001Y-14884974D01*
X12656001Y-14884974D02*
X12665525Y-14894498D01*
X12665525Y-14894498D02*
X12675049Y-14913546D01*
X12675049Y-14913546D02*
X12675049Y-14970688D01*
X12675049Y-14970688D02*
X12665525Y-14989736D01*
X12665525Y-14989736D02*
X12656001Y-14999260D01*
X12656001Y-14999260D02*
X12636953Y-15008784D01*
X12636953Y-15008784D02*
X12608382Y-15008784D01*
X12732192Y-14875450D02*
X12808382Y-14875450D01*
X12760763Y-14808784D02*
X12760763Y-14980212D01*
X12760763Y-14980212D02*
X12770287Y-14999260D01*
X12770287Y-14999260D02*
X12789334Y-15008784D01*
X12789334Y-15008784D02*
X12808382Y-15008784D01*
X13027430Y-14875450D02*
X13027430Y-15075450D01*
X13027430Y-14884974D02*
X13046477Y-14875450D01*
X13046477Y-14875450D02*
X13084573Y-14875450D01*
X13084573Y-14875450D02*
X13103620Y-14884974D01*
X13103620Y-14884974D02*
X13113144Y-14894498D01*
X13113144Y-14894498D02*
X13122668Y-14913546D01*
X13122668Y-14913546D02*
X13122668Y-14970688D01*
X13122668Y-14970688D02*
X13113144Y-14989736D01*
X13113144Y-14989736D02*
X13103620Y-14999260D01*
X13103620Y-14999260D02*
X13084573Y-15008784D01*
X13084573Y-15008784D02*
X13046477Y-15008784D01*
X13046477Y-15008784D02*
X13027430Y-14999260D01*
X13236953Y-15008784D02*
X13217906Y-14999260D01*
X13217906Y-14999260D02*
X13208382Y-14980212D01*
X13208382Y-14980212D02*
X13208382Y-14808784D01*
X13398858Y-15008784D02*
X13398858Y-14904022D01*
X13398858Y-14904022D02*
X13389334Y-14884974D01*
X13389334Y-14884974D02*
X13370287Y-14875450D01*
X13370287Y-14875450D02*
X13332192Y-14875450D01*
X13332192Y-14875450D02*
X13313144Y-14884974D01*
X13398858Y-14999260D02*
X13379811Y-15008784D01*
X13379811Y-15008784D02*
X13332192Y-15008784D01*
X13332192Y-15008784D02*
X13313144Y-14999260D01*
X13313144Y-14999260D02*
X13303620Y-14980212D01*
X13303620Y-14980212D02*
X13303620Y-14961165D01*
X13303620Y-14961165D02*
X13313144Y-14942117D01*
X13313144Y-14942117D02*
X13332192Y-14932593D01*
X13332192Y-14932593D02*
X13379811Y-14932593D01*
X13379811Y-14932593D02*
X13398858Y-14923069D01*
X13465525Y-14875450D02*
X13541715Y-14875450D01*
X13494096Y-14808784D02*
X13494096Y-14980212D01*
X13494096Y-14980212D02*
X13503620Y-14999260D01*
X13503620Y-14999260D02*
X13522668Y-15008784D01*
X13522668Y-15008784D02*
X13541715Y-15008784D01*
X13684573Y-14999260D02*
X13665525Y-15008784D01*
X13665525Y-15008784D02*
X13627430Y-15008784D01*
X13627430Y-15008784D02*
X13608382Y-14999260D01*
X13608382Y-14999260D02*
X13598858Y-14980212D01*
X13598858Y-14980212D02*
X13598858Y-14904022D01*
X13598858Y-14904022D02*
X13608382Y-14884974D01*
X13608382Y-14884974D02*
X13627430Y-14875450D01*
X13627430Y-14875450D02*
X13665525Y-14875450D01*
X13665525Y-14875450D02*
X13684573Y-14884974D01*
X13684573Y-14884974D02*
X13694096Y-14904022D01*
X13694096Y-14904022D02*
X13694096Y-14923069D01*
X13694096Y-14923069D02*
X13598858Y-14942117D01*
X13865525Y-15008784D02*
X13865525Y-14808784D01*
X13865525Y-14999260D02*
X13846477Y-15008784D01*
X13846477Y-15008784D02*
X13808382Y-15008784D01*
X13808382Y-15008784D02*
X13789334Y-14999260D01*
X13789334Y-14999260D02*
X13779811Y-14989736D01*
X13779811Y-14989736D02*
X13770287Y-14970688D01*
X13770287Y-14970688D02*
X13770287Y-14913546D01*
X13770287Y-14913546D02*
X13779811Y-14894498D01*
X13779811Y-14894498D02*
X13789334Y-14884974D01*
X13789334Y-14884974D02*
X13808382Y-14875450D01*
X13808382Y-14875450D02*
X13846477Y-14875450D01*
X13846477Y-14875450D02*
X13865525Y-14884974D01*
X13941715Y-15084974D02*
X13951239Y-15075450D01*
X13951239Y-15075450D02*
X13970287Y-15046879D01*
X13970287Y-15046879D02*
X13979811Y-15027831D01*
X13979811Y-15027831D02*
X13989334Y-14999260D01*
X13989334Y-14999260D02*
X13998858Y-14951641D01*
X13998858Y-14951641D02*
X13998858Y-14913546D01*
X13998858Y-14913546D02*
X13989334Y-14865927D01*
X13989334Y-14865927D02*
X13979811Y-14837355D01*
X13979811Y-14837355D02*
X13970287Y-14818308D01*
X13970287Y-14818308D02*
X13951239Y-14789736D01*
X13951239Y-14789736D02*
X13941715Y-14780212D01*
X7185700Y-15237300D02*
G75*
G03*
X7185700Y-15237300I-100000J0D01*
G01*
X7427429Y-15128784D02*
X7551239Y-15128784D01*
X7551239Y-15128784D02*
X7484572Y-15204974D01*
X7484572Y-15204974D02*
X7513143Y-15204974D01*
X7513143Y-15204974D02*
X7532191Y-15214498D01*
X7532191Y-15214498D02*
X7541715Y-15224022D01*
X7541715Y-15224022D02*
X7551239Y-15243069D01*
X7551239Y-15243069D02*
X7551239Y-15290688D01*
X7551239Y-15290688D02*
X7541715Y-15309736D01*
X7541715Y-15309736D02*
X7532191Y-15319260D01*
X7532191Y-15319260D02*
X7513143Y-15328784D01*
X7513143Y-15328784D02*
X7456001Y-15328784D01*
X7456001Y-15328784D02*
X7436953Y-15319260D01*
X7436953Y-15319260D02*
X7427429Y-15309736D01*
X7636953Y-15309736D02*
X7646477Y-15319260D01*
X7646477Y-15319260D02*
X7636953Y-15328784D01*
X7636953Y-15328784D02*
X7627429Y-15319260D01*
X7627429Y-15319260D02*
X7636953Y-15309736D01*
X7636953Y-15309736D02*
X7636953Y-15328784D01*
X7827429Y-15128784D02*
X7732191Y-15128784D01*
X7732191Y-15128784D02*
X7722667Y-15224022D01*
X7722667Y-15224022D02*
X7732191Y-15214498D01*
X7732191Y-15214498D02*
X7751239Y-15204974D01*
X7751239Y-15204974D02*
X7798858Y-15204974D01*
X7798858Y-15204974D02*
X7817905Y-15214498D01*
X7817905Y-15214498D02*
X7827429Y-15224022D01*
X7827429Y-15224022D02*
X7836953Y-15243069D01*
X7836953Y-15243069D02*
X7836953Y-15290688D01*
X7836953Y-15290688D02*
X7827429Y-15309736D01*
X7827429Y-15309736D02*
X7817905Y-15319260D01*
X7817905Y-15319260D02*
X7798858Y-15328784D01*
X7798858Y-15328784D02*
X7751239Y-15328784D01*
X7751239Y-15328784D02*
X7732191Y-15319260D01*
X7732191Y-15319260D02*
X7722667Y-15309736D01*
X7960762Y-15128784D02*
X7979810Y-15128784D01*
X7979810Y-15128784D02*
X7998858Y-15138308D01*
X7998858Y-15138308D02*
X8008382Y-15147831D01*
X8008382Y-15147831D02*
X8017905Y-15166879D01*
X8017905Y-15166879D02*
X8027429Y-15204974D01*
X8027429Y-15204974D02*
X8027429Y-15252593D01*
X8027429Y-15252593D02*
X8017905Y-15290688D01*
X8017905Y-15290688D02*
X8008382Y-15309736D01*
X8008382Y-15309736D02*
X7998858Y-15319260D01*
X7998858Y-15319260D02*
X7979810Y-15328784D01*
X7979810Y-15328784D02*
X7960762Y-15328784D01*
X7960762Y-15328784D02*
X7941715Y-15319260D01*
X7941715Y-15319260D02*
X7932191Y-15309736D01*
X7932191Y-15309736D02*
X7922667Y-15290688D01*
X7922667Y-15290688D02*
X7913143Y-15252593D01*
X7913143Y-15252593D02*
X7913143Y-15204974D01*
X7913143Y-15204974D02*
X7922667Y-15166879D01*
X7922667Y-15166879D02*
X7932191Y-15147831D01*
X7932191Y-15147831D02*
X7941715Y-15138308D01*
X7941715Y-15138308D02*
X7960762Y-15128784D01*
X8151239Y-15128784D02*
X8170286Y-15128784D01*
X8170286Y-15128784D02*
X8189334Y-15138308D01*
X8189334Y-15138308D02*
X8198858Y-15147831D01*
X8198858Y-15147831D02*
X8208382Y-15166879D01*
X8208382Y-15166879D02*
X8217905Y-15204974D01*
X8217905Y-15204974D02*
X8217905Y-15252593D01*
X8217905Y-15252593D02*
X8208382Y-15290688D01*
X8208382Y-15290688D02*
X8198858Y-15309736D01*
X8198858Y-15309736D02*
X8189334Y-15319260D01*
X8189334Y-15319260D02*
X8170286Y-15328784D01*
X8170286Y-15328784D02*
X8151239Y-15328784D01*
X8151239Y-15328784D02*
X8132191Y-15319260D01*
X8132191Y-15319260D02*
X8122667Y-15309736D01*
X8122667Y-15309736D02*
X8113143Y-15290688D01*
X8113143Y-15290688D02*
X8103620Y-15252593D01*
X8103620Y-15252593D02*
X8103620Y-15204974D01*
X8103620Y-15204974D02*
X8113143Y-15166879D01*
X8113143Y-15166879D02*
X8122667Y-15147831D01*
X8122667Y-15147831D02*
X8132191Y-15138308D01*
X8132191Y-15138308D02*
X8151239Y-15128784D01*
X8303620Y-15328784D02*
X8303620Y-15195450D01*
X8303620Y-15214498D02*
X8313143Y-15204974D01*
X8313143Y-15204974D02*
X8332191Y-15195450D01*
X8332191Y-15195450D02*
X8360763Y-15195450D01*
X8360763Y-15195450D02*
X8379810Y-15204974D01*
X8379810Y-15204974D02*
X8389334Y-15224022D01*
X8389334Y-15224022D02*
X8389334Y-15328784D01*
X8389334Y-15224022D02*
X8398858Y-15204974D01*
X8398858Y-15204974D02*
X8417905Y-15195450D01*
X8417905Y-15195450D02*
X8446477Y-15195450D01*
X8446477Y-15195450D02*
X8465525Y-15204974D01*
X8465525Y-15204974D02*
X8475048Y-15224022D01*
X8475048Y-15224022D02*
X8475048Y-15328784D01*
X8570286Y-15328784D02*
X8570286Y-15195450D01*
X8570286Y-15214498D02*
X8579810Y-15204974D01*
X8579810Y-15204974D02*
X8598858Y-15195450D01*
X8598858Y-15195450D02*
X8627429Y-15195450D01*
X8627429Y-15195450D02*
X8646477Y-15204974D01*
X8646477Y-15204974D02*
X8656001Y-15224022D01*
X8656001Y-15224022D02*
X8656001Y-15328784D01*
X8656001Y-15224022D02*
X8665525Y-15204974D01*
X8665525Y-15204974D02*
X8684572Y-15195450D01*
X8684572Y-15195450D02*
X8713144Y-15195450D01*
X8713144Y-15195450D02*
X8732191Y-15204974D01*
X8732191Y-15204974D02*
X8741715Y-15224022D01*
X8741715Y-15224022D02*
X8741715Y-15328784D01*
X9132191Y-15119260D02*
X8960763Y-15376403D01*
X9389334Y-15128784D02*
X9408382Y-15128784D01*
X9408382Y-15128784D02*
X9427429Y-15138308D01*
X9427429Y-15138308D02*
X9436953Y-15147831D01*
X9436953Y-15147831D02*
X9446477Y-15166879D01*
X9446477Y-15166879D02*
X9456001Y-15204974D01*
X9456001Y-15204974D02*
X9456001Y-15252593D01*
X9456001Y-15252593D02*
X9446477Y-15290688D01*
X9446477Y-15290688D02*
X9436953Y-15309736D01*
X9436953Y-15309736D02*
X9427429Y-15319260D01*
X9427429Y-15319260D02*
X9408382Y-15328784D01*
X9408382Y-15328784D02*
X9389334Y-15328784D01*
X9389334Y-15328784D02*
X9370287Y-15319260D01*
X9370287Y-15319260D02*
X9360763Y-15309736D01*
X9360763Y-15309736D02*
X9351239Y-15290688D01*
X9351239Y-15290688D02*
X9341715Y-15252593D01*
X9341715Y-15252593D02*
X9341715Y-15204974D01*
X9341715Y-15204974D02*
X9351239Y-15166879D01*
X9351239Y-15166879D02*
X9360763Y-15147831D01*
X9360763Y-15147831D02*
X9370287Y-15138308D01*
X9370287Y-15138308D02*
X9389334Y-15128784D01*
X9541715Y-15309736D02*
X9551239Y-15319260D01*
X9551239Y-15319260D02*
X9541715Y-15328784D01*
X9541715Y-15328784D02*
X9532191Y-15319260D01*
X9532191Y-15319260D02*
X9541715Y-15309736D01*
X9541715Y-15309736D02*
X9541715Y-15328784D01*
X9741715Y-15328784D02*
X9627429Y-15328784D01*
X9684572Y-15328784D02*
X9684572Y-15128784D01*
X9684572Y-15128784D02*
X9665525Y-15157355D01*
X9665525Y-15157355D02*
X9646477Y-15176403D01*
X9646477Y-15176403D02*
X9627429Y-15185927D01*
X9808382Y-15128784D02*
X9932191Y-15128784D01*
X9932191Y-15128784D02*
X9865525Y-15204974D01*
X9865525Y-15204974D02*
X9894096Y-15204974D01*
X9894096Y-15204974D02*
X9913144Y-15214498D01*
X9913144Y-15214498D02*
X9922668Y-15224022D01*
X9922668Y-15224022D02*
X9932191Y-15243069D01*
X9932191Y-15243069D02*
X9932191Y-15290688D01*
X9932191Y-15290688D02*
X9922668Y-15309736D01*
X9922668Y-15309736D02*
X9913144Y-15319260D01*
X9913144Y-15319260D02*
X9894096Y-15328784D01*
X9894096Y-15328784D02*
X9836953Y-15328784D01*
X9836953Y-15328784D02*
X9817906Y-15319260D01*
X9817906Y-15319260D02*
X9808382Y-15309736D01*
X9998858Y-15128784D02*
X10132191Y-15128784D01*
X10132191Y-15128784D02*
X10046477Y-15328784D01*
X10236953Y-15214498D02*
X10217906Y-15204974D01*
X10217906Y-15204974D02*
X10208382Y-15195450D01*
X10208382Y-15195450D02*
X10198858Y-15176403D01*
X10198858Y-15176403D02*
X10198858Y-15166879D01*
X10198858Y-15166879D02*
X10208382Y-15147831D01*
X10208382Y-15147831D02*
X10217906Y-15138308D01*
X10217906Y-15138308D02*
X10236953Y-15128784D01*
X10236953Y-15128784D02*
X10275049Y-15128784D01*
X10275049Y-15128784D02*
X10294096Y-15138308D01*
X10294096Y-15138308D02*
X10303620Y-15147831D01*
X10303620Y-15147831D02*
X10313144Y-15166879D01*
X10313144Y-15166879D02*
X10313144Y-15176403D01*
X10313144Y-15176403D02*
X10303620Y-15195450D01*
X10303620Y-15195450D02*
X10294096Y-15204974D01*
X10294096Y-15204974D02*
X10275049Y-15214498D01*
X10275049Y-15214498D02*
X10236953Y-15214498D01*
X10236953Y-15214498D02*
X10217906Y-15224022D01*
X10217906Y-15224022D02*
X10208382Y-15233546D01*
X10208382Y-15233546D02*
X10198858Y-15252593D01*
X10198858Y-15252593D02*
X10198858Y-15290688D01*
X10198858Y-15290688D02*
X10208382Y-15309736D01*
X10208382Y-15309736D02*
X10217906Y-15319260D01*
X10217906Y-15319260D02*
X10236953Y-15328784D01*
X10236953Y-15328784D02*
X10275049Y-15328784D01*
X10275049Y-15328784D02*
X10294096Y-15319260D01*
X10294096Y-15319260D02*
X10303620Y-15309736D01*
X10303620Y-15309736D02*
X10313144Y-15290688D01*
X10313144Y-15290688D02*
X10313144Y-15252593D01*
X10313144Y-15252593D02*
X10303620Y-15233546D01*
X10303620Y-15233546D02*
X10294096Y-15224022D01*
X10294096Y-15224022D02*
X10275049Y-15214498D01*
X10389334Y-15128784D02*
X10389334Y-15166879D01*
X10465525Y-15128784D02*
X10465525Y-15166879D01*
X10760763Y-15404974D02*
X10751239Y-15395450D01*
X10751239Y-15395450D02*
X10732191Y-15366879D01*
X10732191Y-15366879D02*
X10722668Y-15347831D01*
X10722668Y-15347831D02*
X10713144Y-15319260D01*
X10713144Y-15319260D02*
X10703620Y-15271641D01*
X10703620Y-15271641D02*
X10703620Y-15233546D01*
X10703620Y-15233546D02*
X10713144Y-15185927D01*
X10713144Y-15185927D02*
X10722668Y-15157355D01*
X10722668Y-15157355D02*
X10732191Y-15138308D01*
X10732191Y-15138308D02*
X10751239Y-15109736D01*
X10751239Y-15109736D02*
X10760763Y-15100212D01*
X10941715Y-15328784D02*
X10827430Y-15328784D01*
X10884572Y-15328784D02*
X10884572Y-15128784D01*
X10884572Y-15128784D02*
X10865525Y-15157355D01*
X10865525Y-15157355D02*
X10846477Y-15176403D01*
X10846477Y-15176403D02*
X10827430Y-15185927D01*
X11179811Y-15328784D02*
X11179811Y-15128784D01*
X11265525Y-15328784D02*
X11265525Y-15224022D01*
X11265525Y-15224022D02*
X11256001Y-15204974D01*
X11256001Y-15204974D02*
X11236953Y-15195450D01*
X11236953Y-15195450D02*
X11208382Y-15195450D01*
X11208382Y-15195450D02*
X11189334Y-15204974D01*
X11189334Y-15204974D02*
X11179811Y-15214498D01*
X11389334Y-15328784D02*
X11370287Y-15319260D01*
X11370287Y-15319260D02*
X11360763Y-15309736D01*
X11360763Y-15309736D02*
X11351239Y-15290688D01*
X11351239Y-15290688D02*
X11351239Y-15233546D01*
X11351239Y-15233546D02*
X11360763Y-15214498D01*
X11360763Y-15214498D02*
X11370287Y-15204974D01*
X11370287Y-15204974D02*
X11389334Y-15195450D01*
X11389334Y-15195450D02*
X11417906Y-15195450D01*
X11417906Y-15195450D02*
X11436953Y-15204974D01*
X11436953Y-15204974D02*
X11446477Y-15214498D01*
X11446477Y-15214498D02*
X11456001Y-15233546D01*
X11456001Y-15233546D02*
X11456001Y-15290688D01*
X11456001Y-15290688D02*
X11446477Y-15309736D01*
X11446477Y-15309736D02*
X11436953Y-15319260D01*
X11436953Y-15319260D02*
X11417906Y-15328784D01*
X11417906Y-15328784D02*
X11389334Y-15328784D01*
X11570287Y-15328784D02*
X11551239Y-15319260D01*
X11551239Y-15319260D02*
X11541715Y-15300212D01*
X11541715Y-15300212D02*
X11541715Y-15128784D01*
X11722668Y-15319260D02*
X11703620Y-15328784D01*
X11703620Y-15328784D02*
X11665525Y-15328784D01*
X11665525Y-15328784D02*
X11646477Y-15319260D01*
X11646477Y-15319260D02*
X11636953Y-15300212D01*
X11636953Y-15300212D02*
X11636953Y-15224022D01*
X11636953Y-15224022D02*
X11646477Y-15204974D01*
X11646477Y-15204974D02*
X11665525Y-15195450D01*
X11665525Y-15195450D02*
X11703620Y-15195450D01*
X11703620Y-15195450D02*
X11722668Y-15204974D01*
X11722668Y-15204974D02*
X11732191Y-15224022D01*
X11732191Y-15224022D02*
X11732191Y-15243069D01*
X11732191Y-15243069D02*
X11636953Y-15262117D01*
X11798858Y-15404974D02*
X11808382Y-15395450D01*
X11808382Y-15395450D02*
X11827430Y-15366879D01*
X11827430Y-15366879D02*
X11836953Y-15347831D01*
X11836953Y-15347831D02*
X11846477Y-15319260D01*
X11846477Y-15319260D02*
X11856001Y-15271641D01*
X11856001Y-15271641D02*
X11856001Y-15233546D01*
X11856001Y-15233546D02*
X11846477Y-15185927D01*
X11846477Y-15185927D02*
X11836953Y-15157355D01*
X11836953Y-15157355D02*
X11827430Y-15138308D01*
X11827430Y-15138308D02*
X11808382Y-15109736D01*
X11808382Y-15109736D02*
X11798858Y-15100212D01*
X12160763Y-15404974D02*
X12151239Y-15395450D01*
X12151239Y-15395450D02*
X12132191Y-15366879D01*
X12132191Y-15366879D02*
X12122668Y-15347831D01*
X12122668Y-15347831D02*
X12113144Y-15319260D01*
X12113144Y-15319260D02*
X12103620Y-15271641D01*
X12103620Y-15271641D02*
X12103620Y-15233546D01*
X12103620Y-15233546D02*
X12113144Y-15185927D01*
X12113144Y-15185927D02*
X12122668Y-15157355D01*
X12122668Y-15157355D02*
X12132191Y-15138308D01*
X12132191Y-15138308D02*
X12151239Y-15109736D01*
X12151239Y-15109736D02*
X12160763Y-15100212D01*
X12236953Y-15195450D02*
X12236953Y-15328784D01*
X12236953Y-15214498D02*
X12246477Y-15204974D01*
X12246477Y-15204974D02*
X12265525Y-15195450D01*
X12265525Y-15195450D02*
X12294096Y-15195450D01*
X12294096Y-15195450D02*
X12313144Y-15204974D01*
X12313144Y-15204974D02*
X12322668Y-15224022D01*
X12322668Y-15224022D02*
X12322668Y-15328784D01*
X12446477Y-15328784D02*
X12427430Y-15319260D01*
X12427430Y-15319260D02*
X12417906Y-15309736D01*
X12417906Y-15309736D02*
X12408382Y-15290688D01*
X12408382Y-15290688D02*
X12408382Y-15233546D01*
X12408382Y-15233546D02*
X12417906Y-15214498D01*
X12417906Y-15214498D02*
X12427430Y-15204974D01*
X12427430Y-15204974D02*
X12446477Y-15195450D01*
X12446477Y-15195450D02*
X12475049Y-15195450D01*
X12475049Y-15195450D02*
X12494096Y-15204974D01*
X12494096Y-15204974D02*
X12503620Y-15214498D01*
X12503620Y-15214498D02*
X12513144Y-15233546D01*
X12513144Y-15233546D02*
X12513144Y-15290688D01*
X12513144Y-15290688D02*
X12503620Y-15309736D01*
X12503620Y-15309736D02*
X12494096Y-15319260D01*
X12494096Y-15319260D02*
X12475049Y-15328784D01*
X12475049Y-15328784D02*
X12446477Y-15328784D01*
X12570287Y-15195450D02*
X12646477Y-15195450D01*
X12598858Y-15128784D02*
X12598858Y-15300212D01*
X12598858Y-15300212D02*
X12608382Y-15319260D01*
X12608382Y-15319260D02*
X12627430Y-15328784D01*
X12627430Y-15328784D02*
X12646477Y-15328784D01*
X12865525Y-15195450D02*
X12865525Y-15395450D01*
X12865525Y-15204974D02*
X12884572Y-15195450D01*
X12884572Y-15195450D02*
X12922668Y-15195450D01*
X12922668Y-15195450D02*
X12941715Y-15204974D01*
X12941715Y-15204974D02*
X12951239Y-15214498D01*
X12951239Y-15214498D02*
X12960763Y-15233546D01*
X12960763Y-15233546D02*
X12960763Y-15290688D01*
X12960763Y-15290688D02*
X12951239Y-15309736D01*
X12951239Y-15309736D02*
X12941715Y-15319260D01*
X12941715Y-15319260D02*
X12922668Y-15328784D01*
X12922668Y-15328784D02*
X12884572Y-15328784D01*
X12884572Y-15328784D02*
X12865525Y-15319260D01*
X13075049Y-15328784D02*
X13056001Y-15319260D01*
X13056001Y-15319260D02*
X13046477Y-15300212D01*
X13046477Y-15300212D02*
X13046477Y-15128784D01*
X13236953Y-15328784D02*
X13236953Y-15224022D01*
X13236953Y-15224022D02*
X13227430Y-15204974D01*
X13227430Y-15204974D02*
X13208382Y-15195450D01*
X13208382Y-15195450D02*
X13170287Y-15195450D01*
X13170287Y-15195450D02*
X13151239Y-15204974D01*
X13236953Y-15319260D02*
X13217906Y-15328784D01*
X13217906Y-15328784D02*
X13170287Y-15328784D01*
X13170287Y-15328784D02*
X13151239Y-15319260D01*
X13151239Y-15319260D02*
X13141715Y-15300212D01*
X13141715Y-15300212D02*
X13141715Y-15281165D01*
X13141715Y-15281165D02*
X13151239Y-15262117D01*
X13151239Y-15262117D02*
X13170287Y-15252593D01*
X13170287Y-15252593D02*
X13217906Y-15252593D01*
X13217906Y-15252593D02*
X13236953Y-15243069D01*
X13303620Y-15195450D02*
X13379811Y-15195450D01*
X13332192Y-15128784D02*
X13332192Y-15300212D01*
X13332192Y-15300212D02*
X13341715Y-15319260D01*
X13341715Y-15319260D02*
X13360763Y-15328784D01*
X13360763Y-15328784D02*
X13379811Y-15328784D01*
X13522668Y-15319260D02*
X13503620Y-15328784D01*
X13503620Y-15328784D02*
X13465525Y-15328784D01*
X13465525Y-15328784D02*
X13446477Y-15319260D01*
X13446477Y-15319260D02*
X13436953Y-15300212D01*
X13436953Y-15300212D02*
X13436953Y-15224022D01*
X13436953Y-15224022D02*
X13446477Y-15204974D01*
X13446477Y-15204974D02*
X13465525Y-15195450D01*
X13465525Y-15195450D02*
X13503620Y-15195450D01*
X13503620Y-15195450D02*
X13522668Y-15204974D01*
X13522668Y-15204974D02*
X13532192Y-15224022D01*
X13532192Y-15224022D02*
X13532192Y-15243069D01*
X13532192Y-15243069D02*
X13436953Y-15262117D01*
X13703620Y-15328784D02*
X13703620Y-15128784D01*
X13703620Y-15319260D02*
X13684573Y-15328784D01*
X13684573Y-15328784D02*
X13646477Y-15328784D01*
X13646477Y-15328784D02*
X13627430Y-15319260D01*
X13627430Y-15319260D02*
X13617906Y-15309736D01*
X13617906Y-15309736D02*
X13608382Y-15290688D01*
X13608382Y-15290688D02*
X13608382Y-15233546D01*
X13608382Y-15233546D02*
X13617906Y-15214498D01*
X13617906Y-15214498D02*
X13627430Y-15204974D01*
X13627430Y-15204974D02*
X13646477Y-15195450D01*
X13646477Y-15195450D02*
X13684573Y-15195450D01*
X13684573Y-15195450D02*
X13703620Y-15204974D01*
X13779811Y-15404974D02*
X13789334Y-15395450D01*
X13789334Y-15395450D02*
X13808382Y-15366879D01*
X13808382Y-15366879D02*
X13817906Y-15347831D01*
X13817906Y-15347831D02*
X13827430Y-15319260D01*
X13827430Y-15319260D02*
X13836953Y-15271641D01*
X13836953Y-15271641D02*
X13836953Y-15233546D01*
X13836953Y-15233546D02*
X13827430Y-15185927D01*
X13827430Y-15185927D02*
X13817906Y-15157355D01*
X13817906Y-15157355D02*
X13808382Y-15138308D01*
X13808382Y-15138308D02*
X13789334Y-15109736D01*
X13789334Y-15109736D02*
X13779811Y-15100212D01*
M02*
